<?xml version="1.0" encoding="utf-8" standalone="no"?>
<!DOCTYPE svg PUBLIC "-//W3C//DTD SVG 1.1//EN"
  "http://www.w3.org/Graphics/SVG/1.1/DTD/svg11.dtd">
<svg xmlns:xlink="http://www.w3.org/1999/xlink" width="1008pt" height="504pt" viewBox="0 0 1008 504" xmlns="http://www.w3.org/2000/svg" version="1.1">
 <metadata>
  <rdf:RDF xmlns:dc="http://purl.org/dc/elements/1.1/" xmlns:cc="http://creativecommons.org/ns#" xmlns:rdf="http://www.w3.org/1999/02/22-rdf-syntax-ns#">
   <cc:Work>
    <dc:type rdf:resource="http://purl.org/dc/dcmitype/StillImage"/>
    <dc:date>2025-06-22T13:02:46.537721</dc:date>
    <dc:format>image/svg+xml</dc:format>
    <dc:creator>
     <cc:Agent>
      <dc:title>Matplotlib v3.10.1, https://matplotlib.org/</dc:title>
     </cc:Agent>
    </dc:creator>
   </cc:Work>
  </rdf:RDF>
 </metadata>
 <defs>
  <style type="text/css">*{stroke-linejoin: round; stroke-linecap: butt}</style>
 </defs>
 <g id="figure_1">
  <g id="patch_1">
   <path d="M 0 504 
L 1008 504 
L 1008 0 
L 0 0 
z
" style="fill: #ffffff"/>
  </g>
  <g id="axes_1">
   <g id="patch_2">
    <path d="M 57.17 462.04 
L 997.2 462.04 
L 997.2 10.8 
L 57.17 10.8 
z
" style="fill: #ffffff"/>
   </g>
   <g id="matplotlib.axis_1">
    <g id="xtick_1">
     <g id="line2d_1">
      <path d="M 99.898636 462.04 
L 99.898636 10.8 
" clip-path="url(#p28dd79f9d8)" style="fill: none; stroke-dasharray: 2.96,1.28; stroke-dashoffset: 0; stroke: #cccccc; stroke-opacity: 0.7; stroke-width: 0.8"/>
     </g>
     <g id="text_1">
      <!-- 0 -->
      <g style="fill: #262626" transform="translate(96.717386 476.638438) scale(0.1 -0.1)">
       <defs>
        <path id="DejaVuSans-30" d="M 2034 4250 
Q 1547 4250 1301 3770 
Q 1056 3291 1056 2328 
Q 1056 1369 1301 889 
Q 1547 409 2034 409 
Q 2525 409 2770 889 
Q 3016 1369 3016 2328 
Q 3016 3291 2770 3770 
Q 2525 4250 2034 4250 
z
M 2034 4750 
Q 2819 4750 3233 4129 
Q 3647 3509 3647 2328 
Q 3647 1150 3233 529 
Q 2819 -91 2034 -91 
Q 1250 -91 836 529 
Q 422 1150 422 2328 
Q 422 3509 836 4129 
Q 1250 4750 2034 4750 
z
" transform="scale(0.015625)"/>
       </defs>
       <use xlink:href="#DejaVuSans-30"/>
      </g>
     </g>
    </g>
    <g id="xtick_2">
     <g id="line2d_2">
      <path d="M 288.130515 462.04 
L 288.130515 10.8 
" clip-path="url(#p28dd79f9d8)" style="fill: none; stroke-dasharray: 2.96,1.28; stroke-dashoffset: 0; stroke: #cccccc; stroke-opacity: 0.7; stroke-width: 0.8"/>
     </g>
     <g id="text_2">
      <!-- 50 -->
      <g style="fill: #262626" transform="translate(281.768015 476.638438) scale(0.1 -0.1)">
       <defs>
        <path id="DejaVuSans-35" d="M 691 4666 
L 3169 4666 
L 3169 4134 
L 1269 4134 
L 1269 2991 
Q 1406 3038 1543 3061 
Q 1681 3084 1819 3084 
Q 2600 3084 3056 2656 
Q 3513 2228 3513 1497 
Q 3513 744 3044 326 
Q 2575 -91 1722 -91 
Q 1428 -91 1123 -41 
Q 819 9 494 109 
L 494 744 
Q 775 591 1075 516 
Q 1375 441 1709 441 
Q 2250 441 2565 725 
Q 2881 1009 2881 1497 
Q 2881 1984 2565 2268 
Q 2250 2553 1709 2553 
Q 1456 2553 1204 2497 
Q 953 2441 691 2322 
L 691 4666 
z
" transform="scale(0.015625)"/>
       </defs>
       <use xlink:href="#DejaVuSans-35"/>
       <use xlink:href="#DejaVuSans-30" transform="translate(63.623047 0)"/>
      </g>
     </g>
    </g>
    <g id="xtick_3">
     <g id="line2d_3">
      <path d="M 476.362393 462.04 
L 476.362393 10.8 
" clip-path="url(#p28dd79f9d8)" style="fill: none; stroke-dasharray: 2.96,1.28; stroke-dashoffset: 0; stroke: #cccccc; stroke-opacity: 0.7; stroke-width: 0.8"/>
     </g>
     <g id="text_3">
      <!-- 100 -->
      <g style="fill: #262626" transform="translate(466.818643 476.638438) scale(0.1 -0.1)">
       <defs>
        <path id="DejaVuSans-31" d="M 794 531 
L 1825 531 
L 1825 4091 
L 703 3866 
L 703 4441 
L 1819 4666 
L 2450 4666 
L 2450 531 
L 3481 531 
L 3481 0 
L 794 0 
L 794 531 
z
" transform="scale(0.015625)"/>
       </defs>
       <use xlink:href="#DejaVuSans-31"/>
       <use xlink:href="#DejaVuSans-30" transform="translate(63.623047 0)"/>
       <use xlink:href="#DejaVuSans-30" transform="translate(127.246094 0)"/>
      </g>
     </g>
    </g>
    <g id="xtick_4">
     <g id="line2d_4">
      <path d="M 664.594271 462.04 
L 664.594271 10.8 
" clip-path="url(#p28dd79f9d8)" style="fill: none; stroke-dasharray: 2.96,1.28; stroke-dashoffset: 0; stroke: #cccccc; stroke-opacity: 0.7; stroke-width: 0.8"/>
     </g>
     <g id="text_4">
      <!-- 150 -->
      <g style="fill: #262626" transform="translate(655.050521 476.638438) scale(0.1 -0.1)">
       <use xlink:href="#DejaVuSans-31"/>
       <use xlink:href="#DejaVuSans-35" transform="translate(63.623047 0)"/>
       <use xlink:href="#DejaVuSans-30" transform="translate(127.246094 0)"/>
      </g>
     </g>
    </g>
    <g id="xtick_5">
     <g id="line2d_5">
      <path d="M 852.826149 462.04 
L 852.826149 10.8 
" clip-path="url(#p28dd79f9d8)" style="fill: none; stroke-dasharray: 2.96,1.28; stroke-dashoffset: 0; stroke: #cccccc; stroke-opacity: 0.7; stroke-width: 0.8"/>
     </g>
     <g id="text_5">
      <!-- 200 -->
      <g style="fill: #262626" transform="translate(843.282399 476.638438) scale(0.1 -0.1)">
       <defs>
        <path id="DejaVuSans-32" d="M 1228 531 
L 3431 531 
L 3431 0 
L 469 0 
L 469 531 
Q 828 903 1448 1529 
Q 2069 2156 2228 2338 
Q 2531 2678 2651 2914 
Q 2772 3150 2772 3378 
Q 2772 3750 2511 3984 
Q 2250 4219 1831 4219 
Q 1534 4219 1204 4116 
Q 875 4013 500 3803 
L 500 4441 
Q 881 4594 1212 4672 
Q 1544 4750 1819 4750 
Q 2544 4750 2975 4387 
Q 3406 4025 3406 3419 
Q 3406 3131 3298 2873 
Q 3191 2616 2906 2266 
Q 2828 2175 2409 1742 
Q 1991 1309 1228 531 
z
" transform="scale(0.015625)"/>
       </defs>
       <use xlink:href="#DejaVuSans-32"/>
       <use xlink:href="#DejaVuSans-30" transform="translate(63.623047 0)"/>
       <use xlink:href="#DejaVuSans-30" transform="translate(127.246094 0)"/>
      </g>
     </g>
    </g>
    <g id="text_6">
     <!-- Observation Index -->
     <g style="fill: #262626" transform="translate(481.381875 490.316563) scale(0.1 -0.1)">
      <defs>
       <path id="DejaVuSans-4f" d="M 2522 4238 
Q 1834 4238 1429 3725 
Q 1025 3213 1025 2328 
Q 1025 1447 1429 934 
Q 1834 422 2522 422 
Q 3209 422 3611 934 
Q 4013 1447 4013 2328 
Q 4013 3213 3611 3725 
Q 3209 4238 2522 4238 
z
M 2522 4750 
Q 3503 4750 4090 4092 
Q 4678 3434 4678 2328 
Q 4678 1225 4090 567 
Q 3503 -91 2522 -91 
Q 1538 -91 948 565 
Q 359 1222 359 2328 
Q 359 3434 948 4092 
Q 1538 4750 2522 4750 
z
" transform="scale(0.015625)"/>
       <path id="DejaVuSans-62" d="M 3116 1747 
Q 3116 2381 2855 2742 
Q 2594 3103 2138 3103 
Q 1681 3103 1420 2742 
Q 1159 2381 1159 1747 
Q 1159 1113 1420 752 
Q 1681 391 2138 391 
Q 2594 391 2855 752 
Q 3116 1113 3116 1747 
z
M 1159 2969 
Q 1341 3281 1617 3432 
Q 1894 3584 2278 3584 
Q 2916 3584 3314 3078 
Q 3713 2572 3713 1747 
Q 3713 922 3314 415 
Q 2916 -91 2278 -91 
Q 1894 -91 1617 61 
Q 1341 213 1159 525 
L 1159 0 
L 581 0 
L 581 4863 
L 1159 4863 
L 1159 2969 
z
" transform="scale(0.015625)"/>
       <path id="DejaVuSans-73" d="M 2834 3397 
L 2834 2853 
Q 2591 2978 2328 3040 
Q 2066 3103 1784 3103 
Q 1356 3103 1142 2972 
Q 928 2841 928 2578 
Q 928 2378 1081 2264 
Q 1234 2150 1697 2047 
L 1894 2003 
Q 2506 1872 2764 1633 
Q 3022 1394 3022 966 
Q 3022 478 2636 193 
Q 2250 -91 1575 -91 
Q 1294 -91 989 -36 
Q 684 19 347 128 
L 347 722 
Q 666 556 975 473 
Q 1284 391 1588 391 
Q 1994 391 2212 530 
Q 2431 669 2431 922 
Q 2431 1156 2273 1281 
Q 2116 1406 1581 1522 
L 1381 1569 
Q 847 1681 609 1914 
Q 372 2147 372 2553 
Q 372 3047 722 3315 
Q 1072 3584 1716 3584 
Q 2034 3584 2315 3537 
Q 2597 3491 2834 3397 
z
" transform="scale(0.015625)"/>
       <path id="DejaVuSans-65" d="M 3597 1894 
L 3597 1613 
L 953 1613 
Q 991 1019 1311 708 
Q 1631 397 2203 397 
Q 2534 397 2845 478 
Q 3156 559 3463 722 
L 3463 178 
Q 3153 47 2828 -22 
Q 2503 -91 2169 -91 
Q 1331 -91 842 396 
Q 353 884 353 1716 
Q 353 2575 817 3079 
Q 1281 3584 2069 3584 
Q 2775 3584 3186 3129 
Q 3597 2675 3597 1894 
z
M 3022 2063 
Q 3016 2534 2758 2815 
Q 2500 3097 2075 3097 
Q 1594 3097 1305 2825 
Q 1016 2553 972 2059 
L 3022 2063 
z
" transform="scale(0.015625)"/>
       <path id="DejaVuSans-72" d="M 2631 2963 
Q 2534 3019 2420 3045 
Q 2306 3072 2169 3072 
Q 1681 3072 1420 2755 
Q 1159 2438 1159 1844 
L 1159 0 
L 581 0 
L 581 3500 
L 1159 3500 
L 1159 2956 
Q 1341 3275 1631 3429 
Q 1922 3584 2338 3584 
Q 2397 3584 2469 3576 
Q 2541 3569 2628 3553 
L 2631 2963 
z
" transform="scale(0.015625)"/>
       <path id="DejaVuSans-76" d="M 191 3500 
L 800 3500 
L 1894 563 
L 2988 3500 
L 3597 3500 
L 2284 0 
L 1503 0 
L 191 3500 
z
" transform="scale(0.015625)"/>
       <path id="DejaVuSans-61" d="M 2194 1759 
Q 1497 1759 1228 1600 
Q 959 1441 959 1056 
Q 959 750 1161 570 
Q 1363 391 1709 391 
Q 2188 391 2477 730 
Q 2766 1069 2766 1631 
L 2766 1759 
L 2194 1759 
z
M 3341 1997 
L 3341 0 
L 2766 0 
L 2766 531 
Q 2569 213 2275 61 
Q 1981 -91 1556 -91 
Q 1019 -91 701 211 
Q 384 513 384 1019 
Q 384 1609 779 1909 
Q 1175 2209 1959 2209 
L 2766 2209 
L 2766 2266 
Q 2766 2663 2505 2880 
Q 2244 3097 1772 3097 
Q 1472 3097 1187 3025 
Q 903 2953 641 2809 
L 641 3341 
Q 956 3463 1253 3523 
Q 1550 3584 1831 3584 
Q 2591 3584 2966 3190 
Q 3341 2797 3341 1997 
z
" transform="scale(0.015625)"/>
       <path id="DejaVuSans-74" d="M 1172 4494 
L 1172 3500 
L 2356 3500 
L 2356 3053 
L 1172 3053 
L 1172 1153 
Q 1172 725 1289 603 
Q 1406 481 1766 481 
L 2356 481 
L 2356 0 
L 1766 0 
Q 1100 0 847 248 
Q 594 497 594 1153 
L 594 3053 
L 172 3053 
L 172 3500 
L 594 3500 
L 594 4494 
L 1172 4494 
z
" transform="scale(0.015625)"/>
       <path id="DejaVuSans-69" d="M 603 3500 
L 1178 3500 
L 1178 0 
L 603 0 
L 603 3500 
z
M 603 4863 
L 1178 4863 
L 1178 4134 
L 603 4134 
L 603 4863 
z
" transform="scale(0.015625)"/>
       <path id="DejaVuSans-6f" d="M 1959 3097 
Q 1497 3097 1228 2736 
Q 959 2375 959 1747 
Q 959 1119 1226 758 
Q 1494 397 1959 397 
Q 2419 397 2687 759 
Q 2956 1122 2956 1747 
Q 2956 2369 2687 2733 
Q 2419 3097 1959 3097 
z
M 1959 3584 
Q 2709 3584 3137 3096 
Q 3566 2609 3566 1747 
Q 3566 888 3137 398 
Q 2709 -91 1959 -91 
Q 1206 -91 779 398 
Q 353 888 353 1747 
Q 353 2609 779 3096 
Q 1206 3584 1959 3584 
z
" transform="scale(0.015625)"/>
       <path id="DejaVuSans-6e" d="M 3513 2113 
L 3513 0 
L 2938 0 
L 2938 2094 
Q 2938 2591 2744 2837 
Q 2550 3084 2163 3084 
Q 1697 3084 1428 2787 
Q 1159 2491 1159 1978 
L 1159 0 
L 581 0 
L 581 3500 
L 1159 3500 
L 1159 2956 
Q 1366 3272 1645 3428 
Q 1925 3584 2291 3584 
Q 2894 3584 3203 3211 
Q 3513 2838 3513 2113 
z
" transform="scale(0.015625)"/>
       <path id="DejaVuSans-20" transform="scale(0.015625)"/>
       <path id="DejaVuSans-49" d="M 628 4666 
L 1259 4666 
L 1259 0 
L 628 0 
L 628 4666 
z
" transform="scale(0.015625)"/>
       <path id="DejaVuSans-64" d="M 2906 2969 
L 2906 4863 
L 3481 4863 
L 3481 0 
L 2906 0 
L 2906 525 
Q 2725 213 2448 61 
Q 2172 -91 1784 -91 
Q 1150 -91 751 415 
Q 353 922 353 1747 
Q 353 2572 751 3078 
Q 1150 3584 1784 3584 
Q 2172 3584 2448 3432 
Q 2725 3281 2906 2969 
z
M 947 1747 
Q 947 1113 1208 752 
Q 1469 391 1925 391 
Q 2381 391 2643 752 
Q 2906 1113 2906 1747 
Q 2906 2381 2643 2742 
Q 2381 3103 1925 3103 
Q 1469 3103 1208 2742 
Q 947 2381 947 1747 
z
" transform="scale(0.015625)"/>
       <path id="DejaVuSans-78" d="M 3513 3500 
L 2247 1797 
L 3578 0 
L 2900 0 
L 1881 1375 
L 863 0 
L 184 0 
L 1544 1831 
L 300 3500 
L 978 3500 
L 1906 2253 
L 2834 3500 
L 3513 3500 
z
" transform="scale(0.015625)"/>
      </defs>
      <use xlink:href="#DejaVuSans-4f"/>
      <use xlink:href="#DejaVuSans-62" transform="translate(78.710938 0)"/>
      <use xlink:href="#DejaVuSans-73" transform="translate(142.1875 0)"/>
      <use xlink:href="#DejaVuSans-65" transform="translate(194.287109 0)"/>
      <use xlink:href="#DejaVuSans-72" transform="translate(255.810547 0)"/>
      <use xlink:href="#DejaVuSans-76" transform="translate(296.923828 0)"/>
      <use xlink:href="#DejaVuSans-61" transform="translate(356.103516 0)"/>
      <use xlink:href="#DejaVuSans-74" transform="translate(417.382812 0)"/>
      <use xlink:href="#DejaVuSans-69" transform="translate(456.591797 0)"/>
      <use xlink:href="#DejaVuSans-6f" transform="translate(484.375 0)"/>
      <use xlink:href="#DejaVuSans-6e" transform="translate(545.556641 0)"/>
      <use xlink:href="#DejaVuSans-20" transform="translate(608.935547 0)"/>
      <use xlink:href="#DejaVuSans-49" transform="translate(640.722656 0)"/>
      <use xlink:href="#DejaVuSans-6e" transform="translate(670.214844 0)"/>
      <use xlink:href="#DejaVuSans-64" transform="translate(733.59375 0)"/>
      <use xlink:href="#DejaVuSans-65" transform="translate(797.070312 0)"/>
      <use xlink:href="#DejaVuSans-78" transform="translate(856.84375 0)"/>
     </g>
    </g>
   </g>
   <g id="matplotlib.axis_2">
    <g id="ytick_1">
     <g id="line2d_6">
      <path d="M 57.17 436.419257 
L 997.2 436.419257 
" clip-path="url(#p28dd79f9d8)" style="fill: none; stroke-dasharray: 2.96,1.28; stroke-dashoffset: 0; stroke: #cccccc; stroke-opacity: 0.7; stroke-width: 0.8"/>
     </g>
     <g id="text_7">
      <!-- 750 -->
      <g style="fill: #262626" transform="translate(31.0825 440.218476) scale(0.1 -0.1)">
       <defs>
        <path id="DejaVuSans-37" d="M 525 4666 
L 3525 4666 
L 3525 4397 
L 1831 0 
L 1172 0 
L 2766 4134 
L 525 4134 
L 525 4666 
z
" transform="scale(0.015625)"/>
       </defs>
       <use xlink:href="#DejaVuSans-37"/>
       <use xlink:href="#DejaVuSans-35" transform="translate(63.623047 0)"/>
       <use xlink:href="#DejaVuSans-30" transform="translate(127.246094 0)"/>
      </g>
     </g>
    </g>
    <g id="ytick_2">
     <g id="line2d_7">
      <path d="M 57.17 380.908964 
L 997.2 380.908964 
" clip-path="url(#p28dd79f9d8)" style="fill: none; stroke-dasharray: 2.96,1.28; stroke-dashoffset: 0; stroke: #cccccc; stroke-opacity: 0.7; stroke-width: 0.8"/>
     </g>
     <g id="text_8">
      <!-- 1000 -->
      <g style="fill: #262626" transform="translate(24.72 384.708183) scale(0.1 -0.1)">
       <use xlink:href="#DejaVuSans-31"/>
       <use xlink:href="#DejaVuSans-30" transform="translate(63.623047 0)"/>
       <use xlink:href="#DejaVuSans-30" transform="translate(127.246094 0)"/>
       <use xlink:href="#DejaVuSans-30" transform="translate(190.869141 0)"/>
      </g>
     </g>
    </g>
    <g id="ytick_3">
     <g id="line2d_8">
      <path d="M 57.17 325.398671 
L 997.2 325.398671 
" clip-path="url(#p28dd79f9d8)" style="fill: none; stroke-dasharray: 2.96,1.28; stroke-dashoffset: 0; stroke: #cccccc; stroke-opacity: 0.7; stroke-width: 0.8"/>
     </g>
     <g id="text_9">
      <!-- 1250 -->
      <g style="fill: #262626" transform="translate(24.72 329.197889) scale(0.1 -0.1)">
       <use xlink:href="#DejaVuSans-31"/>
       <use xlink:href="#DejaVuSans-32" transform="translate(63.623047 0)"/>
       <use xlink:href="#DejaVuSans-35" transform="translate(127.246094 0)"/>
       <use xlink:href="#DejaVuSans-30" transform="translate(190.869141 0)"/>
      </g>
     </g>
    </g>
    <g id="ytick_4">
     <g id="line2d_9">
      <path d="M 57.17 269.888377 
L 997.2 269.888377 
" clip-path="url(#p28dd79f9d8)" style="fill: none; stroke-dasharray: 2.96,1.28; stroke-dashoffset: 0; stroke: #cccccc; stroke-opacity: 0.7; stroke-width: 0.8"/>
     </g>
     <g id="text_10">
      <!-- 1500 -->
      <g style="fill: #262626" transform="translate(24.72 273.687596) scale(0.1 -0.1)">
       <use xlink:href="#DejaVuSans-31"/>
       <use xlink:href="#DejaVuSans-35" transform="translate(63.623047 0)"/>
       <use xlink:href="#DejaVuSans-30" transform="translate(127.246094 0)"/>
       <use xlink:href="#DejaVuSans-30" transform="translate(190.869141 0)"/>
      </g>
     </g>
    </g>
    <g id="ytick_5">
     <g id="line2d_10">
      <path d="M 57.17 214.378084 
L 997.2 214.378084 
" clip-path="url(#p28dd79f9d8)" style="fill: none; stroke-dasharray: 2.96,1.28; stroke-dashoffset: 0; stroke: #cccccc; stroke-opacity: 0.7; stroke-width: 0.8"/>
     </g>
     <g id="text_11">
      <!-- 1750 -->
      <g style="fill: #262626" transform="translate(24.72 218.177302) scale(0.1 -0.1)">
       <use xlink:href="#DejaVuSans-31"/>
       <use xlink:href="#DejaVuSans-37" transform="translate(63.623047 0)"/>
       <use xlink:href="#DejaVuSans-35" transform="translate(127.246094 0)"/>
       <use xlink:href="#DejaVuSans-30" transform="translate(190.869141 0)"/>
      </g>
     </g>
    </g>
    <g id="ytick_6">
     <g id="line2d_11">
      <path d="M 57.17 158.86779 
L 997.2 158.86779 
" clip-path="url(#p28dd79f9d8)" style="fill: none; stroke-dasharray: 2.96,1.28; stroke-dashoffset: 0; stroke: #cccccc; stroke-opacity: 0.7; stroke-width: 0.8"/>
     </g>
     <g id="text_12">
      <!-- 2000 -->
      <g style="fill: #262626" transform="translate(24.72 162.667009) scale(0.1 -0.1)">
       <use xlink:href="#DejaVuSans-32"/>
       <use xlink:href="#DejaVuSans-30" transform="translate(63.623047 0)"/>
       <use xlink:href="#DejaVuSans-30" transform="translate(127.246094 0)"/>
       <use xlink:href="#DejaVuSans-30" transform="translate(190.869141 0)"/>
      </g>
     </g>
    </g>
    <g id="ytick_7">
     <g id="line2d_12">
      <path d="M 57.17 103.357497 
L 997.2 103.357497 
" clip-path="url(#p28dd79f9d8)" style="fill: none; stroke-dasharray: 2.96,1.28; stroke-dashoffset: 0; stroke: #cccccc; stroke-opacity: 0.7; stroke-width: 0.8"/>
     </g>
     <g id="text_13">
      <!-- 2250 -->
      <g style="fill: #262626" transform="translate(24.72 107.156716) scale(0.1 -0.1)">
       <use xlink:href="#DejaVuSans-32"/>
       <use xlink:href="#DejaVuSans-32" transform="translate(63.623047 0)"/>
       <use xlink:href="#DejaVuSans-35" transform="translate(127.246094 0)"/>
       <use xlink:href="#DejaVuSans-30" transform="translate(190.869141 0)"/>
      </g>
     </g>
    </g>
    <g id="ytick_8">
     <g id="line2d_13">
      <path d="M 57.17 47.847203 
L 997.2 47.847203 
" clip-path="url(#p28dd79f9d8)" style="fill: none; stroke-dasharray: 2.96,1.28; stroke-dashoffset: 0; stroke: #cccccc; stroke-opacity: 0.7; stroke-width: 0.8"/>
     </g>
     <g id="text_14">
      <!-- 2500 -->
      <g style="fill: #262626" transform="translate(24.72 51.646422) scale(0.1 -0.1)">
       <use xlink:href="#DejaVuSans-32"/>
       <use xlink:href="#DejaVuSans-35" transform="translate(63.623047 0)"/>
       <use xlink:href="#DejaVuSans-30" transform="translate(127.246094 0)"/>
       <use xlink:href="#DejaVuSans-30" transform="translate(190.869141 0)"/>
      </g>
     </g>
    </g>
    <g id="text_15">
     <!-- Mean Trip Duration (seconds) -->
     <g style="fill: #262626" transform="translate(18.640313 309.800469) rotate(-90) scale(0.1 -0.1)">
      <defs>
       <path id="DejaVuSans-4d" d="M 628 4666 
L 1569 4666 
L 2759 1491 
L 3956 4666 
L 4897 4666 
L 4897 0 
L 4281 0 
L 4281 4097 
L 3078 897 
L 2444 897 
L 1241 4097 
L 1241 0 
L 628 0 
L 628 4666 
z
" transform="scale(0.015625)"/>
       <path id="DejaVuSans-54" d="M -19 4666 
L 3928 4666 
L 3928 4134 
L 2272 4134 
L 2272 0 
L 1638 0 
L 1638 4134 
L -19 4134 
L -19 4666 
z
" transform="scale(0.015625)"/>
       <path id="DejaVuSans-70" d="M 1159 525 
L 1159 -1331 
L 581 -1331 
L 581 3500 
L 1159 3500 
L 1159 2969 
Q 1341 3281 1617 3432 
Q 1894 3584 2278 3584 
Q 2916 3584 3314 3078 
Q 3713 2572 3713 1747 
Q 3713 922 3314 415 
Q 2916 -91 2278 -91 
Q 1894 -91 1617 61 
Q 1341 213 1159 525 
z
M 3116 1747 
Q 3116 2381 2855 2742 
Q 2594 3103 2138 3103 
Q 1681 3103 1420 2742 
Q 1159 2381 1159 1747 
Q 1159 1113 1420 752 
Q 1681 391 2138 391 
Q 2594 391 2855 752 
Q 3116 1113 3116 1747 
z
" transform="scale(0.015625)"/>
       <path id="DejaVuSans-44" d="M 1259 4147 
L 1259 519 
L 2022 519 
Q 2988 519 3436 956 
Q 3884 1394 3884 2338 
Q 3884 3275 3436 3711 
Q 2988 4147 2022 4147 
L 1259 4147 
z
M 628 4666 
L 1925 4666 
Q 3281 4666 3915 4102 
Q 4550 3538 4550 2338 
Q 4550 1131 3912 565 
Q 3275 0 1925 0 
L 628 0 
L 628 4666 
z
" transform="scale(0.015625)"/>
       <path id="DejaVuSans-75" d="M 544 1381 
L 544 3500 
L 1119 3500 
L 1119 1403 
Q 1119 906 1312 657 
Q 1506 409 1894 409 
Q 2359 409 2629 706 
Q 2900 1003 2900 1516 
L 2900 3500 
L 3475 3500 
L 3475 0 
L 2900 0 
L 2900 538 
Q 2691 219 2414 64 
Q 2138 -91 1772 -91 
Q 1169 -91 856 284 
Q 544 659 544 1381 
z
M 1991 3584 
L 1991 3584 
z
" transform="scale(0.015625)"/>
       <path id="DejaVuSans-28" d="M 1984 4856 
Q 1566 4138 1362 3434 
Q 1159 2731 1159 2009 
Q 1159 1288 1364 580 
Q 1569 -128 1984 -844 
L 1484 -844 
Q 1016 -109 783 600 
Q 550 1309 550 2009 
Q 550 2706 781 3412 
Q 1013 4119 1484 4856 
L 1984 4856 
z
" transform="scale(0.015625)"/>
       <path id="DejaVuSans-63" d="M 3122 3366 
L 3122 2828 
Q 2878 2963 2633 3030 
Q 2388 3097 2138 3097 
Q 1578 3097 1268 2742 
Q 959 2388 959 1747 
Q 959 1106 1268 751 
Q 1578 397 2138 397 
Q 2388 397 2633 464 
Q 2878 531 3122 666 
L 3122 134 
Q 2881 22 2623 -34 
Q 2366 -91 2075 -91 
Q 1284 -91 818 406 
Q 353 903 353 1747 
Q 353 2603 823 3093 
Q 1294 3584 2113 3584 
Q 2378 3584 2631 3529 
Q 2884 3475 3122 3366 
z
" transform="scale(0.015625)"/>
       <path id="DejaVuSans-29" d="M 513 4856 
L 1013 4856 
Q 1481 4119 1714 3412 
Q 1947 2706 1947 2009 
Q 1947 1309 1714 600 
Q 1481 -109 1013 -844 
L 513 -844 
Q 928 -128 1133 580 
Q 1338 1288 1338 2009 
Q 1338 2731 1133 3434 
Q 928 4138 513 4856 
z
" transform="scale(0.015625)"/>
      </defs>
      <use xlink:href="#DejaVuSans-4d"/>
      <use xlink:href="#DejaVuSans-65" transform="translate(86.279297 0)"/>
      <use xlink:href="#DejaVuSans-61" transform="translate(147.802734 0)"/>
      <use xlink:href="#DejaVuSans-6e" transform="translate(209.082031 0)"/>
      <use xlink:href="#DejaVuSans-20" transform="translate(272.460938 0)"/>
      <use xlink:href="#DejaVuSans-54" transform="translate(304.248047 0)"/>
      <use xlink:href="#DejaVuSans-72" transform="translate(350.582031 0)"/>
      <use xlink:href="#DejaVuSans-69" transform="translate(391.695312 0)"/>
      <use xlink:href="#DejaVuSans-70" transform="translate(419.478516 0)"/>
      <use xlink:href="#DejaVuSans-20" transform="translate(482.955078 0)"/>
      <use xlink:href="#DejaVuSans-44" transform="translate(514.742188 0)"/>
      <use xlink:href="#DejaVuSans-75" transform="translate(591.744141 0)"/>
      <use xlink:href="#DejaVuSans-72" transform="translate(655.123047 0)"/>
      <use xlink:href="#DejaVuSans-61" transform="translate(696.236328 0)"/>
      <use xlink:href="#DejaVuSans-74" transform="translate(757.515625 0)"/>
      <use xlink:href="#DejaVuSans-69" transform="translate(796.724609 0)"/>
      <use xlink:href="#DejaVuSans-6f" transform="translate(824.507812 0)"/>
      <use xlink:href="#DejaVuSans-6e" transform="translate(885.689453 0)"/>
      <use xlink:href="#DejaVuSans-20" transform="translate(949.068359 0)"/>
      <use xlink:href="#DejaVuSans-28" transform="translate(980.855469 0)"/>
      <use xlink:href="#DejaVuSans-73" transform="translate(1019.869141 0)"/>
      <use xlink:href="#DejaVuSans-65" transform="translate(1071.96875 0)"/>
      <use xlink:href="#DejaVuSans-63" transform="translate(1133.492188 0)"/>
      <use xlink:href="#DejaVuSans-6f" transform="translate(1188.472656 0)"/>
      <use xlink:href="#DejaVuSans-6e" transform="translate(1249.654297 0)"/>
      <use xlink:href="#DejaVuSans-64" transform="translate(1313.033203 0)"/>
      <use xlink:href="#DejaVuSans-73" transform="translate(1376.509766 0)"/>
      <use xlink:href="#DejaVuSans-29" transform="translate(1428.609375 0)"/>
     </g>
    </g>
   </g>
   <g id="FillBetweenPolyCollection_1"/>
   <g id="FillBetweenPolyCollection_2"/>
   <g id="FillBetweenPolyCollection_3"/>
   <g id="FillBetweenPolyCollection_4"/>
   <g id="FillBetweenPolyCollection_5"/>
   <g id="FillBetweenPolyCollection_6"/>
   <g id="line2d_14">
    <path d="M 99.898636 406.930635 
L 103.663274 411.419198 
L 107.427911 396.841306 
L 111.192549 406.609786 
L 114.957187 389.242613 
L 118.721824 381.528459 
L 122.486462 387.990967 
L 126.251099 369.327296 
L 130.015737 396.692317 
L 133.780374 392.231732 
L 137.545012 393.524899 
L 141.30965 426.486468 
L 145.074287 419.823678 
L 148.838925 416.511934 
L 152.603562 406.40684 
L 156.3682 397.97083 
L 160.132837 421.314018 
L 163.897475 429.579945 
L 167.662113 414.76669 
L 171.42675 379.072905 
L 175.191388 398.082516 
L 178.956025 363.38503 
L 182.720663 399.483374 
L 186.4853 402.921904 
L 190.249938 364.39887 
L 194.014575 363.75051 
L 197.779213 413.864537 
L 201.543851 354.658146 
L 205.308488 412.690383 
L 209.073126 396.029302 
L 212.837763 383.78906 
L 216.602401 392.57967 
L 220.367038 388.34912 
L 224.131676 407.667146 
L 227.896314 354.835557 
L 231.660951 377.406042 
L 235.425589 430.753877 
L 239.190226 341.106529 
L 242.954864 422.784375 
L 246.719501 390.297531 
L 250.484139 362.049897 
L 254.248777 387.571531 
L 258.013414 396.188727 
L 261.778052 397.727473 
L 265.542689 362.171353 
L 269.307327 395.50262 
L 273.071964 396.343712 
L 276.836602 381.369921 
L 280.601239 377.589448 
L 284.365877 367.151071 
L 288.130515 372.961666 
L 291.895152 425.35761 
L 295.65979 428.57321 
L 299.424427 374.337877 
L 303.189065 383.177115 
L 306.953702 404.75663 
L 310.71834 336.717885 
L 314.482978 385.287616 
L 318.247615 395.290127 
L 322.012253 306.834252 
L 325.77689 352.237231 
L 329.541528 407.762401 
L 333.306165 340.864948 
L 337.070803 414.833747 
L 340.835441 379.493674 
L 344.600078 347.872568 
L 348.364716 375.841762 
L 352.129353 362.134717 
L 355.893991 419.549235 
L 359.658628 433.658397 
L 363.423266 399.670999 
L 367.187903 307.678009 
L 370.952541 381.570425 
L 374.717179 369.759166 
L 378.481816 391.296716 
L 382.246454 353.486435 
L 386.011091 411.876824 
L 389.775729 364.448608 
L 393.540366 330.266479 
L 397.305004 360.15633 
L 401.069642 371.645406 
L 404.834279 409.356435 
L 408.598917 371.648959 
L 412.363554 422.825231 
L 416.128192 304.187077 
L 419.892829 367.981505 
L 423.657467 311.367445 
L 427.422105 352.352027 
L 431.186742 322.854301 
L 434.95138 426.468926 
L 438.716017 380.693362 
L 442.480655 363.341954 
L 446.245292 315.466547 
L 450.00993 419.042315 
L 453.774567 322.745945 
L 457.539205 430.271603 
L 461.303843 364.747475 
L 465.06848 350.50531 
L 468.833118 332.835718 
L 472.597755 395.883643 
L 476.362393 355.372675 
L 480.12703 354.014005 
L 483.891668 333.846893 
L 487.656306 422.275457 
L 495.185581 373.489236 
L 498.950218 371.69914 
L 502.714856 354.471188 
L 506.479493 407.40003 
L 510.244131 408.222027 
L 514.008769 354.582652 
L 517.773406 403.436373 
L 521.538044 397.363769 
L 525.302681 380.606322 
L 529.067319 361.956196 
L 532.831956 363.088161 
L 536.596594 305.456931 
L 540.361231 388.053583 
L 544.125869 363.603741 
L 547.890507 374.69492 
L 551.655144 416.955128 
L 555.419782 364.661989 
L 559.184419 369.898386 
L 562.949057 363.161213 
L 566.713694 361.857609 
L 570.478332 397.389082 
L 574.24297 402.68321 
L 578.007607 420.868604 
L 581.772245 366.481617 
L 585.536882 386.36607 
L 589.30152 356.729346 
L 593.066157 431.295879 
L 596.830795 433.54116 
L 600.595433 351.622621 
L 604.36007 426.583277 
L 608.124708 417.325493 
L 611.889345 399.859956 
L 615.653983 350.573255 
L 619.41862 392.764852 
L 623.183258 401.46487 
L 626.947895 426.189821 
L 630.712533 376.359118 
L 634.477171 354.124137 
L 638.241808 353.294813 
L 642.006446 414.193158 
L 645.771083 369.287329 
L 649.535721 313.284992 
L 653.300358 417.192712 
L 657.064996 426.443392 
L 660.829634 429.889471 
L 664.594271 316.006551 
L 668.358909 437.138449 
L 672.123546 363.238483 
L 675.888184 356.318348 
L 679.652821 362.34721 
L 683.417459 431.422665 
L 687.182097 366.903273 
L 690.946734 382.632448 
L 694.711372 366.836883 
L 698.476009 360.03998 
L 702.240647 325.976644 
L 706.005284 392.743759 
L 709.769922 431.720422 
L 713.534559 367.421295 
L 717.299197 353.696264 
L 721.063835 405.907469 
L 724.828472 432.782223 
L 728.59311 415.056676 
L 732.357747 425.489503 
L 736.122385 342.282015 
L 739.887022 440.096703 
L 743.65166 402.884379 
L 747.416298 387.511358 
L 751.180935 438.205357 
L 754.945573 325.526788 
L 758.71021 439.79606 
L 762.474848 399.571303 
L 766.239485 379.937534 
L 770.004123 373.605364 
L 773.768761 336.776726 
L 777.533398 431.271455 
L 781.298036 418.638644 
L 785.062673 424.175463 
L 788.827311 315.134151 
L 792.591948 408.048835 
L 796.356586 334.917354 
L 800.121223 395.968462 
L 803.885861 413.234828 
L 807.650499 364.719942 
L 811.415136 407.451766 
L 815.179774 374.036568 
L 818.944411 367.522102 
L 822.709049 402.639245 
L 826.473686 327.75919 
L 830.238324 341.190905 
L 834.002962 406.830273 
L 837.767599 312.255831 
L 841.532237 400.360659 
L 845.296874 387.010877 
L 849.061512 429.971404 
L 852.826149 391.730585 
L 856.590787 408.312619 
L 860.355425 369.181859 
L 864.120062 405.164742 
L 867.8847 379.587597 
L 871.649337 382.907112 
L 875.413975 420.279307 
L 879.178612 351.342183 
L 882.94325 390.168081 
L 886.707887 384.04796 
L 890.472525 419.388699 
L 894.237163 407.171994 
L 898.0018 408.439183 
L 901.766438 383.806157 
L 905.531075 422.748848 
L 909.295713 392.056763 
L 913.06035 391.471241 
L 916.824988 427.917301 
L 920.589626 343.431078 
L 924.354263 413.454871 
L 928.118901 410.344518 
L 935.648176 441.529091 
L 954.471364 441.529091 
L 954.471364 441.529091 
" clip-path="url(#p28dd79f9d8)" style="fill: none; stroke: #1f77b4; stroke-width: 1.5; stroke-linecap: round"/>
   </g>
   <g id="line2d_15">
    <path d="M 99.898636 406.056459 
L 103.663274 366.115027 
L 107.427911 411.189829 
L 111.192549 402.92146 
L 114.957187 361.404423 
L 118.721824 352.305842 
L 122.486462 379.157059 
L 126.251099 381.770706 
L 130.015737 376.624902 
L 133.780374 382.302494 
L 137.545012 355.249442 
L 141.30965 400.518974 
L 145.074287 408.562416 
L 148.838925 355.352247 
L 152.603562 391.793422 
L 156.3682 391.399743 
L 160.132837 393.052396 
L 163.897475 333.187431 
L 167.662113 402.998508 
L 171.42675 372.079497 
L 175.191388 379.832508 
L 178.956025 338.916315 
L 182.720663 390.600617 
L 186.4853 377.117167 
L 190.249938 337.468163 
L 194.014575 308.645886 
L 197.779213 386.365404 
L 201.543851 343.785234 
L 205.308488 417.062596 
L 209.073126 397.248308 
L 212.837763 361.455493 
L 216.602401 348.282234 
L 220.367038 346.278312 
L 224.131676 385.839166 
L 227.896314 333.381273 
L 231.660951 341.710259 
L 235.425589 384.682998 
L 239.190226 343.447731 
L 242.954864 359.420485 
L 246.719501 372.237146 
L 250.484139 372.388578 
L 254.248777 338.340562 
L 258.013414 386.302122 
L 261.778052 375.29221 
L 265.542689 319.88228 
L 269.307327 349.350696 
L 273.071964 394.157495 
L 280.601239 317.384983 
L 284.365877 354.529584 
L 288.130515 363.516923 
L 291.895152 395.798601 
L 295.65979 408.813988 
L 299.424427 386.893862 
L 303.189065 315.517394 
L 306.953702 377.352975 
L 310.71834 341.104309 
L 314.482978 315.262269 
L 318.247615 328.25412 
L 322.012253 284.209811 
L 325.77689 335.312587 
L 329.541528 347.556159 
L 333.306165 344.773983 
L 337.070803 379.355342 
L 340.835441 376.476356 
L 344.600078 359.715578 
L 348.364716 335.965166 
L 352.129353 391.984822 
L 355.893991 380.710237 
L 359.658628 330.844896 
L 363.423266 391.417285 
L 367.187903 319.380689 
L 370.952541 356.54594 
L 374.717179 347.680946 
L 378.481816 342.520932 
L 382.246454 318.816704 
L 386.011091 376.134857 
L 389.775729 355.827637 
L 393.540366 316.763933 
L 397.305004 327.740761 
L 401.069642 377.685148 
L 404.834279 362.112068 
L 408.598917 356.177796 
L 412.363554 399.642356 
L 416.128192 323.866586 
L 419.892829 357.61196 
L 423.657467 307.686224 
L 427.422105 339.600646 
L 431.186742 352.787449 
L 434.95138 394.219888 
L 438.716017 327.137919 
L 442.480655 330.939486 
L 446.245292 295.12158 
L 450.00993 317.609022 
L 453.774567 308.942311 
L 457.539205 326.620119 
L 461.303843 378.61106 
L 465.06848 332.414061 
L 468.833118 355.608482 
L 472.597755 389.403593 
L 476.362393 339.231614 
L 480.12703 350.62055 
L 483.891668 340.404657 
L 487.656306 375.834435 
L 491.420943 331.463947 
L 495.185581 342.255148 
L 498.950218 346.476373 
L 502.714856 375.716531 
L 506.479493 360.307984 
L 510.244131 403.271175 
L 514.008769 341.009719 
L 517.773406 397.769438 
L 521.538044 352.258103 
L 525.302681 355.622915 
L 529.067319 338.915427 
L 532.831956 315.032456 
L 536.596594 310.430653 
L 540.361231 357.165657 
L 544.125869 384.445636 
L 547.890507 338.69494 
L 551.655144 389.478865 
L 555.419782 328.252344 
L 559.184419 392.779507 
L 562.949057 340.714405 
L 566.713694 324.848675 
L 570.478332 370.639116 
L 574.24297 386.525051 
L 578.007607 398.201309 
L 585.536882 354.041094 
L 589.30152 348.823348 
L 593.066157 404.920941 
L 596.830795 413.412239 
L 600.595433 337.678214 
L 604.36007 398.163339 
L 608.124708 407.876975 
L 611.889345 389.576785 
L 615.653983 325.762596 
L 619.41862 378.252463 
L 623.183258 352.30673 
L 626.947895 342.291341 
L 630.712533 348.593092 
L 634.477171 310.002558 
L 638.241808 360.186083 
L 642.006446 364.501009 
L 645.771083 346.641128 
L 649.535721 294.983693 
L 653.300358 400.290272 
L 657.064996 373.048484 
L 660.829634 267.698163 
L 664.594271 310.671346 
L 668.358909 288.928852 
L 672.123546 327.423464 
L 675.888184 324.418581 
L 679.652821 320.707163 
L 683.417459 409.240752 
L 687.182097 322.329173 
L 690.946734 363.171649 
L 694.711372 332.70005 
L 698.476009 337.380234 
L 702.240647 287.779123 
L 706.005284 365.475548 
L 709.769922 394.624003 
L 713.534559 352.211697 
L 717.299197 350.642087 
L 721.063835 377.159577 
L 724.828472 397.168373 
L 728.59311 357.295995 
L 732.357747 387.826435 
L 736.122385 318.454555 
L 739.887022 307.179304 
L 743.65166 366.038867 
L 747.416298 339.592208 
L 751.180935 293.656553 
L 754.945573 321.682589 
L 758.71021 395.79416 
L 762.474848 327.397485 
L 766.239485 334.804557 
L 770.004123 362.847469 
L 773.768761 335.295046 
L 777.533398 398.042105 
L 781.298036 373.132638 
L 785.062673 376.77922 
L 788.827311 292.698223 
L 792.591948 337.16108 
L 796.356586 297.664396 
L 800.121223 376.467696 
L 803.885861 407.000134 
L 807.650499 292.204847 
L 811.415136 303.565584 
L 815.179774 312.774076 
L 818.944411 381.074385 
L 822.709049 382.660203 
L 826.473686 285.306694 
L 830.238324 284.722726 
L 834.002962 369.358826 
L 837.767599 303.929509 
L 841.532237 365.234855 
L 845.296874 342.512938 
L 849.061512 411.582398 
L 852.826149 368.90342 
L 856.590787 383.802605 
L 860.355425 330.831796 
L 864.120062 366.995642 
L 867.8847 350.241747 
L 871.649337 364.76102 
L 875.413975 382.110651 
L 879.178612 320.442267 
L 882.94325 334.830536 
L 886.707887 319.092701 
L 890.472525 402.647683 
L 894.237163 379.62601 
L 898.0018 386.743762 
L 901.766438 344.737347 
L 905.531075 394.617342 
L 909.295713 351.454758 
L 913.06035 333.974345 
L 916.824988 370.883805 
L 920.589626 295.296993 
L 924.354263 386.615422 
L 928.118901 365.818158 
L 931.883538 378.852863 
L 935.648176 422.726866 
L 954.471364 422.726866 
L 954.471364 422.726866 
" clip-path="url(#p28dd79f9d8)" style="fill: none; stroke: #ff7f0e; stroke-width: 1.5; stroke-linecap: round"/>
   </g>
   <g id="line2d_16">
    <path d="M 99.898636 93.818978 
L 103.663274 129.571165 
L 107.427911 132.146721 
L 111.192549 124.65647 
L 114.957187 133.908085 
L 118.721824 136.301006 
L 122.486462 130.437794 
L 126.251099 132.74697 
L 130.015737 135.286537 
L 133.780374 135.838949 
L 137.545012 135.909293 
L 145.074287 134.222485 
L 148.838925 135.828774 
L 152.603562 136.998497 
L 156.3682 133.5282 
L 160.132837 132.633955 
L 163.897475 131.609034 
L 171.42675 129.964491 
L 175.191388 131.387248 
L 178.956025 130.030074 
L 182.720663 130.719621 
L 186.4853 129.273455 
L 190.249938 128.635387 
L 194.014575 127.417947 
L 197.779213 126.3843 
L 201.543851 125.105782 
L 205.308488 122.345764 
L 209.073126 122.714715 
L 212.837763 122.049224 
L 216.602401 121.684746 
L 220.367038 121.972674 
L 224.131676 121.322325 
L 227.896314 119.7875 
L 231.660951 117.356989 
L 235.425589 118.142689 
L 239.190226 118.403336 
L 242.954864 119.109834 
L 246.719501 116.744127 
L 250.484139 116.240498 
L 254.248777 116.608544 
L 258.013414 115.483218 
L 261.778052 115.549265 
L 265.542689 116.522746 
L 269.307327 116.264579 
L 273.071964 113.802892 
L 276.836602 112.981691 
L 280.601239 109.817814 
L 284.365877 109.361747 
L 288.130515 108.194753 
L 291.895152 108.391464 
L 295.65979 105.127813 
L 299.424427 104.667244 
L 303.189065 105.984649 
L 310.71834 102.268607 
L 314.482978 102.750658 
L 318.247615 102.189782 
L 325.77689 97.934141 
L 329.541528 98.434844 
L 333.306165 97.951905 
L 337.070803 97.122359 
L 340.835441 93.083208 
L 344.600078 93.639199 
L 348.364716 94.011562 
L 355.893991 93.267502 
L 359.658628 89.950429 
L 363.423266 91.433886 
L 367.187903 90.302808 
L 370.952541 88.406799 
L 374.717179 85.163221 
L 378.481816 83.879379 
L 382.246454 82.411687 
L 389.775729 80.703746 
L 393.540366 78.170256 
L 397.305004 77.354921 
L 401.069642 76.860213 
L 404.834279 77.285866 
L 408.598917 73.775173 
L 412.363554 73.699679 
L 416.128192 75.419166 
L 419.892829 72.838826 
L 423.657467 66.244869 
L 427.422105 65.337165 
L 431.186742 68.367805 
L 434.95138 67.519829 
L 438.716017 65.917802 
L 442.480655 62.463952 
L 446.245292 63.087888 
L 450.00993 62.599397 
L 453.774567 63.136293 
L 457.539205 53.795687 
L 461.303843 52.752537 
L 465.06848 53.720193 
L 468.833118 53.888056 
L 472.597755 50.050296 
L 476.362393 50.915368 
L 480.12703 51.625012 
L 483.891668 52.577569 
L 487.656306 53.213717 
L 491.420943 53.019431 
L 495.185581 50.637373 
L 498.950218 52.017581 
L 502.714856 50.941347 
L 506.479493 47.516362 
L 510.244131 45.324594 
L 514.008769 47.263235 
L 517.773406 45.690073 
L 521.538044 46.930395 
L 525.302681 43.08109 
L 529.067319 41.504153 
L 532.831956 44.548338 
L 536.596594 43.442795 
L 540.361231 46.475433 
L 544.125869 45.641224 
L 547.890507 47.980872 
L 551.655144 48.857713 
L 555.419782 49.462331 
L 559.184419 44.060735 
L 562.949057 46.443681 
L 566.713694 47.856307 
L 570.478332 45.675863 
L 574.24297 48.530202 
L 578.007607 42.443831 
L 581.772245 42.590601 
L 589.30152 44.730634 
L 593.066157 38.306982 
L 596.830795 38.411786 
L 600.595433 38.165764 
L 604.36007 38.930696 
L 608.124708 34.546937 
L 611.889345 38.467962 
L 615.653983 39.724049 
L 619.41862 39.314161 
L 623.183258 41.826335 
L 626.947895 31.310909 
L 630.712533 32.017666 
L 634.477171 36.008856 
L 638.241808 34.309797 
L 642.006446 42.565954 
L 645.771083 41.68112 
L 649.535721 44.407786 
L 653.300358 43.143483 
L 657.064996 43.445681 
L 660.829634 42.820857 
L 664.594271 45.693848 
L 668.358909 54.004849 
L 672.123546 55.911517 
L 675.888184 55.842906 
L 679.652821 50.280775 
L 683.417459 54.117424 
L 687.182097 54.791097 
L 690.946734 54.573719 
L 694.711372 45.751357 
L 698.476009 46.012921 
L 702.240647 47.043636 
L 706.005284 44.255687 
L 709.769922 44.386248 
L 713.534559 42.902791 
L 717.299197 43.995899 
L 721.063835 49.78207 
L 724.828472 49.460999 
L 728.59311 51.560176 
L 732.357747 56.420213 
L 736.122385 57.138738 
L 739.887022 60.386313 
L 743.65166 62.564314 
L 747.416298 66.041923 
L 751.180935 68.938895 
L 754.945573 68.543661 
L 758.71021 68.977308 
L 762.474848 69.946073 
L 766.239485 71.254562 
L 770.004123 71.689763 
L 773.768761 71.579186 
L 777.533398 72.272399 
L 781.298036 76.057757 
L 785.062673 77.376459 
L 788.827311 79.996767 
L 792.591948 83.29097 
L 796.356586 84.419827 
L 800.121223 83.69242 
L 803.885861 84.16337 
L 807.650499 88.28401 
L 811.415136 89.817426 
L 815.179774 93.824603 
L 818.944411 95.393768 
L 822.709049 97.606853 
L 826.473686 103.527136 
L 830.238324 114.953153 
L 834.002962 115.89705 
L 837.767599 118.215382 
L 841.532237 105.916965 
L 845.296874 110.938871 
L 849.061512 113.21013 
L 852.826149 113.373774 
L 856.590787 113.757239 
L 860.355425 118.238696 
L 864.120062 121.070832 
L 867.8847 124.111907 
L 875.413975 127.191396 
L 879.178612 133.283762 
L 882.94325 134.524306 
L 886.707887 137.166596 
L 890.472525 139.303076 
L 894.237163 141.579442 
L 898.0018 154.410536 
L 901.766438 155.995466 
L 905.531075 160.504456 
L 909.295713 163.475811 
L 913.06035 173.701917 
L 916.824988 178.009072 
L 920.589626 181.961627 
L 924.354263 183.217936 
L 928.118901 185.063098 
L 931.883538 185.406595 
L 935.648176 188.606209 
L 954.471364 188.606209 
L 954.471364 188.606209 
" clip-path="url(#p28dd79f9d8)" style="fill: none; stroke: #2ca02c; stroke-width: 1.5; stroke-linecap: round"/>
   </g>
   <g id="line2d_17">
    <path d="M 99.898636 400.391523 
L 103.663274 421.265835 
L 107.427911 414.239343 
L 111.192549 421.013375 
L 114.957187 404.559013 
L 118.721824 349.73727 
L 122.486462 402.66367 
L 126.251099 402.43963 
L 130.015737 420.468708 
L 133.780374 398.81392 
L 137.545012 403.151272 
L 141.30965 404.166889 
L 145.074287 412.366203 
L 148.838925 391.896227 
L 152.603562 408.423196 
L 156.3682 390.06794 
L 160.132837 432.208469 
L 163.897475 412.870681 
L 167.662113 413.555234 
L 171.42675 355.406647 
L 175.191388 402.798893 
L 178.956025 358.272532 
L 182.720663 398.249047 
L 186.4853 407.360507 
L 190.249938 345.615741 
L 194.014575 349.324051 
L 197.779213 415.976815 
L 201.543851 407.832566 
L 205.308488 421.318681 
L 209.073126 413.915162 
L 212.837763 391.079116 
L 216.602401 411.656115 
L 220.367038 405.886376 
L 224.131676 400.899331 
L 227.896314 347.699154 
L 231.660951 404.327869 
L 235.425589 409.313359 
L 239.190226 319.199503 
L 242.954864 366.298655 
L 246.719501 400.596245 
L 250.484139 362.521512 
L 254.248777 357.111035 
L 258.013414 402.057498 
L 261.778052 415.597346 
L 265.542689 374.172013 
L 269.307327 382.360225 
L 273.071964 417.25444 
L 276.836602 392.36318 
L 280.601239 385.52631 
L 284.365877 393.635476 
L 288.130515 368.723122 
L 291.895152 425.659586 
L 295.65979 402.140763 
L 299.424427 405.105679 
L 303.189065 375.175417 
L 306.953702 393.24646 
L 310.71834 363.656143 
L 314.482978 381.694768 
L 318.247615 389.885645 
L 322.012253 346.785676 
L 325.77689 385.594477 
L 329.541528 392.39471 
L 333.306165 306.347982 
L 337.070803 380.839465 
L 340.835441 399.883048 
L 344.600078 379.91866 
L 348.364716 370.659543 
L 352.129353 400.577815 
L 355.893991 404.273246 
L 359.658628 382.414625 
L 363.423266 417.715841 
L 367.187903 323.590589 
L 370.952541 391.008951 
L 374.717179 383.328547 
L 378.481816 380.165126 
L 382.246454 330.492295 
L 386.011091 417.154299 
L 389.775729 395.239723 
L 393.540366 306.13016 
L 397.305004 378.555328 
L 401.069642 379.276961 
L 404.834279 406.026928 
L 408.598917 381.037304 
L 412.363554 389.251273 
L 416.128192 284.535545 
L 419.892829 367.513886 
L 423.657467 239.356161 
L 427.422105 379.437719 
L 431.186742 328.022531 
L 434.95138 413.487289 
L 438.716017 351.833338 
L 442.480655 387.583522 
L 446.245292 290.455385 
L 450.00993 365.004599 
L 453.774567 297.507857 
L 457.539205 354.339073 
L 461.303843 332.266182 
L 465.06848 365.720237 
L 468.833118 350.262841 
L 472.597755 378.972099 
L 476.362393 357.612626 
L 480.12703 363.51115 
L 483.891668 329.619451 
L 487.656306 408.876604 
L 491.420943 386.485306 
L 495.185581 359.397615 
L 498.950218 380.450449 
L 502.714856 393.707861 
L 506.479493 393.798454 
L 510.244131 424.061556 
L 514.008769 325.600062 
L 517.773406 389.819476 
L 521.538044 394.538517 
L 525.302681 332.582369 
L 529.067319 356.893435 
L 532.831956 385.860704 
L 536.596594 345.372384 
L 540.361231 384.245799 
L 544.125869 413.304549 
L 547.890507 366.728526 
L 551.655144 404.751079 
L 555.419782 367.139081 
L 559.184419 403.112859 
L 562.949057 366.731857 
L 566.713694 321.463657 
L 570.478332 400.045138 
L 574.24297 392.271255 
L 578.007607 408.396107 
L 581.772245 384.817555 
L 585.536882 384.530233 
L 589.30152 376.899344 
L 593.066157 407.965347 
L 596.830795 392.580558 
L 600.595433 356.375413 
L 604.36007 413.592092 
L 608.124708 433.417039 
L 611.889345 409.326459 
L 615.653983 344.669624 
L 619.41862 377.182003 
L 623.183258 325.82499 
L 626.947895 405.936779 
L 630.712533 352.411312 
L 634.477171 360.350616 
L 638.241808 386.556581 
L 642.006446 372.861082 
L 645.771083 388.866476 
L 649.535721 239.364377 
L 653.300358 407.712442 
L 657.064996 408.198934 
L 660.829634 406.309586 
L 664.594271 249.502999 
L 668.358909 363.724087 
L 672.123546 345.21096 
L 675.888184 283.960903 
L 679.652821 316.234365 
L 683.417459 406.008498 
L 687.182097 324.40548 
L 690.946734 360.103706 
L 694.711372 376.603808 
L 698.476009 373.099998 
L 702.240647 277.922937 
L 706.005284 362.511076 
L 709.769922 398.680251 
L 713.534559 364.098005 
L 717.299197 379.772335 
L 721.063835 368.950937 
L 724.828472 366.893059 
L 728.59311 398.636953 
L 732.357747 423.009747 
L 736.122385 281.21825 
L 739.887022 367.279189 
L 743.65166 398.895187 
L 747.416298 333.742978 
L 751.180935 409.664628 
L 754.945573 318.261601 
L 758.71021 397.322248 
L 762.474848 359.374079 
L 766.239485 350.269946 
L 770.004123 336.295563 
L 773.768761 337.578073 
L 777.533398 375.898605 
L 781.298036 401.244605 
L 785.062673 377.653396 
L 788.827311 308.097 
L 792.591948 389.309892 
L 796.356586 282.377083 
L 800.121223 350.83815 
L 803.885861 398.286572 
L 807.650499 307.069838 
L 811.415136 397.920204 
L 815.179774 274.887634 
L 818.944411 372.384137 
L 822.709049 371.22153 
L 826.473686 362.150704 
L 830.238324 308.648995 
L 834.002962 360.592863 
L 837.767599 270.519418 
L 841.532237 378.785806 
L 845.296874 316.362483 
L 849.061512 369.882399 
L 852.826149 387.02198 
L 856.590787 407.056755 
L 860.355425 359.730899 
L 864.120062 374.116947 
L 867.8847 344.795077 
L 871.649337 360.923482 
L 875.413975 346.796778 
L 879.178612 261.100876 
L 882.94325 371.084752 
L 886.707887 334.023416 
L 890.472525 400.124407 
L 894.237163 374.79395 
L 898.0018 373.977061 
L 901.766438 316.785249 
L 905.531075 342.095945 
L 909.295713 356.787521 
L 913.06035 381.553549 
L 916.824988 404.528816 
L 920.589626 334.958431 
L 924.354263 382.661535 
L 928.118901 401.127145 
L 931.883538 416.811467 
L 935.648176 413.412905 
L 954.471364 413.412905 
L 954.471364 413.412905 
" clip-path="url(#p28dd79f9d8)" style="fill: none; stroke: #d62728; stroke-width: 1.5; stroke-linecap: round"/>
   </g>
   <g id="line2d_18">
    <path d="M 99.898636 377.255276 
L 103.663274 366.852203 
L 107.427911 394.381756 
L 111.192549 399.344376 
L 114.957187 361.688636 
L 118.721824 365.791957 
L 122.486462 375.81756 
L 126.251099 390.375911 
L 130.015737 376.674861 
L 133.780374 365.191557 
L 137.545012 366.199624 
L 141.30965 401.901847 
L 145.074287 417.873934 
L 148.838925 348.877748 
L 152.603562 394.101762 
L 156.3682 403.189019 
L 160.132837 409.280941 
L 163.897475 345.453651 
L 167.662113 393.397448 
L 171.42675 373.871813 
L 175.191388 349.576956 
L 178.956025 352.203259 
L 182.720663 389.245056 
L 190.249938 359.164472 
L 194.014575 313.057178 
L 197.779213 386.880317 
L 201.543851 357.009562 
L 205.308488 386.691582 
L 209.073126 373.667091 
L 212.837763 346.92423 
L 216.602401 366.425884 
L 220.367038 359.791738 
L 224.131676 382.450596 
L 227.896314 330.200755 
L 231.660951 381.220044 
L 235.425589 318.116386 
L 239.190226 346.359801 
L 242.954864 383.029457 
L 246.719501 365.548378 
L 250.484139 378.011327 
L 254.248777 318.173451 
L 258.013414 386.436013 
L 261.778052 361.052266 
L 265.542689 357.622618 
L 269.307327 335.848594 
L 273.071964 371.262163 
L 276.836602 343.594279 
L 280.601239 311.614354 
L 284.365877 313.913369 
L 288.130515 358.377558 
L 291.895152 372.421662 
L 295.65979 333.189651 
L 299.424427 385.792093 
L 303.189065 340.287419 
L 306.953702 398.150017 
L 310.71834 337.372019 
L 314.482978 347.268172 
L 318.247615 361.396208 
L 322.012253 281.961644 
L 325.77689 340.671995 
L 329.541528 328.312073 
L 333.306165 324.774513 
L 337.070803 380.450227 
L 340.835441 302.677863 
L 344.600078 349.894253 
L 348.364716 338.882787 
L 352.129353 380.912517 
L 355.893991 383.678261 
L 359.658628 318.089963 
L 363.423266 361.310278 
L 367.187903 285.774757 
L 370.952541 369.820006 
L 374.717179 327.218076 
L 378.481816 326.750679 
L 382.246454 283.749297 
L 386.011091 365.892763 
L 389.775729 307.122906 
L 393.540366 272.484483 
L 397.305004 329.573711 
L 401.069642 357.367049 
L 404.834279 337.416649 
L 408.598917 332.355221 
L 412.363554 362.971368 
L 416.128192 278.524002 
L 419.892829 383.501517 
L 423.657467 310.38247 
L 427.422105 328.650686 
L 431.186742 333.440336 
L 434.95138 375.208945 
L 438.716017 269.617043 
L 442.480655 318.456997 
L 446.245292 266.240463 
L 450.00993 360.119027 
L 453.774567 300.317566 
L 457.539205 342.74053 
L 461.303843 362.083203 
L 465.06848 322.403113 
L 468.833118 331.14443 
L 472.597755 389.89386 
L 476.362393 312.950154 
L 480.12703 308.895904 
L 483.891668 300.81405 
L 487.656306 332.350558 
L 491.420943 313.784363 
L 495.185581 324.801602 
L 498.950218 321.894639 
L 502.714856 340.909135 
L 506.479493 373.30472 
L 510.244131 340.654009 
L 514.008769 293.897689 
L 517.773406 384.100362 
L 521.538044 324.733213 
L 525.302681 311.461146 
L 529.067319 306.981243 
L 532.831956 327.345972 
L 536.596594 305.349463 
L 540.361231 376.817189 
L 544.125869 341.795523 
L 547.890507 310.711535 
L 551.655144 359.693374 
L 555.419782 306.58823 
L 559.184419 350.177577 
L 562.949057 327.595546 
L 566.713694 285.603563 
L 570.478332 340.912243 
L 574.24297 339.833567 
L 578.007607 354.394361 
L 581.772245 305.382769 
L 585.536882 339.908617 
L 589.30152 326.997367 
L 593.066157 394.031597 
L 596.830795 316.498594 
L 600.595433 265.059204 
L 604.36007 401.962242 
L 608.124708 365.443796 
L 611.889345 346.918901 
L 615.653983 288.04313 
L 619.41862 332.518643 
L 623.183258 311.089449 
L 626.947895 317.005736 
L 630.712533 306.560031 
L 634.477171 280.338523 
L 638.241808 333.421462 
L 642.006446 325.997738 
L 645.771083 321.690805 
L 649.535721 319.626932 
L 653.300358 395.376501 
L 657.064996 372.576647 
L 660.829634 266.514017 
L 664.594271 312.980796 
L 668.358909 288.435032 
L 672.123546 283.603194 
L 675.888184 279.744119 
L 679.652821 288.223205 
L 683.417459 389.553027 
L 687.182097 257.509138 
L 690.946734 344.34389 
L 694.711372 310.524798 
L 698.476009 332.046805 
L 702.240647 236.020881 
L 706.005284 338.637209 
L 709.769922 397.813847 
L 713.534559 346.302959 
L 717.299197 328.066717 
L 721.063835 348.060637 
L 724.828472 397.34423 
L 728.59311 297.037351 
L 732.357747 312.898419 
L 736.122385 284.791337 
L 739.887022 286.307434 
L 743.65166 362.495978 
L 747.416298 260.442968 
L 751.180935 312.055328 
L 754.945573 248.814227 
L 758.71021 268.116044 
L 762.474848 321.122824 
L 766.239485 297.220757 
L 770.004123 339.323761 
L 773.768761 338.041029 
L 777.533398 290.77246 
L 781.298036 368.228859 
L 785.062673 378.768265 
L 788.827311 247.057438 
L 792.591948 317.566612 
L 796.356586 235.34854 
L 800.121223 325.412881 
L 803.885861 412.623771 
L 807.650499 245.47273 
L 811.415136 291.444134 
L 815.179774 243.462147 
L 818.944411 327.348858 
L 822.709049 330.550026 
L 826.473686 281.645013 
L 830.238324 255.955516 
L 834.002962 413.690235 
L 837.767599 194.758526 
L 841.532237 361.084906 
L 845.296874 328.449072 
L 849.061512 359.806837 
L 852.826149 341.555941 
L 856.590787 351.867755 
L 860.355425 256.750645 
L 864.120062 300.892208 
L 867.8847 305.169165 
L 871.649337 302.928548 
L 875.413975 356.689379 
L 879.178612 218.837559 
L 882.94325 314.745579 
L 886.707887 280.135577 
L 890.472525 375.711424 
L 894.237163 383.470653 
L 898.0018 340.867169 
L 901.766438 304.214166 
L 905.531075 336.485186 
L 909.295713 341.026372 
L 913.06035 310.557438 
L 916.824988 353.908535 
L 920.589626 284.576623 
L 924.354263 363.470072 
L 928.118901 350.684719 
L 931.883538 373.454154 
L 935.648176 404.344078 
L 954.471364 404.344078 
L 954.471364 404.344078 
" clip-path="url(#p28dd79f9d8)" style="fill: none; stroke: #9467bd; stroke-width: 1.5; stroke-linecap: round"/>
   </g>
   <g id="line2d_19">
    <path d="M 99.898636 406.510089 
L 103.663274 403.934856 
L 107.427911 398.32987 
L 111.192549 407.486404 
L 114.957187 411.519116 
L 118.721824 406.622664 
L 122.486462 401.013904 
L 126.251099 402.653456 
L 130.015737 399.817768 
L 133.780374 413.810359 
L 137.545012 398.617858 
L 141.30965 399.54488 
L 145.074287 397.769883 
L 148.838925 382.145733 
L 152.603562 396.73406 
L 156.3682 381.861965 
L 160.132837 388.564944 
L 163.897475 398.983338 
L 167.662113 395.449774 
L 171.42675 392.778619 
L 175.191388 399.540217 
L 178.956025 393.620821 
L 182.720663 404.787716 
L 186.4853 415.154818 
L 190.249938 407.466199 
L 194.014575 396.116342 
L 197.779213 410.150676 
L 201.543851 394.184584 
L 205.308488 401.286571 
L 209.073126 392.480418 
L 212.837763 417.196487 
L 216.602401 402.184727 
L 220.367038 416.530141 
L 224.131676 388.202572 
L 227.896314 387.788466 
L 231.660951 383.647398 
L 235.425589 410.534808 
L 239.190226 388.268741 
L 242.954864 408.632137 
L 246.719501 378.266896 
L 250.484139 388.32736 
L 254.248777 393.633255 
L 258.013414 343.586729 
L 261.778052 411.059491 
L 265.542689 400.767216 
L 269.307327 391.041147 
L 273.071964 397.624668 
L 276.836602 407.566783 
L 280.601239 393.608387 
L 284.365877 404.736202 
L 288.130515 350.310136 
L 291.895152 396.105018 
L 295.65979 395.324765 
L 299.424427 380.472653 
L 303.189065 400.250082 
L 306.953702 374.561917 
L 310.71834 400.013609 
L 314.482978 392.491298 
L 318.247615 410.767951 
L 322.012253 374.912076 
L 325.77689 396.107016 
L 329.541528 413.583877 
L 333.306165 384.849085 
L 337.070803 399.100353 
L 340.835441 366.045972 
L 344.600078 380.700245 
L 348.364716 365.168465 
L 352.129353 374.421809 
L 355.893991 391.786761 
L 359.658628 417.842405 
L 363.423266 391.972832 
L 367.187903 389.064314 
L 370.952541 367.35979 
L 374.717179 399.393004 
L 378.481816 378.288434 
L 382.246454 365.771085 
L 386.011091 401.836123 
L 389.775729 362.80839 
L 393.540366 399.018864 
L 397.305004 396.381015 
L 401.069642 354.804471 
L 404.834279 404.027003 
L 408.598917 387.070384 
L 412.363554 400.078667 
L 416.128192 382.053364 
L 419.892829 360.282449 
L 423.657467 387.648358 
L 427.422105 398.32654 
L 431.186742 360.965448 
L 434.95138 394.382866 
L 438.716017 404.104939 
L 442.480655 392.774622 
L 446.245292 377.831251 
L 450.00993 389.850784 
L 453.774567 360.388141 
L 457.539205 297.240297 
L 461.303843 371.737775 
L 465.06848 378.177413 
L 468.833118 353.174467 
L 472.597755 374.973137 
L 476.362393 371.302131 
L 480.12703 391.017388 
L 483.891668 379.429282 
L 487.656306 393.759375 
L 491.420943 383.111834 
L 495.185581 401.686467 
L 498.950218 374.781072 
L 502.714856 370.293397 
L 506.479493 362.172242 
L 510.244131 397.982376 
L 514.008769 399.031965 
L 517.773406 380.150693 
L 521.538044 395.41447 
L 525.302681 379.090447 
L 529.067319 397.642431 
L 532.831956 399.416318 
L 536.596594 352.699299 
L 540.361231 348.208072 
L 544.125869 386.878763 
L 547.890507 387.819551 
L 551.655144 390.225812 
L 555.419782 384.726074 
L 559.184419 365.980914 
L 562.949057 393.187175 
L 566.713694 396.063496 
L 570.478332 367.733929 
L 574.24297 391.548067 
L 578.007607 401.874092 
L 581.772245 401.085623 
L 585.536882 406.249857 
L 589.30152 397.682398 
L 593.066157 351.759621 
L 596.830795 399.394336 
L 600.595433 401.003912 
L 604.36007 404.514383 
L 608.124708 409.201228 
L 611.889345 383.739101 
L 615.653983 402.562863 
L 619.41862 340.301852 
L 623.183258 379.933093 
L 626.947895 398.608088 
L 630.712533 398.955138 
L 634.477171 395.808149 
L 638.241808 369.512479 
L 642.006446 387.966099 
L 645.771083 393.378796 
L 649.535721 389.205754 
L 653.300358 387.370806 
L 657.064996 401.267475 
L 660.829634 384.15454 
L 664.594271 399.633696 
L 668.358909 413.150009 
L 672.123546 400.377312 
L 675.888184 379.580492 
L 679.652821 387.585076 
L 683.417459 405.536439 
L 687.182097 385.226555 
L 690.946734 362.73778 
L 694.711372 366.862639 
L 698.476009 415.936847 
L 702.240647 385.821847 
L 706.005284 371.487091 
L 709.769922 394.739909 
L 713.534559 389.173114 
L 717.299197 349.452835 
L 721.063835 359.086535 
L 724.828472 398.290125 
L 728.59311 401.518382 
L 732.357747 382.224114 
L 736.122385 389.659385 
L 739.887022 403.635544 
L 743.65166 403.943071 
L 747.416298 405.039066 
L 751.180935 411.074812 
L 754.945573 385.542963 
L 758.71021 399.011759 
L 762.474848 410.103826 
L 766.239485 387.911032 
L 770.004123 418.704591 
L 773.768761 379.317595 
L 777.533398 410.116038 
L 781.298036 397.551838 
L 785.062673 399.52756 
L 788.827311 382.520317 
L 792.591948 416.899396 
L 796.356586 403.604903 
L 800.121223 381.505145 
L 803.885861 379.03427 
L 807.650499 387.375025 
L 811.415136 416.779716 
L 815.179774 394.743905 
L 818.944411 371.549706 
L 822.709049 360.032209 
L 826.473686 378.767821 
L 830.238324 388.268963 
L 834.002962 416.371604 
L 837.767599 367.595819 
L 841.532237 382.294057 
L 845.296874 396.428976 
L 849.061512 407.83945 
L 852.826149 371.685596 
L 856.590787 410.102937 
L 860.355425 379.686849 
L 864.120062 374.152917 
L 867.8847 403.018492 
L 871.649337 354.667694 
L 875.413975 392.754861 
L 879.178612 389.138476 
L 882.94325 392.596989 
L 886.707887 340.979744 
L 890.472525 402.478044 
L 894.237163 405.024634 
L 898.0018 384.666123 
L 901.766438 386.596327 
L 905.531075 414.489361 
L 909.295713 388.208346 
L 913.06035 400.810292 
L 916.824988 414.078585 
L 920.589626 361.761243 
L 924.354263 378.195177 
L 928.118901 412.900434 
L 931.883538 401.208856 
L 935.648176 395.526156 
L 939.412813 403.0085 
L 954.471364 403.0085 
L 954.471364 403.0085 
" clip-path="url(#p28dd79f9d8)" style="fill: none; stroke: #8c564b; stroke-width: 1.5; stroke-linecap: round"/>
   </g>
   <g id="line2d_20"/>
   <g id="line2d_21"/>
   <g id="line2d_22"/>
   <g id="line2d_23"/>
   <g id="line2d_24"/>
   <g id="line2d_25"/>
   <g id="patch_3">
    <path d="M 57.17 462.04 
L 57.17 10.8 
" style="fill: none; stroke: #cccccc; stroke-width: 0.8; stroke-linejoin: miter; stroke-linecap: square"/>
   </g>
   <g id="patch_4">
    <path d="M 997.2 462.04 
L 997.2 10.8 
" style="fill: none; stroke: #cccccc; stroke-width: 0.8; stroke-linejoin: miter; stroke-linecap: square"/>
   </g>
   <g id="patch_5">
    <path d="M 57.17 462.04 
L 997.2 462.04 
" style="fill: none; stroke: #cccccc; stroke-width: 0.8; stroke-linejoin: miter; stroke-linecap: square"/>
   </g>
   <g id="patch_6">
    <path d="M 57.17 10.8 
L 997.2 10.8 
" style="fill: none; stroke: #cccccc; stroke-width: 0.8; stroke-linejoin: miter; stroke-linecap: square"/>
   </g>
   <g id="legend_1">
    <g id="patch_7">
     <path d="M 892.4625 121.546875 
L 990.2 121.546875 
Q 992.2 121.546875 992.2 119.546875 
L 992.2 17.8 
Q 992.2 15.8 990.2 15.8 
L 892.4625 15.8 
Q 890.4625 15.8 890.4625 17.8 
L 890.4625 119.546875 
Q 890.4625 121.546875 892.4625 121.546875 
z
" style="fill: #ffffff; opacity: 0.8; stroke: #cccccc; stroke-linejoin: miter"/>
    </g>
    <g id="text_16">
     <!-- Borough -->
     <g style="fill: #262626" transform="translate(920.327344 27.398438) scale(0.1 -0.1)">
      <defs>
       <path id="DejaVuSans-42" d="M 1259 2228 
L 1259 519 
L 2272 519 
Q 2781 519 3026 730 
Q 3272 941 3272 1375 
Q 3272 1813 3026 2020 
Q 2781 2228 2272 2228 
L 1259 2228 
z
M 1259 4147 
L 1259 2741 
L 2194 2741 
Q 2656 2741 2882 2914 
Q 3109 3088 3109 3444 
Q 3109 3797 2882 3972 
Q 2656 4147 2194 4147 
L 1259 4147 
z
M 628 4666 
L 2241 4666 
Q 2963 4666 3353 4366 
Q 3744 4066 3744 3513 
Q 3744 3084 3544 2831 
Q 3344 2578 2956 2516 
Q 3422 2416 3680 2098 
Q 3938 1781 3938 1306 
Q 3938 681 3513 340 
Q 3088 0 2303 0 
L 628 0 
L 628 4666 
z
" transform="scale(0.015625)"/>
       <path id="DejaVuSans-67" d="M 2906 1791 
Q 2906 2416 2648 2759 
Q 2391 3103 1925 3103 
Q 1463 3103 1205 2759 
Q 947 2416 947 1791 
Q 947 1169 1205 825 
Q 1463 481 1925 481 
Q 2391 481 2648 825 
Q 2906 1169 2906 1791 
z
M 3481 434 
Q 3481 -459 3084 -895 
Q 2688 -1331 1869 -1331 
Q 1566 -1331 1297 -1286 
Q 1028 -1241 775 -1147 
L 775 -588 
Q 1028 -725 1275 -790 
Q 1522 -856 1778 -856 
Q 2344 -856 2625 -561 
Q 2906 -266 2906 331 
L 2906 616 
Q 2728 306 2450 153 
Q 2172 0 1784 0 
Q 1141 0 747 490 
Q 353 981 353 1791 
Q 353 2603 747 3093 
Q 1141 3584 1784 3584 
Q 2172 3584 2450 3431 
Q 2728 3278 2906 2969 
L 2906 3500 
L 3481 3500 
L 3481 434 
z
" transform="scale(0.015625)"/>
       <path id="DejaVuSans-68" d="M 3513 2113 
L 3513 0 
L 2938 0 
L 2938 2094 
Q 2938 2591 2744 2837 
Q 2550 3084 2163 3084 
Q 1697 3084 1428 2787 
Q 1159 2491 1159 1978 
L 1159 0 
L 581 0 
L 581 4863 
L 1159 4863 
L 1159 2956 
Q 1366 3272 1645 3428 
Q 1925 3584 2291 3584 
Q 2894 3584 3203 3211 
Q 3513 2838 3513 2113 
z
" transform="scale(0.015625)"/>
      </defs>
      <use xlink:href="#DejaVuSans-42"/>
      <use xlink:href="#DejaVuSans-6f" transform="translate(68.603516 0)"/>
      <use xlink:href="#DejaVuSans-72" transform="translate(129.785156 0)"/>
      <use xlink:href="#DejaVuSans-6f" transform="translate(168.648438 0)"/>
      <use xlink:href="#DejaVuSans-75" transform="translate(229.830078 0)"/>
      <use xlink:href="#DejaVuSans-67" transform="translate(293.208984 0)"/>
      <use xlink:href="#DejaVuSans-68" transform="translate(356.685547 0)"/>
     </g>
    </g>
    <g id="line2d_26">
     <path d="M 894.4625 38.576563 
L 904.4625 38.576563 
L 914.4625 38.576563 
" style="fill: none; stroke: #1f77b4; stroke-width: 1.5; stroke-linecap: round"/>
    </g>
    <g id="text_17">
     <!-- Bronx -->
     <g style="fill: #262626" transform="translate(922.4625 42.076563) scale(0.1 -0.1)">
      <use xlink:href="#DejaVuSans-42"/>
      <use xlink:href="#DejaVuSans-72" transform="translate(68.603516 0)"/>
      <use xlink:href="#DejaVuSans-6f" transform="translate(107.466797 0)"/>
      <use xlink:href="#DejaVuSans-6e" transform="translate(168.648438 0)"/>
      <use xlink:href="#DejaVuSans-78" transform="translate(232.027344 0)"/>
     </g>
    </g>
    <g id="line2d_27">
     <path d="M 894.4625 53.254688 
L 904.4625 53.254688 
L 914.4625 53.254688 
" style="fill: none; stroke: #ff7f0e; stroke-width: 1.5; stroke-linecap: round"/>
    </g>
    <g id="text_18">
     <!-- Brooklyn -->
     <g style="fill: #262626" transform="translate(922.4625 56.754688) scale(0.1 -0.1)">
      <defs>
       <path id="DejaVuSans-6b" d="M 581 4863 
L 1159 4863 
L 1159 1991 
L 2875 3500 
L 3609 3500 
L 1753 1863 
L 3688 0 
L 2938 0 
L 1159 1709 
L 1159 0 
L 581 0 
L 581 4863 
z
" transform="scale(0.015625)"/>
       <path id="DejaVuSans-6c" d="M 603 4863 
L 1178 4863 
L 1178 0 
L 603 0 
L 603 4863 
z
" transform="scale(0.015625)"/>
       <path id="DejaVuSans-79" d="M 2059 -325 
Q 1816 -950 1584 -1140 
Q 1353 -1331 966 -1331 
L 506 -1331 
L 506 -850 
L 844 -850 
Q 1081 -850 1212 -737 
Q 1344 -625 1503 -206 
L 1606 56 
L 191 3500 
L 800 3500 
L 1894 763 
L 2988 3500 
L 3597 3500 
L 2059 -325 
z
" transform="scale(0.015625)"/>
      </defs>
      <use xlink:href="#DejaVuSans-42"/>
      <use xlink:href="#DejaVuSans-72" transform="translate(68.603516 0)"/>
      <use xlink:href="#DejaVuSans-6f" transform="translate(107.466797 0)"/>
      <use xlink:href="#DejaVuSans-6f" transform="translate(168.648438 0)"/>
      <use xlink:href="#DejaVuSans-6b" transform="translate(229.830078 0)"/>
      <use xlink:href="#DejaVuSans-6c" transform="translate(287.740234 0)"/>
      <use xlink:href="#DejaVuSans-79" transform="translate(315.523438 0)"/>
      <use xlink:href="#DejaVuSans-6e" transform="translate(374.703125 0)"/>
     </g>
    </g>
    <g id="line2d_28">
     <path d="M 894.4625 67.932813 
L 904.4625 67.932813 
L 914.4625 67.932813 
" style="fill: none; stroke: #2ca02c; stroke-width: 1.5; stroke-linecap: round"/>
    </g>
    <g id="text_19">
     <!-- EWR -->
     <g style="fill: #262626" transform="translate(922.4625 71.432813) scale(0.1 -0.1)">
      <defs>
       <path id="DejaVuSans-45" d="M 628 4666 
L 3578 4666 
L 3578 4134 
L 1259 4134 
L 1259 2753 
L 3481 2753 
L 3481 2222 
L 1259 2222 
L 1259 531 
L 3634 531 
L 3634 0 
L 628 0 
L 628 4666 
z
" transform="scale(0.015625)"/>
       <path id="DejaVuSans-57" d="M 213 4666 
L 850 4666 
L 1831 722 
L 2809 4666 
L 3519 4666 
L 4500 722 
L 5478 4666 
L 6119 4666 
L 4947 0 
L 4153 0 
L 3169 4050 
L 2175 0 
L 1381 0 
L 213 4666 
z
" transform="scale(0.015625)"/>
       <path id="DejaVuSans-52" d="M 2841 2188 
Q 3044 2119 3236 1894 
Q 3428 1669 3622 1275 
L 4263 0 
L 3584 0 
L 2988 1197 
Q 2756 1666 2539 1819 
Q 2322 1972 1947 1972 
L 1259 1972 
L 1259 0 
L 628 0 
L 628 4666 
L 2053 4666 
Q 2853 4666 3247 4331 
Q 3641 3997 3641 3322 
Q 3641 2881 3436 2590 
Q 3231 2300 2841 2188 
z
M 1259 4147 
L 1259 2491 
L 2053 2491 
Q 2509 2491 2742 2702 
Q 2975 2913 2975 3322 
Q 2975 3731 2742 3939 
Q 2509 4147 2053 4147 
L 1259 4147 
z
" transform="scale(0.015625)"/>
      </defs>
      <use xlink:href="#DejaVuSans-45"/>
      <use xlink:href="#DejaVuSans-57" transform="translate(63.183594 0)"/>
      <use xlink:href="#DejaVuSans-52" transform="translate(162.060547 0)"/>
     </g>
    </g>
    <g id="line2d_29">
     <path d="M 894.4625 82.610938 
L 904.4625 82.610938 
L 914.4625 82.610938 
" style="fill: none; stroke: #d62728; stroke-width: 1.5; stroke-linecap: round"/>
    </g>
    <g id="text_20">
     <!-- Manhattan -->
     <g style="fill: #262626" transform="translate(922.4625 86.110938) scale(0.1 -0.1)">
      <use xlink:href="#DejaVuSans-4d"/>
      <use xlink:href="#DejaVuSans-61" transform="translate(86.279297 0)"/>
      <use xlink:href="#DejaVuSans-6e" transform="translate(147.558594 0)"/>
      <use xlink:href="#DejaVuSans-68" transform="translate(210.9375 0)"/>
      <use xlink:href="#DejaVuSans-61" transform="translate(274.316406 0)"/>
      <use xlink:href="#DejaVuSans-74" transform="translate(335.595703 0)"/>
      <use xlink:href="#DejaVuSans-74" transform="translate(374.804688 0)"/>
      <use xlink:href="#DejaVuSans-61" transform="translate(414.013672 0)"/>
      <use xlink:href="#DejaVuSans-6e" transform="translate(475.292969 0)"/>
     </g>
    </g>
    <g id="line2d_30">
     <path d="M 894.4625 97.289062 
L 904.4625 97.289062 
L 914.4625 97.289062 
" style="fill: none; stroke: #9467bd; stroke-width: 1.5; stroke-linecap: round"/>
    </g>
    <g id="text_21">
     <!-- Queens -->
     <g style="fill: #262626" transform="translate(922.4625 100.789062) scale(0.1 -0.1)">
      <defs>
       <path id="DejaVuSans-51" d="M 2522 4238 
Q 1834 4238 1429 3725 
Q 1025 3213 1025 2328 
Q 1025 1447 1429 934 
Q 1834 422 2522 422 
Q 3209 422 3611 934 
Q 4013 1447 4013 2328 
Q 4013 3213 3611 3725 
Q 3209 4238 2522 4238 
z
M 3406 84 
L 4238 -825 
L 3475 -825 
L 2784 -78 
Q 2681 -84 2626 -87 
Q 2572 -91 2522 -91 
Q 1538 -91 948 567 
Q 359 1225 359 2328 
Q 359 3434 948 4092 
Q 1538 4750 2522 4750 
Q 3503 4750 4090 4092 
Q 4678 3434 4678 2328 
Q 4678 1516 4351 937 
Q 4025 359 3406 84 
z
" transform="scale(0.015625)"/>
      </defs>
      <use xlink:href="#DejaVuSans-51"/>
      <use xlink:href="#DejaVuSans-75" transform="translate(78.710938 0)"/>
      <use xlink:href="#DejaVuSans-65" transform="translate(142.089844 0)"/>
      <use xlink:href="#DejaVuSans-65" transform="translate(203.613281 0)"/>
      <use xlink:href="#DejaVuSans-6e" transform="translate(265.136719 0)"/>
      <use xlink:href="#DejaVuSans-73" transform="translate(328.515625 0)"/>
     </g>
    </g>
    <g id="line2d_31">
     <path d="M 894.4625 111.967188 
L 904.4625 111.967188 
L 914.4625 111.967188 
" style="fill: none; stroke: #8c564b; stroke-width: 1.5; stroke-linecap: round"/>
    </g>
    <g id="text_22">
     <!-- Staten Island -->
     <g style="fill: #262626" transform="translate(922.4625 115.467188) scale(0.1 -0.1)">
      <defs>
       <path id="DejaVuSans-53" d="M 3425 4513 
L 3425 3897 
Q 3066 4069 2747 4153 
Q 2428 4238 2131 4238 
Q 1616 4238 1336 4038 
Q 1056 3838 1056 3469 
Q 1056 3159 1242 3001 
Q 1428 2844 1947 2747 
L 2328 2669 
Q 3034 2534 3370 2195 
Q 3706 1856 3706 1288 
Q 3706 609 3251 259 
Q 2797 -91 1919 -91 
Q 1588 -91 1214 -16 
Q 841 59 441 206 
L 441 856 
Q 825 641 1194 531 
Q 1563 422 1919 422 
Q 2459 422 2753 634 
Q 3047 847 3047 1241 
Q 3047 1584 2836 1778 
Q 2625 1972 2144 2069 
L 1759 2144 
Q 1053 2284 737 2584 
Q 422 2884 422 3419 
Q 422 4038 858 4394 
Q 1294 4750 2059 4750 
Q 2388 4750 2728 4690 
Q 3069 4631 3425 4513 
z
" transform="scale(0.015625)"/>
      </defs>
      <use xlink:href="#DejaVuSans-53"/>
      <use xlink:href="#DejaVuSans-74" transform="translate(63.476562 0)"/>
      <use xlink:href="#DejaVuSans-61" transform="translate(102.685547 0)"/>
      <use xlink:href="#DejaVuSans-74" transform="translate(163.964844 0)"/>
      <use xlink:href="#DejaVuSans-65" transform="translate(203.173828 0)"/>
      <use xlink:href="#DejaVuSans-6e" transform="translate(264.697266 0)"/>
      <use xlink:href="#DejaVuSans-20" transform="translate(328.076172 0)"/>
      <use xlink:href="#DejaVuSans-49" transform="translate(359.863281 0)"/>
      <use xlink:href="#DejaVuSans-73" transform="translate(389.355469 0)"/>
      <use xlink:href="#DejaVuSans-6c" transform="translate(441.455078 0)"/>
      <use xlink:href="#DejaVuSans-61" transform="translate(469.238281 0)"/>
      <use xlink:href="#DejaVuSans-6e" transform="translate(530.517578 0)"/>
      <use xlink:href="#DejaVuSans-64" transform="translate(593.896484 0)"/>
     </g>
    </g>
   </g>
  </g>
 </g>
 <defs>
  <clipPath id="p28dd79f9d8">
   <rect x="57.17" y="10.8" width="940.03" height="451.24"/>
  </clipPath>
 </defs>
</svg>
