<?xml version="1.0" encoding="utf-8" standalone="no"?>
<!DOCTYPE svg PUBLIC "-//W3C//DTD SVG 1.1//EN"
  "http://www.w3.org/Graphics/SVG/1.1/DTD/svg11.dtd">
<svg xmlns:xlink="http://www.w3.org/1999/xlink" width="856.495625pt" height="495.835469pt" viewBox="0 0 856.495625 495.835469" xmlns="http://www.w3.org/2000/svg" version="1.1">
 <metadata>
  <rdf:RDF xmlns:dc="http://purl.org/dc/elements/1.1/" xmlns:cc="http://creativecommons.org/ns#" xmlns:rdf="http://www.w3.org/1999/02/22-rdf-syntax-ns#">
   <cc:Work>
    <dc:type rdf:resource="http://purl.org/dc/dcmitype/StillImage"/>
    <dc:date>2025-06-22T09:31:21.516492</dc:date>
    <dc:format>image/svg+xml</dc:format>
    <dc:creator>
     <cc:Agent>
      <dc:title>Matplotlib v3.10.1, https://matplotlib.org/</dc:title>
     </cc:Agent>
    </dc:creator>
   </cc:Work>
  </rdf:RDF>
 </metadata>
 <defs>
  <style type="text/css">*{stroke-linejoin: round; stroke-linecap: butt}</style>
 </defs>
 <g id="figure_1">
  <g id="patch_1">
   <path d="M 0 495.835469 
L 856.495625 495.835469 
L 856.495625 0 
L 0 0 
z
" style="fill: #ffffff"/>
  </g>
  <g id="axes_1">
   <g id="patch_2">
    <path d="M 46.965625 458.279219 
L 849.295625 458.279219 
L 849.295625 10.999219 
L 46.965625 10.999219 
z
" style="fill: #ffffff"/>
   </g>
   <g id="FillBetweenPolyCollection_1">
    <defs>
     <path id="m7386e8f7bd" d="M 83.43517 -484.83625 
L 83.43517 -37.55625 
L 88.227692 -37.55625 
L 92.711019 -37.55625 
L 97.503541 -37.55625 
L 102.141465 -37.55625 
L 106.933987 -37.55625 
L 111.571912 -37.55625 
L 116.364434 -37.55625 
L 121.156955 -37.55625 
L 125.79488 -37.55625 
L 130.587402 -37.55625 
L 135.225326 -37.55625 
L 140.017848 -37.55625 
L 144.81037 -37.55625 
L 149.139099 -37.55625 
L 153.931621 -37.55625 
L 158.569546 -37.55625 
L 163.362067 -37.55625 
L 167.999992 -37.55625 
L 172.792514 -37.55625 
L 177.585036 -37.55625 
L 182.22296 -37.55625 
L 187.015482 -37.55625 
L 191.653406 -37.55625 
L 196.445928 -37.55625 
L 201.23845 -37.55625 
L 205.567179 -37.55625 
L 210.359701 -37.55625 
L 214.997626 -37.55625 
L 219.790148 -37.55625 
L 224.428072 -37.55625 
L 229.220594 -37.55625 
L 234.013116 -37.55625 
L 238.65104 -37.55625 
L 243.443562 -37.55625 
L 248.081486 -37.55625 
L 252.874008 -37.55625 
L 257.66653 -37.55625 
L 261.995259 -37.55625 
L 266.787781 -37.55625 
L 271.425706 -37.55625 
L 276.218228 -37.55625 
L 280.856152 -37.55625 
L 285.648674 -37.55625 
L 290.441196 -37.55625 
L 295.07912 -37.55625 
L 299.871642 -37.55625 
L 304.509566 -37.55625 
L 309.302088 -37.55625 
L 314.09461 -37.55625 
L 318.577937 -37.55625 
L 323.370459 -37.55625 
L 328.008383 -37.55625 
L 332.800905 -37.55625 
L 337.43883 -37.55625 
L 342.231351 -37.55625 
L 347.023873 -37.55625 
L 351.661798 -37.55625 
L 356.45432 -37.55625 
L 361.092244 -37.55625 
L 365.884766 -37.55625 
L 370.677288 -37.55625 
L 375.006017 -37.55625 
L 379.798539 -37.55625 
L 384.436463 -37.55625 
L 389.228985 -37.55625 
L 393.86691 -37.55625 
L 398.659432 -37.55625 
L 403.451953 -37.55625 
L 408.089878 -37.55625 
L 412.8824 -37.55625 
L 417.520324 -37.55625 
L 422.312846 -37.55625 
L 427.105368 -37.55625 
L 431.434097 -37.55625 
L 436.226619 -37.55625 
L 440.864543 -37.55625 
L 445.657065 -37.55625 
L 450.29499 -37.55625 
L 455.087512 -37.55625 
L 459.880033 -37.55625 
L 464.517958 -37.55625 
L 469.31048 -37.55625 
L 473.948404 -37.55625 
L 478.740926 -37.55625 
L 483.533448 -37.55625 
L 487.862177 -37.55625 
L 492.654699 -37.55625 
L 497.292624 -37.55625 
L 502.085145 -37.55625 
L 506.72307 -37.55625 
L 511.515592 -37.55625 
L 516.308114 -37.55625 
L 520.946038 -37.55625 
L 525.73856 -37.55625 
L 530.376484 -37.55625 
L 535.169006 -37.55625 
L 539.961528 -37.55625 
L 544.444855 -37.55625 
L 549.237377 -37.55625 
L 553.875301 -37.55625 
L 558.667823 -37.55625 
L 563.305747 -37.55625 
L 568.098269 -37.55625 
L 572.890791 -37.55625 
L 577.528715 -37.55625 
L 582.321237 -37.55625 
L 586.959162 -37.55625 
L 591.751684 -37.55625 
L 596.544205 -37.55625 
L 600.872935 -37.55625 
L 605.665457 -37.55625 
L 610.303381 -37.55625 
L 615.095903 -37.55625 
L 619.733827 -37.55625 
L 624.526349 -37.55625 
L 629.318871 -37.55625 
L 633.956796 -37.55625 
L 638.749317 -37.55625 
L 643.387242 -37.55625 
L 648.179764 -37.55625 
L 652.972286 -37.55625 
L 657.301015 -37.55625 
L 662.093537 -37.55625 
L 666.731461 -37.55625 
L 671.523983 -37.55625 
L 676.161908 -37.55625 
L 680.954429 -37.55625 
L 685.746951 -37.55625 
L 690.384876 -37.55625 
L 695.177398 -37.55625 
L 699.815322 -37.55625 
L 704.607844 -37.55625 
L 709.400366 -37.55625 
L 713.729095 -37.55625 
L 718.521617 -37.55625 
L 723.159541 -37.55625 
L 727.952063 -37.55625 
L 732.589988 -37.55625 
L 737.382509 -37.55625 
L 742.175031 -37.55625 
L 746.812956 -37.55625 
L 751.605478 -37.55625 
L 756.243402 -37.55625 
L 761.035924 -37.55625 
L 765.828446 -37.55625 
L 770.311773 -37.55625 
L 775.104295 -37.55625 
L 779.742219 -37.55625 
L 784.534741 -37.55625 
L 789.172665 -37.55625 
L 793.965187 -37.55625 
L 798.757709 -37.55625 
L 803.395633 -37.55625 
L 808.188155 -37.55625 
L 812.82608 -37.55625 
L 812.82608 -96.493808 
L 812.82608 -96.493808 
L 808.188155 -99.631587 
L 803.395633 -102.481907 
L 798.757709 -100.81764 
L 793.965187 -91.659794 
L 789.172665 -93.500134 
L 784.534741 -98.399401 
L 779.742219 -99.863897 
L 775.104295 -98.935497 
L 770.311773 -95.619216 
L 765.828446 -92.289513 
L 761.035924 -90.8327 
L 756.243402 -94.821467 
L 751.605478 -96.92935 
L 746.812956 -96.522287 
L 742.175031 -87.808295 
L 737.382509 -91.160276 
L 732.589988 -90.948451 
L 727.952063 -97.243599 
L 723.159541 -98.832325 
L 718.521617 -97.531027 
L 713.729095 -95.939983 
L 709.400366 -94.776368 
L 704.607844 -95.93749 
L 699.815322 -97.57058 
L 695.177398 -100.079886 
L 690.384876 -103.069297 
L 685.746951 -99.552989 
L 680.954429 -100.778642 
L 676.161908 -100.334806 
L 671.523983 -105.706304 
L 666.731461 -104.939098 
L 662.093537 -106.472293 
L 657.301015 -104.404633 
L 652.972286 -101.183873 
L 648.179764 -95.507269 
L 643.387242 -104.863539 
L 638.749317 -109.905915 
L 633.956796 -107.739547 
L 629.318871 -104.368353 
L 624.526349 -102.392178 
L 619.733827 -101.251885 
L 615.095903 -101.57791 
L 610.303381 -96.069175 
L 605.665457 -90.855147 
L 600.872935 -84.949181 
L 596.544205 -79.55109 
L 591.751684 -78.204797 
L 586.959162 -81.575114 
L 582.321237 -82.853596 
L 577.528715 -82.06629 
L 572.890791 -76.485775 
L 568.098269 -69.652427 
L 563.305747 -65.872618 
L 558.667823 -62.885604 
L 553.875301 -57.792772 
L 549.237377 -57.095114 
L 544.444855 -109.981959 
L 539.961528 -128.249609 
L 535.169006 -133.030817 
L 530.376484 -134.175497 
L 525.73856 -135.128219 
L 520.946038 -140.27491 
L 516.308114 -139.063847 
L 511.515592 -138.895835 
L 506.72307 -134.923379 
L 502.085145 -137.755271 
L 497.292624 -140.023192 
L 492.654699 -141.191584 
L 487.862177 -139.748937 
L 483.533448 -142.680781 
L 478.740926 -144.878612 
L 473.948404 -147.407961 
L 469.31048 -150.698098 
L 464.517958 -156.086741 
L 459.880033 -152.714776 
L 455.087512 -150.846588 
L 450.29499 -152.759215 
L 445.657065 -163.598644 
L 440.864543 -166.868658 
L 436.226619 -169.847082 
L 431.434097 -167.053433 
L 427.105368 -169.125403 
L 422.312846 -169.800004 
L 417.520324 -176.257397 
L 412.8824 -183.573951 
L 408.089878 -189.36906 
L 403.451953 -188.003464 
L 398.659432 -186.397093 
L 393.86691 -189.46724 
L 389.228985 -203.031161 
L 384.436463 -207.036266 
L 379.798539 -210.442568 
L 375.006017 -206.497307 
L 370.677288 -211.651527 
L 365.884766 -214.706067 
L 361.092244 -219.993331 
L 356.45432 -227.722041 
L 351.661798 -233.031408 
L 347.023873 -233.384488 
L 342.231351 -235.422491 
L 337.43883 -240.734692 
L 332.800905 -250.694201 
L 328.008383 -256.600637 
L 323.370459 -263.031372 
L 318.577937 -270.491292 
L 314.09461 -265.152254 
L 309.302088 -270.958049 
L 304.509566 -270.505601 
L 299.871642 -276.154504 
L 295.07912 -281.534537 
L 290.441196 -297.205118 
L 285.648674 -314.948481 
L 280.856152 -333.032731 
L 276.218228 -340.208033 
L 271.425706 -344.320964 
L 266.787781 -351.552783 
L 261.995259 -363.438268 
L 257.66653 -363.514174 
L 252.874008 -373.380503 
L 248.081486 -435.518165 
L 243.443562 -438.712297 
L 238.65104 -443.062606 
L 234.013116 -444.021981 
L 229.220594 -442.438261 
L 224.428072 -445.570627 
L 219.790148 -445.690756 
L 214.997626 -445.94118 
L 210.359701 -448.506442 
L 205.567179 -450.707002 
L 201.23845 -453.405657 
L 196.445928 -460.718017 
L 191.653406 -484.83625 
L 187.015482 -484.83625 
L 182.22296 -484.83625 
L 177.585036 -484.83625 
L 172.792514 -484.83625 
L 167.999992 -484.83625 
L 163.362067 -484.83625 
L 158.569546 -484.83625 
L 153.931621 -484.83625 
L 149.139099 -484.83625 
L 144.81037 -484.83625 
L 140.017848 -484.83625 
L 135.225326 -484.83625 
L 130.587402 -484.83625 
L 125.79488 -484.83625 
L 121.156955 -484.83625 
L 116.364434 -484.83625 
L 111.571912 -484.83625 
L 106.933987 -484.83625 
L 102.141465 -484.83625 
L 97.503541 -484.83625 
L 92.711019 -484.83625 
L 88.227692 -484.83625 
L 83.43517 -484.83625 
z
" style="stroke: #808080; stroke-width: 0.5"/>
    </defs>
    <g clip-path="url(#pe2e58da94f)">
     <use xlink:href="#m7386e8f7bd" x="0" y="495.835469" style="fill: #f1eef6; stroke: #808080; stroke-width: 0.5"/>
    </g>
   </g>
   <g id="FillBetweenPolyCollection_2">
    <defs>
     <path id="md1eb249f2a" d="M 83.43517 -484.83625 
L 83.43517 -484.83625 
L 88.227692 -484.83625 
L 92.711019 -484.83625 
L 97.503541 -484.83625 
L 102.141465 -484.83625 
L 106.933987 -484.83625 
L 111.571912 -484.83625 
L 116.364434 -484.83625 
L 121.156955 -484.83625 
L 125.79488 -484.83625 
L 130.587402 -484.83625 
L 135.225326 -484.83625 
L 140.017848 -484.83625 
L 144.81037 -484.83625 
L 149.139099 -484.83625 
L 153.931621 -484.83625 
L 158.569546 -484.83625 
L 163.362067 -484.83625 
L 167.999992 -484.83625 
L 172.792514 -484.83625 
L 177.585036 -484.83625 
L 182.22296 -484.83625 
L 187.015482 -484.83625 
L 191.653406 -484.83625 
L 196.445928 -460.718017 
L 201.23845 -453.405657 
L 205.567179 -450.707002 
L 210.359701 -448.506442 
L 214.997626 -445.94118 
L 219.790148 -445.690756 
L 224.428072 -445.570627 
L 229.220594 -442.438261 
L 234.013116 -444.021981 
L 238.65104 -443.062606 
L 243.443562 -438.712297 
L 248.081486 -435.518165 
L 252.874008 -373.380503 
L 257.66653 -363.514174 
L 261.995259 -363.438268 
L 266.787781 -351.552783 
L 271.425706 -344.320964 
L 276.218228 -340.208033 
L 280.856152 -333.032731 
L 285.648674 -314.948481 
L 290.441196 -297.205118 
L 295.07912 -281.534537 
L 299.871642 -276.154504 
L 304.509566 -270.505601 
L 309.302088 -270.958049 
L 314.09461 -265.152254 
L 318.577937 -270.491292 
L 323.370459 -263.031372 
L 328.008383 -256.600637 
L 332.800905 -250.694201 
L 337.43883 -240.734692 
L 342.231351 -235.422491 
L 347.023873 -233.384488 
L 351.661798 -233.031408 
L 356.45432 -227.722041 
L 361.092244 -219.993331 
L 365.884766 -214.706067 
L 370.677288 -211.651527 
L 375.006017 -206.497307 
L 379.798539 -210.442568 
L 384.436463 -207.036266 
L 389.228985 -203.031161 
L 393.86691 -189.46724 
L 398.659432 -186.397093 
L 403.451953 -188.003464 
L 408.089878 -189.36906 
L 412.8824 -183.573951 
L 417.520324 -176.257397 
L 422.312846 -169.800004 
L 427.105368 -169.125403 
L 431.434097 -167.053433 
L 436.226619 -169.847082 
L 440.864543 -166.868658 
L 445.657065 -163.598644 
L 450.29499 -152.759215 
L 455.087512 -150.846588 
L 459.880033 -152.714776 
L 464.517958 -156.086741 
L 469.31048 -150.698098 
L 473.948404 -147.407961 
L 478.740926 -144.878612 
L 483.533448 -142.680781 
L 487.862177 -139.748937 
L 492.654699 -141.191584 
L 497.292624 -140.023192 
L 502.085145 -137.755271 
L 506.72307 -134.923379 
L 511.515592 -138.895835 
L 516.308114 -139.063847 
L 520.946038 -140.27491 
L 525.73856 -135.128219 
L 530.376484 -134.175497 
L 535.169006 -133.030817 
L 539.961528 -128.249609 
L 544.444855 -109.981959 
L 549.237377 -57.095114 
L 553.875301 -57.792772 
L 558.667823 -62.885604 
L 563.305747 -65.872618 
L 568.098269 -69.652427 
L 572.890791 -76.485775 
L 577.528715 -82.06629 
L 582.321237 -82.853596 
L 586.959162 -81.575114 
L 591.751684 -78.204797 
L 596.544205 -79.55109 
L 600.872935 -84.949181 
L 605.665457 -90.855147 
L 610.303381 -96.069175 
L 615.095903 -101.57791 
L 619.733827 -101.251885 
L 624.526349 -102.392178 
L 629.318871 -104.368353 
L 633.956796 -107.739547 
L 638.749317 -109.905915 
L 643.387242 -104.863539 
L 648.179764 -95.507269 
L 652.972286 -101.183873 
L 657.301015 -104.404633 
L 662.093537 -106.472293 
L 666.731461 -104.939098 
L 671.523983 -105.706304 
L 676.161908 -100.334806 
L 680.954429 -100.778642 
L 685.746951 -99.552989 
L 690.384876 -103.069297 
L 695.177398 -100.079886 
L 699.815322 -97.57058 
L 704.607844 -95.93749 
L 709.400366 -94.776368 
L 713.729095 -95.939983 
L 718.521617 -97.531027 
L 723.159541 -98.832325 
L 727.952063 -97.243599 
L 732.589988 -90.948451 
L 737.382509 -91.160276 
L 742.175031 -87.808295 
L 746.812956 -96.522287 
L 751.605478 -96.92935 
L 756.243402 -94.821467 
L 761.035924 -90.8327 
L 765.828446 -92.289513 
L 770.311773 -95.619216 
L 775.104295 -98.935497 
L 779.742219 -99.863897 
L 784.534741 -98.399401 
L 789.172665 -93.500134 
L 793.965187 -91.659794 
L 798.757709 -100.81764 
L 803.395633 -102.481907 
L 808.188155 -99.631587 
L 812.82608 -96.493808 
L 812.82608 -97.340851 
L 812.82608 -97.340851 
L 808.188155 -100.499632 
L 803.395633 -103.422536 
L 798.757709 -101.750066 
L 793.965187 -92.58161 
L 789.172665 -94.415764 
L 784.534741 -99.320633 
L 779.742219 -100.860018 
L 775.104295 -99.894089 
L 770.311773 -96.536842 
L 765.828446 -93.245107 
L 761.035924 -91.827724 
L 756.243402 -95.893371 
L 751.605478 -98.056138 
L 746.812956 -97.618121 
L 742.175031 -88.956848 
L 737.382509 -92.285339 
L 732.589988 -92.050175 
L 727.952063 -98.400216 
L 723.159541 -100.010431 
L 718.521617 -98.697187 
L 713.729095 -97.153555 
L 709.400366 -96.028994 
L 704.607844 -97.212952 
L 699.815322 -98.822466 
L 695.177398 -101.251894 
L 690.384876 -104.274847 
L 685.746951 -100.854071 
L 680.954429 -102.053709 
L 676.161908 -101.559882 
L 671.523983 -107.071612 
L 666.731461 -106.341395 
L 662.093537 -107.895745 
L 657.301015 -105.812553 
L 652.972286 -102.628361 
L 648.179764 -96.938259 
L 643.387242 -106.939193 
L 638.749317 -112.152251 
L 633.956796 -109.971346 
L 629.318871 -106.523264 
L 624.526349 -104.331237 
L 619.733827 -103.126372 
L 615.095903 -103.522019 
L 610.303381 -98.096894 
L 605.665457 -92.97406 
L 600.872935 -87.024924 
L 596.544205 -81.543531 
L 591.751684 -80.487996 
L 586.959162 -84.093594 
L 582.321237 -85.510934 
L 577.528715 -84.570959 
L 572.890791 -79.03203 
L 568.098269 -72.22833 
L 563.305747 -68.42488 
L 558.667823 -65.814848 
L 553.875301 -61.16738 
L 549.237377 -60.027199 
L 544.444855 -115.330464 
L 539.961528 -133.953465 
L 535.169006 -139.624383 
L 530.376484 -140.484602 
L 525.73856 -141.256694 
L 520.946038 -147.042095 
L 516.308114 -145.969524 
L 511.515592 -146.35414 
L 506.72307 -142.184587 
L 502.085145 -145.071674 
L 497.292624 -147.418278 
L 492.654699 -149.097661 
L 487.862177 -148.134149 
L 483.533448 -151.883395 
L 478.740926 -154.258728 
L 473.948404 -157.07715 
L 469.31048 -160.078869 
L 464.517958 -165.94459 
L 459.880033 -162.486024 
L 455.087512 -160.589075 
L 450.29499 -162.791475 
L 445.657065 -174.2666 
L 440.864543 -178.000537 
L 436.226619 -181.193694 
L 431.434097 -178.523342 
L 427.105368 -181.026968 
L 422.312846 -181.739272 
L 417.520324 -189.442155 
L 412.8824 -197.288231 
L 408.089878 -203.703635 
L 403.451953 -202.764284 
L 398.659432 -201.608213 
L 393.86691 -205.51329 
L 389.228985 -219.620992 
L 384.436463 -224.664897 
L 379.798539 -228.893567 
L 375.006017 -225.333875 
L 370.677288 -230.869499 
L 365.884766 -234.031999 
L 361.092244 -241.162833 
L 356.45432 -249.110528 
L 351.661798 -255.371095 
L 347.023873 -255.642606 
L 342.231351 -259.954659 
L 337.43883 -266.721669 
L 332.800905 -277.294885 
L 328.008383 -284.755025 
L 323.370459 -291.909338 
L 318.577937 -300.248668 
L 314.09461 -295.061095 
L 309.302088 -301.524057 
L 304.509566 -302.853439 
L 299.871642 -308.086374 
L 295.07912 -313.51058 
L 290.441196 -331.426991 
L 285.648674 -352.751934 
L 280.856152 -371.999779 
L 276.218228 -379.995837 
L 271.425706 -385.483921 
L 266.787781 -391.066364 
L 261.995259 -404.999817 
L 257.66653 -404.30016 
L 252.874008 -412.637535 
L 248.081486 -484.83625 
L 243.443562 -484.83625 
L 238.65104 -484.83625 
L 234.013116 -484.83625 
L 229.220594 -484.83625 
L 224.428072 -484.83625 
L 219.790148 -484.83625 
L 214.997626 -484.83625 
L 210.359701 -484.83625 
L 205.567179 -484.83625 
L 201.23845 -484.83625 
L 196.445928 -484.83625 
L 191.653406 -484.83625 
L 187.015482 -484.83625 
L 182.22296 -484.83625 
L 177.585036 -484.83625 
L 172.792514 -484.83625 
L 167.999992 -484.83625 
L 163.362067 -484.83625 
L 158.569546 -484.83625 
L 153.931621 -484.83625 
L 149.139099 -484.83625 
L 144.81037 -484.83625 
L 140.017848 -484.83625 
L 135.225326 -484.83625 
L 130.587402 -484.83625 
L 125.79488 -484.83625 
L 121.156955 -484.83625 
L 116.364434 -484.83625 
L 111.571912 -484.83625 
L 106.933987 -484.83625 
L 102.141465 -484.83625 
L 97.503541 -484.83625 
L 92.711019 -484.83625 
L 88.227692 -484.83625 
L 83.43517 -484.83625 
z
" style="stroke: #808080; stroke-width: 0.5"/>
    </defs>
    <g clip-path="url(#pe2e58da94f)">
     <use xlink:href="#md1eb249f2a" x="0" y="495.835469" style="fill: #bdc9e1; stroke: #808080; stroke-width: 0.5"/>
    </g>
   </g>
   <g id="FillBetweenPolyCollection_3">
    <defs>
     <path id="m185615ddfc" d="M 83.43517 -484.83625 
L 83.43517 -484.83625 
L 88.227692 -484.83625 
L 92.711019 -484.83625 
L 97.503541 -484.83625 
L 102.141465 -484.83625 
L 106.933987 -484.83625 
L 111.571912 -484.83625 
L 116.364434 -484.83625 
L 121.156955 -484.83625 
L 125.79488 -484.83625 
L 130.587402 -484.83625 
L 135.225326 -484.83625 
L 140.017848 -484.83625 
L 144.81037 -484.83625 
L 149.139099 -484.83625 
L 153.931621 -484.83625 
L 158.569546 -484.83625 
L 163.362067 -484.83625 
L 167.999992 -484.83625 
L 172.792514 -484.83625 
L 177.585036 -484.83625 
L 182.22296 -484.83625 
L 187.015482 -484.83625 
L 191.653406 -484.83625 
L 196.445928 -484.83625 
L 201.23845 -484.83625 
L 205.567179 -484.83625 
L 210.359701 -484.83625 
L 214.997626 -484.83625 
L 219.790148 -484.83625 
L 224.428072 -484.83625 
L 229.220594 -484.83625 
L 234.013116 -484.83625 
L 238.65104 -484.83625 
L 243.443562 -484.83625 
L 248.081486 -484.83625 
L 252.874008 -412.637535 
L 257.66653 -404.30016 
L 261.995259 -404.999817 
L 266.787781 -391.066364 
L 271.425706 -385.483921 
L 276.218228 -379.995837 
L 280.856152 -371.999779 
L 285.648674 -352.751934 
L 290.441196 -331.426991 
L 295.07912 -313.51058 
L 299.871642 -308.086374 
L 304.509566 -302.853439 
L 309.302088 -301.524057 
L 314.09461 -295.061095 
L 318.577937 -300.248668 
L 323.370459 -291.909338 
L 328.008383 -284.755025 
L 332.800905 -277.294885 
L 337.43883 -266.721669 
L 342.231351 -259.954659 
L 347.023873 -255.642606 
L 351.661798 -255.371095 
L 356.45432 -249.110528 
L 361.092244 -241.162833 
L 365.884766 -234.031999 
L 370.677288 -230.869499 
L 375.006017 -225.333875 
L 379.798539 -228.893567 
L 384.436463 -224.664897 
L 389.228985 -219.620992 
L 393.86691 -205.51329 
L 398.659432 -201.608213 
L 403.451953 -202.764284 
L 408.089878 -203.703635 
L 412.8824 -197.288231 
L 417.520324 -189.442155 
L 422.312846 -181.739272 
L 427.105368 -181.026968 
L 431.434097 -178.523342 
L 436.226619 -181.193694 
L 440.864543 -178.000537 
L 445.657065 -174.2666 
L 450.29499 -162.791475 
L 455.087512 -160.589075 
L 459.880033 -162.486024 
L 464.517958 -165.94459 
L 469.31048 -160.078869 
L 473.948404 -157.07715 
L 478.740926 -154.258728 
L 483.533448 -151.883395 
L 487.862177 -148.134149 
L 492.654699 -149.097661 
L 497.292624 -147.418278 
L 502.085145 -145.071674 
L 506.72307 -142.184587 
L 511.515592 -146.35414 
L 516.308114 -145.969524 
L 520.946038 -147.042095 
L 525.73856 -141.256694 
L 530.376484 -140.484602 
L 535.169006 -139.624383 
L 539.961528 -133.953465 
L 544.444855 -115.330464 
L 549.237377 -60.027199 
L 553.875301 -61.16738 
L 558.667823 -65.814848 
L 563.305747 -68.42488 
L 568.098269 -72.22833 
L 572.890791 -79.03203 
L 577.528715 -84.570959 
L 582.321237 -85.510934 
L 586.959162 -84.093594 
L 591.751684 -80.487996 
L 596.544205 -81.543531 
L 600.872935 -87.024924 
L 605.665457 -92.97406 
L 610.303381 -98.096894 
L 615.095903 -103.522019 
L 619.733827 -103.126372 
L 624.526349 -104.331237 
L 629.318871 -106.523264 
L 633.956796 -109.971346 
L 638.749317 -112.152251 
L 643.387242 -106.939193 
L 648.179764 -96.938259 
L 652.972286 -102.628361 
L 657.301015 -105.812553 
L 662.093537 -107.895745 
L 666.731461 -106.341395 
L 671.523983 -107.071612 
L 676.161908 -101.559882 
L 680.954429 -102.053709 
L 685.746951 -100.854071 
L 690.384876 -104.274847 
L 695.177398 -101.251894 
L 699.815322 -98.822466 
L 704.607844 -97.212952 
L 709.400366 -96.028994 
L 713.729095 -97.153555 
L 718.521617 -98.697187 
L 723.159541 -100.010431 
L 727.952063 -98.400216 
L 732.589988 -92.050175 
L 737.382509 -92.285339 
L 742.175031 -88.956848 
L 746.812956 -97.618121 
L 751.605478 -98.056138 
L 756.243402 -95.893371 
L 761.035924 -91.827724 
L 765.828446 -93.245107 
L 770.311773 -96.536842 
L 775.104295 -99.894089 
L 779.742219 -100.860018 
L 784.534741 -99.320633 
L 789.172665 -94.415764 
L 793.965187 -92.58161 
L 798.757709 -101.750066 
L 803.395633 -103.422536 
L 808.188155 -100.499632 
L 812.82608 -97.340851 
L 812.82608 -129.657098 
L 812.82608 -129.657098 
L 808.188155 -128.861372 
L 803.395633 -128.721563 
L 798.757709 -133.215612 
L 793.965187 -120.840514 
L 789.172665 -120.674748 
L 784.534741 -124.179032 
L 779.742219 -124.411398 
L 775.104295 -126.159795 
L 770.311773 -121.622704 
L 765.828446 -115.687001 
L 761.035924 -116.039747 
L 756.243402 -120.361018 
L 751.605478 -123.289527 
L 746.812956 -126.53141 
L 742.175031 -113.181432 
L 737.382509 -120.910785 
L 732.589988 -118.321573 
L 727.952063 -121.305373 
L 723.159541 -125.140874 
L 718.521617 -122.320949 
L 713.729095 -120.862054 
L 709.400366 -118.695602 
L 704.607844 -119.279312 
L 699.815322 -122.532564 
L 695.177398 -123.396396 
L 690.384876 -126.142959 
L 685.746951 -124.399848 
L 680.954429 -126.125858 
L 676.161908 -125.457543 
L 671.523983 -130.911934 
L 666.731461 -130.868474 
L 662.093537 -132.663005 
L 657.301015 -132.233489 
L 652.972286 -130.373803 
L 648.179764 -124.900169 
L 643.387242 -136.116124 
L 638.749317 -138.752058 
L 633.956796 -136.901803 
L 629.318871 -134.376841 
L 624.526349 -133.547603 
L 619.733827 -132.292823 
L 615.095903 -134.358798 
L 610.303381 -128.746608 
L 605.665457 -125.350661 
L 600.872935 -120.464589 
L 596.544205 -114.707492 
L 591.751684 -116.265263 
L 586.959162 -120.609539 
L 582.321237 -123.213463 
L 577.528715 -119.206914 
L 572.890791 -117.651423 
L 568.098269 -112.065335 
L 563.305747 -110.827412 
L 558.667823 -115.398402 
L 553.875301 -109.087133 
L 549.237377 -109.420767 
L 544.444855 -151.307648 
L 539.961528 -162.4111 
L 535.169006 -170.842357 
L 530.376484 -170.051557 
L 525.73856 -168.80217 
L 520.946038 -174.924872 
L 516.308114 -165.887088 
L 511.515592 -178.756453 
L 506.72307 -173.199628 
L 502.085145 -174.825327 
L 497.292624 -176.173916 
L 492.654699 -176.690959 
L 487.862177 -167.812748 
L 483.533448 -178.004013 
L 478.740926 -484.83625 
L 473.948404 -484.83625 
L 469.31048 -484.83625 
L 464.517958 -484.83625 
L 459.880033 -484.83625 
L 455.087512 -484.83625 
L 450.29499 -484.83625 
L 445.657065 -484.83625 
L 440.864543 -484.83625 
L 436.226619 -484.83625 
L 431.434097 -484.83625 
L 427.105368 -484.83625 
L 422.312846 -484.83625 
L 417.520324 -484.83625 
L 412.8824 -484.83625 
L 408.089878 -484.83625 
L 403.451953 -484.83625 
L 398.659432 -484.83625 
L 393.86691 -484.83625 
L 389.228985 -484.83625 
L 384.436463 -484.83625 
L 379.798539 -484.83625 
L 375.006017 -484.83625 
L 370.677288 -484.83625 
L 365.884766 -484.83625 
L 361.092244 -484.83625 
L 356.45432 -484.83625 
L 351.661798 -484.83625 
L 347.023873 -484.83625 
L 342.231351 -484.83625 
L 337.43883 -484.83625 
L 332.800905 -484.83625 
L 328.008383 -484.83625 
L 323.370459 -484.83625 
L 318.577937 -484.83625 
L 314.09461 -484.83625 
L 309.302088 -484.83625 
L 304.509566 -484.83625 
L 299.871642 -484.83625 
L 295.07912 -484.83625 
L 290.441196 -484.83625 
L 285.648674 -484.83625 
L 280.856152 -484.83625 
L 276.218228 -484.83625 
L 271.425706 -484.83625 
L 266.787781 -484.83625 
L 261.995259 -484.83625 
L 257.66653 -484.83625 
L 252.874008 -484.83625 
L 248.081486 -484.83625 
L 243.443562 -484.83625 
L 238.65104 -484.83625 
L 234.013116 -484.83625 
L 229.220594 -484.83625 
L 224.428072 -484.83625 
L 219.790148 -484.83625 
L 214.997626 -484.83625 
L 210.359701 -484.83625 
L 205.567179 -484.83625 
L 201.23845 -484.83625 
L 196.445928 -484.83625 
L 191.653406 -484.83625 
L 187.015482 -484.83625 
L 182.22296 -484.83625 
L 177.585036 -484.83625 
L 172.792514 -484.83625 
L 167.999992 -484.83625 
L 163.362067 -484.83625 
L 158.569546 -484.83625 
L 153.931621 -484.83625 
L 149.139099 -484.83625 
L 144.81037 -484.83625 
L 140.017848 -484.83625 
L 135.225326 -484.83625 
L 130.587402 -484.83625 
L 125.79488 -484.83625 
L 121.156955 -484.83625 
L 116.364434 -484.83625 
L 111.571912 -484.83625 
L 106.933987 -484.83625 
L 102.141465 -484.83625 
L 97.503541 -484.83625 
L 92.711019 -484.83625 
L 88.227692 -484.83625 
L 83.43517 -484.83625 
z
" style="stroke: #808080; stroke-width: 0.5"/>
    </defs>
    <g clip-path="url(#pe2e58da94f)">
     <use xlink:href="#m185615ddfc" x="0" y="495.835469" style="fill: #74a9cf; stroke: #808080; stroke-width: 0.5"/>
    </g>
   </g>
   <g id="FillBetweenPolyCollection_4">
    <defs>
     <path id="mefe381071f" d="M 83.43517 -484.83625 
L 83.43517 -484.83625 
L 88.227692 -484.83625 
L 92.711019 -484.83625 
L 97.503541 -484.83625 
L 102.141465 -484.83625 
L 106.933987 -484.83625 
L 111.571912 -484.83625 
L 116.364434 -484.83625 
L 121.156955 -484.83625 
L 125.79488 -484.83625 
L 130.587402 -484.83625 
L 135.225326 -484.83625 
L 140.017848 -484.83625 
L 144.81037 -484.83625 
L 149.139099 -484.83625 
L 153.931621 -484.83625 
L 158.569546 -484.83625 
L 163.362067 -484.83625 
L 167.999992 -484.83625 
L 172.792514 -484.83625 
L 177.585036 -484.83625 
L 182.22296 -484.83625 
L 187.015482 -484.83625 
L 191.653406 -484.83625 
L 196.445928 -484.83625 
L 201.23845 -484.83625 
L 205.567179 -484.83625 
L 210.359701 -484.83625 
L 214.997626 -484.83625 
L 219.790148 -484.83625 
L 224.428072 -484.83625 
L 229.220594 -484.83625 
L 234.013116 -484.83625 
L 238.65104 -484.83625 
L 243.443562 -484.83625 
L 248.081486 -484.83625 
L 252.874008 -484.83625 
L 257.66653 -484.83625 
L 261.995259 -484.83625 
L 266.787781 -484.83625 
L 271.425706 -484.83625 
L 276.218228 -484.83625 
L 280.856152 -484.83625 
L 285.648674 -484.83625 
L 290.441196 -484.83625 
L 295.07912 -484.83625 
L 299.871642 -484.83625 
L 304.509566 -484.83625 
L 309.302088 -484.83625 
L 314.09461 -484.83625 
L 318.577937 -484.83625 
L 323.370459 -484.83625 
L 328.008383 -484.83625 
L 332.800905 -484.83625 
L 337.43883 -484.83625 
L 342.231351 -484.83625 
L 347.023873 -484.83625 
L 351.661798 -484.83625 
L 356.45432 -484.83625 
L 361.092244 -484.83625 
L 365.884766 -484.83625 
L 370.677288 -484.83625 
L 375.006017 -484.83625 
L 379.798539 -484.83625 
L 384.436463 -484.83625 
L 389.228985 -484.83625 
L 393.86691 -484.83625 
L 398.659432 -484.83625 
L 403.451953 -484.83625 
L 408.089878 -484.83625 
L 412.8824 -484.83625 
L 417.520324 -484.83625 
L 422.312846 -484.83625 
L 427.105368 -484.83625 
L 431.434097 -484.83625 
L 436.226619 -484.83625 
L 440.864543 -484.83625 
L 445.657065 -484.83625 
L 450.29499 -484.83625 
L 455.087512 -484.83625 
L 459.880033 -484.83625 
L 464.517958 -484.83625 
L 469.31048 -484.83625 
L 473.948404 -484.83625 
L 478.740926 -484.83625 
L 483.533448 -178.004013 
L 487.862177 -167.812748 
L 492.654699 -176.690959 
L 497.292624 -176.173916 
L 502.085145 -174.825327 
L 506.72307 -173.199628 
L 511.515592 -178.756453 
L 516.308114 -165.887088 
L 520.946038 -174.924872 
L 525.73856 -168.80217 
L 530.376484 -170.051557 
L 535.169006 -170.842357 
L 539.961528 -162.4111 
L 544.444855 -151.307648 
L 549.237377 -109.420767 
L 553.875301 -109.087133 
L 558.667823 -115.398402 
L 563.305747 -110.827412 
L 568.098269 -112.065335 
L 572.890791 -117.651423 
L 577.528715 -119.206914 
L 582.321237 -123.213463 
L 586.959162 -120.609539 
L 591.751684 -116.265263 
L 596.544205 -114.707492 
L 600.872935 -120.464589 
L 605.665457 -125.350661 
L 610.303381 -128.746608 
L 615.095903 -134.358798 
L 619.733827 -132.292823 
L 624.526349 -133.547603 
L 629.318871 -134.376841 
L 633.956796 -136.901803 
L 638.749317 -138.752058 
L 643.387242 -136.116124 
L 648.179764 -124.900169 
L 652.972286 -130.373803 
L 657.301015 -132.233489 
L 662.093537 -132.663005 
L 666.731461 -130.868474 
L 671.523983 -130.911934 
L 676.161908 -125.457543 
L 680.954429 -126.125858 
L 685.746951 -124.399848 
L 690.384876 -126.142959 
L 695.177398 -123.396396 
L 699.815322 -122.532564 
L 704.607844 -119.279312 
L 709.400366 -118.695602 
L 713.729095 -120.862054 
L 718.521617 -122.320949 
L 723.159541 -125.140874 
L 727.952063 -121.305373 
L 732.589988 -118.321573 
L 737.382509 -120.910785 
L 742.175031 -113.181432 
L 746.812956 -126.53141 
L 751.605478 -123.289527 
L 756.243402 -120.361018 
L 761.035924 -116.039747 
L 765.828446 -115.687001 
L 770.311773 -121.622704 
L 775.104295 -126.159795 
L 779.742219 -124.411398 
L 784.534741 -124.179032 
L 789.172665 -120.674748 
L 793.965187 -120.840514 
L 798.757709 -133.215612 
L 803.395633 -128.721563 
L 808.188155 -128.861372 
L 812.82608 -129.657098 
L 812.82608 -484.83625 
L 812.82608 -484.83625 
L 808.188155 -484.83625 
L 803.395633 -484.83625 
L 798.757709 -484.83625 
L 793.965187 -484.83625 
L 789.172665 -484.83625 
L 784.534741 -484.83625 
L 779.742219 -484.83625 
L 775.104295 -484.83625 
L 770.311773 -484.83625 
L 765.828446 -484.83625 
L 761.035924 -484.83625 
L 756.243402 -484.83625 
L 751.605478 -484.83625 
L 746.812956 -484.83625 
L 742.175031 -484.83625 
L 737.382509 -484.83625 
L 732.589988 -484.83625 
L 727.952063 -484.83625 
L 723.159541 -484.83625 
L 718.521617 -484.83625 
L 713.729095 -484.83625 
L 709.400366 -484.83625 
L 704.607844 -484.83625 
L 699.815322 -484.83625 
L 695.177398 -484.83625 
L 690.384876 -484.83625 
L 685.746951 -484.83625 
L 680.954429 -484.83625 
L 676.161908 -484.83625 
L 671.523983 -484.83625 
L 666.731461 -484.83625 
L 662.093537 -484.83625 
L 657.301015 -484.83625 
L 652.972286 -484.83625 
L 648.179764 -484.83625 
L 643.387242 -484.83625 
L 638.749317 -484.83625 
L 633.956796 -484.83625 
L 629.318871 -484.83625 
L 624.526349 -484.83625 
L 619.733827 -484.83625 
L 615.095903 -484.83625 
L 610.303381 -484.83625 
L 605.665457 -484.83625 
L 600.872935 -484.83625 
L 596.544205 -484.83625 
L 591.751684 -484.83625 
L 586.959162 -484.83625 
L 582.321237 -484.83625 
L 577.528715 -484.83625 
L 572.890791 -484.83625 
L 568.098269 -484.83625 
L 563.305747 -484.83625 
L 558.667823 -484.83625 
L 553.875301 -484.83625 
L 549.237377 -484.83625 
L 544.444855 -484.83625 
L 539.961528 -484.83625 
L 535.169006 -484.83625 
L 530.376484 -484.83625 
L 525.73856 -484.83625 
L 520.946038 -484.83625 
L 516.308114 -484.83625 
L 511.515592 -484.83625 
L 506.72307 -484.83625 
L 502.085145 -484.83625 
L 497.292624 -484.83625 
L 492.654699 -484.83625 
L 487.862177 -484.83625 
L 483.533448 -484.83625 
L 478.740926 -484.83625 
L 473.948404 -484.83625 
L 469.31048 -484.83625 
L 464.517958 -484.83625 
L 459.880033 -484.83625 
L 455.087512 -484.83625 
L 450.29499 -484.83625 
L 445.657065 -484.83625 
L 440.864543 -484.83625 
L 436.226619 -484.83625 
L 431.434097 -484.83625 
L 427.105368 -484.83625 
L 422.312846 -484.83625 
L 417.520324 -484.83625 
L 412.8824 -484.83625 
L 408.089878 -484.83625 
L 403.451953 -484.83625 
L 398.659432 -484.83625 
L 393.86691 -484.83625 
L 389.228985 -484.83625 
L 384.436463 -484.83625 
L 379.798539 -484.83625 
L 375.006017 -484.83625 
L 370.677288 -484.83625 
L 365.884766 -484.83625 
L 361.092244 -484.83625 
L 356.45432 -484.83625 
L 351.661798 -484.83625 
L 347.023873 -484.83625 
L 342.231351 -484.83625 
L 337.43883 -484.83625 
L 332.800905 -484.83625 
L 328.008383 -484.83625 
L 323.370459 -484.83625 
L 318.577937 -484.83625 
L 314.09461 -484.83625 
L 309.302088 -484.83625 
L 304.509566 -484.83625 
L 299.871642 -484.83625 
L 295.07912 -484.83625 
L 290.441196 -484.83625 
L 285.648674 -484.83625 
L 280.856152 -484.83625 
L 276.218228 -484.83625 
L 271.425706 -484.83625 
L 266.787781 -484.83625 
L 261.995259 -484.83625 
L 257.66653 -484.83625 
L 252.874008 -484.83625 
L 248.081486 -484.83625 
L 243.443562 -484.83625 
L 238.65104 -484.83625 
L 234.013116 -484.83625 
L 229.220594 -484.83625 
L 224.428072 -484.83625 
L 219.790148 -484.83625 
L 214.997626 -484.83625 
L 210.359701 -484.83625 
L 205.567179 -484.83625 
L 201.23845 -484.83625 
L 196.445928 -484.83625 
L 191.653406 -484.83625 
L 187.015482 -484.83625 
L 182.22296 -484.83625 
L 177.585036 -484.83625 
L 172.792514 -484.83625 
L 167.999992 -484.83625 
L 163.362067 -484.83625 
L 158.569546 -484.83625 
L 153.931621 -484.83625 
L 149.139099 -484.83625 
L 144.81037 -484.83625 
L 140.017848 -484.83625 
L 135.225326 -484.83625 
L 130.587402 -484.83625 
L 125.79488 -484.83625 
L 121.156955 -484.83625 
L 116.364434 -484.83625 
L 111.571912 -484.83625 
L 106.933987 -484.83625 
L 102.141465 -484.83625 
L 97.503541 -484.83625 
L 92.711019 -484.83625 
L 88.227692 -484.83625 
L 83.43517 -484.83625 
z
" style="stroke: #808080; stroke-width: 0.5"/>
    </defs>
    <g clip-path="url(#pe2e58da94f)">
     <use xlink:href="#mefe381071f" x="0" y="495.835469" style="fill: #0570b0; stroke: #808080; stroke-width: 0.5"/>
    </g>
   </g>
   <g id="matplotlib.axis_1">
    <g id="xtick_1">
     <g id="line2d_1">
      <path d="M 83.43517 458.279219 
L 83.43517 10.999219 
" clip-path="url(#pe2e58da94f)" style="fill: none; stroke: #b0b0b0; stroke-width: 0.8; stroke-linecap: square"/>
     </g>
     <g id="line2d_2">
      <defs>
       <path id="m6202d720ba" d="M 0 0 
L 0 3.5 
" style="stroke: #000000; stroke-width: 0.8"/>
      </defs>
      <g>
       <use xlink:href="#m6202d720ba" x="83.43517" y="458.279219" style="stroke: #000000; stroke-width: 0.8"/>
      </g>
     </g>
     <g id="text_1">
      <!-- 2012 -->
      <g transform="translate(70.71017 472.877656) scale(0.1 -0.1)">
       <defs>
        <path id="DejaVuSans-32" d="M 1228 531 
L 3431 531 
L 3431 0 
L 469 0 
L 469 531 
Q 828 903 1448 1529 
Q 2069 2156 2228 2338 
Q 2531 2678 2651 2914 
Q 2772 3150 2772 3378 
Q 2772 3750 2511 3984 
Q 2250 4219 1831 4219 
Q 1534 4219 1204 4116 
Q 875 4013 500 3803 
L 500 4441 
Q 881 4594 1212 4672 
Q 1544 4750 1819 4750 
Q 2544 4750 2975 4387 
Q 3406 4025 3406 3419 
Q 3406 3131 3298 2873 
Q 3191 2616 2906 2266 
Q 2828 2175 2409 1742 
Q 1991 1309 1228 531 
z
" transform="scale(0.015625)"/>
        <path id="DejaVuSans-30" d="M 2034 4250 
Q 1547 4250 1301 3770 
Q 1056 3291 1056 2328 
Q 1056 1369 1301 889 
Q 1547 409 2034 409 
Q 2525 409 2770 889 
Q 3016 1369 3016 2328 
Q 3016 3291 2770 3770 
Q 2525 4250 2034 4250 
z
M 2034 4750 
Q 2819 4750 3233 4129 
Q 3647 3509 3647 2328 
Q 3647 1150 3233 529 
Q 2819 -91 2034 -91 
Q 1250 -91 836 529 
Q 422 1150 422 2328 
Q 422 3509 836 4129 
Q 1250 4750 2034 4750 
z
" transform="scale(0.015625)"/>
        <path id="DejaVuSans-31" d="M 794 531 
L 1825 531 
L 1825 4091 
L 703 3866 
L 703 4441 
L 1819 4666 
L 2450 4666 
L 2450 531 
L 3481 531 
L 3481 0 
L 794 0 
L 794 531 
z
" transform="scale(0.015625)"/>
       </defs>
       <use xlink:href="#DejaVuSans-32"/>
       <use xlink:href="#DejaVuSans-30" transform="translate(63.623047 0)"/>
       <use xlink:href="#DejaVuSans-31" transform="translate(127.246094 0)"/>
       <use xlink:href="#DejaVuSans-32" transform="translate(190.869141 0)"/>
      </g>
     </g>
    </g>
    <g id="xtick_2">
     <g id="line2d_3">
      <path d="M 196.445928 458.279219 
L 196.445928 10.999219 
" clip-path="url(#pe2e58da94f)" style="fill: none; stroke: #b0b0b0; stroke-width: 0.8; stroke-linecap: square"/>
     </g>
     <g id="line2d_4">
      <g>
       <use xlink:href="#m6202d720ba" x="196.445928" y="458.279219" style="stroke: #000000; stroke-width: 0.8"/>
      </g>
     </g>
     <g id="text_2">
      <!-- 2014 -->
      <g transform="translate(183.720928 472.877656) scale(0.1 -0.1)">
       <defs>
        <path id="DejaVuSans-34" d="M 2419 4116 
L 825 1625 
L 2419 1625 
L 2419 4116 
z
M 2253 4666 
L 3047 4666 
L 3047 1625 
L 3713 1625 
L 3713 1100 
L 3047 1100 
L 3047 0 
L 2419 0 
L 2419 1100 
L 313 1100 
L 313 1709 
L 2253 4666 
z
" transform="scale(0.015625)"/>
       </defs>
       <use xlink:href="#DejaVuSans-32"/>
       <use xlink:href="#DejaVuSans-30" transform="translate(63.623047 0)"/>
       <use xlink:href="#DejaVuSans-31" transform="translate(127.246094 0)"/>
       <use xlink:href="#DejaVuSans-34" transform="translate(190.869141 0)"/>
      </g>
     </g>
    </g>
    <g id="xtick_3">
     <g id="line2d_5">
      <path d="M 309.302088 458.279219 
L 309.302088 10.999219 
" clip-path="url(#pe2e58da94f)" style="fill: none; stroke: #b0b0b0; stroke-width: 0.8; stroke-linecap: square"/>
     </g>
     <g id="line2d_6">
      <g>
       <use xlink:href="#m6202d720ba" x="309.302088" y="458.279219" style="stroke: #000000; stroke-width: 0.8"/>
      </g>
     </g>
     <g id="text_3">
      <!-- 2016 -->
      <g transform="translate(296.577088 472.877656) scale(0.1 -0.1)">
       <defs>
        <path id="DejaVuSans-36" d="M 2113 2584 
Q 1688 2584 1439 2293 
Q 1191 2003 1191 1497 
Q 1191 994 1439 701 
Q 1688 409 2113 409 
Q 2538 409 2786 701 
Q 3034 994 3034 1497 
Q 3034 2003 2786 2293 
Q 2538 2584 2113 2584 
z
M 3366 4563 
L 3366 3988 
Q 3128 4100 2886 4159 
Q 2644 4219 2406 4219 
Q 1781 4219 1451 3797 
Q 1122 3375 1075 2522 
Q 1259 2794 1537 2939 
Q 1816 3084 2150 3084 
Q 2853 3084 3261 2657 
Q 3669 2231 3669 1497 
Q 3669 778 3244 343 
Q 2819 -91 2113 -91 
Q 1303 -91 875 529 
Q 447 1150 447 2328 
Q 447 3434 972 4092 
Q 1497 4750 2381 4750 
Q 2619 4750 2861 4703 
Q 3103 4656 3366 4563 
z
" transform="scale(0.015625)"/>
       </defs>
       <use xlink:href="#DejaVuSans-32"/>
       <use xlink:href="#DejaVuSans-30" transform="translate(63.623047 0)"/>
       <use xlink:href="#DejaVuSans-31" transform="translate(127.246094 0)"/>
       <use xlink:href="#DejaVuSans-36" transform="translate(190.869141 0)"/>
      </g>
     </g>
    </g>
    <g id="xtick_4">
     <g id="line2d_7">
      <path d="M 422.312846 458.279219 
L 422.312846 10.999219 
" clip-path="url(#pe2e58da94f)" style="fill: none; stroke: #b0b0b0; stroke-width: 0.8; stroke-linecap: square"/>
     </g>
     <g id="line2d_8">
      <g>
       <use xlink:href="#m6202d720ba" x="422.312846" y="458.279219" style="stroke: #000000; stroke-width: 0.8"/>
      </g>
     </g>
     <g id="text_4">
      <!-- 2018 -->
      <g transform="translate(409.587846 472.877656) scale(0.1 -0.1)">
       <defs>
        <path id="DejaVuSans-38" d="M 2034 2216 
Q 1584 2216 1326 1975 
Q 1069 1734 1069 1313 
Q 1069 891 1326 650 
Q 1584 409 2034 409 
Q 2484 409 2743 651 
Q 3003 894 3003 1313 
Q 3003 1734 2745 1975 
Q 2488 2216 2034 2216 
z
M 1403 2484 
Q 997 2584 770 2862 
Q 544 3141 544 3541 
Q 544 4100 942 4425 
Q 1341 4750 2034 4750 
Q 2731 4750 3128 4425 
Q 3525 4100 3525 3541 
Q 3525 3141 3298 2862 
Q 3072 2584 2669 2484 
Q 3125 2378 3379 2068 
Q 3634 1759 3634 1313 
Q 3634 634 3220 271 
Q 2806 -91 2034 -91 
Q 1263 -91 848 271 
Q 434 634 434 1313 
Q 434 1759 690 2068 
Q 947 2378 1403 2484 
z
M 1172 3481 
Q 1172 3119 1398 2916 
Q 1625 2713 2034 2713 
Q 2441 2713 2670 2916 
Q 2900 3119 2900 3481 
Q 2900 3844 2670 4047 
Q 2441 4250 2034 4250 
Q 1625 4250 1398 4047 
Q 1172 3844 1172 3481 
z
" transform="scale(0.015625)"/>
       </defs>
       <use xlink:href="#DejaVuSans-32"/>
       <use xlink:href="#DejaVuSans-30" transform="translate(63.623047 0)"/>
       <use xlink:href="#DejaVuSans-31" transform="translate(127.246094 0)"/>
       <use xlink:href="#DejaVuSans-38" transform="translate(190.869141 0)"/>
      </g>
     </g>
    </g>
    <g id="xtick_5">
     <g id="line2d_9">
      <path d="M 535.169006 458.279219 
L 535.169006 10.999219 
" clip-path="url(#pe2e58da94f)" style="fill: none; stroke: #b0b0b0; stroke-width: 0.8; stroke-linecap: square"/>
     </g>
     <g id="line2d_10">
      <g>
       <use xlink:href="#m6202d720ba" x="535.169006" y="458.279219" style="stroke: #000000; stroke-width: 0.8"/>
      </g>
     </g>
     <g id="text_5">
      <!-- 2020 -->
      <g transform="translate(522.444006 472.877656) scale(0.1 -0.1)">
       <use xlink:href="#DejaVuSans-32"/>
       <use xlink:href="#DejaVuSans-30" transform="translate(63.623047 0)"/>
       <use xlink:href="#DejaVuSans-32" transform="translate(127.246094 0)"/>
       <use xlink:href="#DejaVuSans-30" transform="translate(190.869141 0)"/>
      </g>
     </g>
    </g>
    <g id="xtick_6">
     <g id="line2d_11">
      <path d="M 648.179764 458.279219 
L 648.179764 10.999219 
" clip-path="url(#pe2e58da94f)" style="fill: none; stroke: #b0b0b0; stroke-width: 0.8; stroke-linecap: square"/>
     </g>
     <g id="line2d_12">
      <g>
       <use xlink:href="#m6202d720ba" x="648.179764" y="458.279219" style="stroke: #000000; stroke-width: 0.8"/>
      </g>
     </g>
     <g id="text_6">
      <!-- 2022 -->
      <g transform="translate(635.454764 472.877656) scale(0.1 -0.1)">
       <use xlink:href="#DejaVuSans-32"/>
       <use xlink:href="#DejaVuSans-30" transform="translate(63.623047 0)"/>
       <use xlink:href="#DejaVuSans-32" transform="translate(127.246094 0)"/>
       <use xlink:href="#DejaVuSans-32" transform="translate(190.869141 0)"/>
      </g>
     </g>
    </g>
    <g id="xtick_7">
     <g id="line2d_13">
      <path d="M 761.035924 458.279219 
L 761.035924 10.999219 
" clip-path="url(#pe2e58da94f)" style="fill: none; stroke: #b0b0b0; stroke-width: 0.8; stroke-linecap: square"/>
     </g>
     <g id="line2d_14">
      <g>
       <use xlink:href="#m6202d720ba" x="761.035924" y="458.279219" style="stroke: #000000; stroke-width: 0.8"/>
      </g>
     </g>
     <g id="text_7">
      <!-- 2024 -->
      <g transform="translate(748.310924 472.877656) scale(0.1 -0.1)">
       <use xlink:href="#DejaVuSans-32"/>
       <use xlink:href="#DejaVuSans-30" transform="translate(63.623047 0)"/>
       <use xlink:href="#DejaVuSans-32" transform="translate(127.246094 0)"/>
       <use xlink:href="#DejaVuSans-34" transform="translate(190.869141 0)"/>
      </g>
     </g>
    </g>
    <g id="text_8">
     <!-- Date -->
     <g transform="translate(436.179844 486.555781) scale(0.1 -0.1)">
      <defs>
       <path id="DejaVuSans-44" d="M 1259 4147 
L 1259 519 
L 2022 519 
Q 2988 519 3436 956 
Q 3884 1394 3884 2338 
Q 3884 3275 3436 3711 
Q 2988 4147 2022 4147 
L 1259 4147 
z
M 628 4666 
L 1925 4666 
Q 3281 4666 3915 4102 
Q 4550 3538 4550 2338 
Q 4550 1131 3912 565 
Q 3275 0 1925 0 
L 628 0 
L 628 4666 
z
" transform="scale(0.015625)"/>
       <path id="DejaVuSans-61" d="M 2194 1759 
Q 1497 1759 1228 1600 
Q 959 1441 959 1056 
Q 959 750 1161 570 
Q 1363 391 1709 391 
Q 2188 391 2477 730 
Q 2766 1069 2766 1631 
L 2766 1759 
L 2194 1759 
z
M 3341 1997 
L 3341 0 
L 2766 0 
L 2766 531 
Q 2569 213 2275 61 
Q 1981 -91 1556 -91 
Q 1019 -91 701 211 
Q 384 513 384 1019 
Q 384 1609 779 1909 
Q 1175 2209 1959 2209 
L 2766 2209 
L 2766 2266 
Q 2766 2663 2505 2880 
Q 2244 3097 1772 3097 
Q 1472 3097 1187 3025 
Q 903 2953 641 2809 
L 641 3341 
Q 956 3463 1253 3523 
Q 1550 3584 1831 3584 
Q 2591 3584 2966 3190 
Q 3341 2797 3341 1997 
z
" transform="scale(0.015625)"/>
       <path id="DejaVuSans-74" d="M 1172 4494 
L 1172 3500 
L 2356 3500 
L 2356 3053 
L 1172 3053 
L 1172 1153 
Q 1172 725 1289 603 
Q 1406 481 1766 481 
L 2356 481 
L 2356 0 
L 1766 0 
Q 1100 0 847 248 
Q 594 497 594 1153 
L 594 3053 
L 172 3053 
L 172 3500 
L 594 3500 
L 594 4494 
L 1172 4494 
z
" transform="scale(0.015625)"/>
       <path id="DejaVuSans-65" d="M 3597 1894 
L 3597 1613 
L 953 1613 
Q 991 1019 1311 708 
Q 1631 397 2203 397 
Q 2534 397 2845 478 
Q 3156 559 3463 722 
L 3463 178 
Q 3153 47 2828 -22 
Q 2503 -91 2169 -91 
Q 1331 -91 842 396 
Q 353 884 353 1716 
Q 353 2575 817 3079 
Q 1281 3584 2069 3584 
Q 2775 3584 3186 3129 
Q 3597 2675 3597 1894 
z
M 3022 2063 
Q 3016 2534 2758 2815 
Q 2500 3097 2075 3097 
Q 1594 3097 1305 2825 
Q 1016 2553 972 2059 
L 3022 2063 
z
" transform="scale(0.015625)"/>
      </defs>
      <use xlink:href="#DejaVuSans-44"/>
      <use xlink:href="#DejaVuSans-61" transform="translate(77.001953 0)"/>
      <use xlink:href="#DejaVuSans-74" transform="translate(138.28125 0)"/>
      <use xlink:href="#DejaVuSans-65" transform="translate(177.490234 0)"/>
     </g>
    </g>
   </g>
   <g id="matplotlib.axis_2">
    <g id="ytick_1">
     <g id="line2d_15">
      <path d="M 46.965625 458.279219 
L 849.295625 458.279219 
" clip-path="url(#pe2e58da94f)" style="fill: none; stroke: #b0b0b0; stroke-width: 0.8; stroke-linecap: square"/>
     </g>
     <g id="line2d_16">
      <defs>
       <path id="mbb87a0d401" d="M 0 0 
L -3.5 0 
" style="stroke: #000000; stroke-width: 0.8"/>
      </defs>
      <g>
       <use xlink:href="#mbb87a0d401" x="46.965625" y="458.279219" style="stroke: #000000; stroke-width: 0.8"/>
      </g>
     </g>
     <g id="text_9">
      <!-- 0 -->
      <g transform="translate(33.603125 462.078437) scale(0.1 -0.1)">
       <use xlink:href="#DejaVuSans-30"/>
      </g>
     </g>
    </g>
    <g id="ytick_2">
     <g id="line2d_17">
      <path d="M 46.965625 368.823219 
L 849.295625 368.823219 
" clip-path="url(#pe2e58da94f)" style="fill: none; stroke: #b0b0b0; stroke-width: 0.8; stroke-linecap: square"/>
     </g>
     <g id="line2d_18">
      <g>
       <use xlink:href="#mbb87a0d401" x="46.965625" y="368.823219" style="stroke: #000000; stroke-width: 0.8"/>
      </g>
     </g>
     <g id="text_10">
      <!-- 20 -->
      <g transform="translate(27.240625 372.622437) scale(0.1 -0.1)">
       <use xlink:href="#DejaVuSans-32"/>
       <use xlink:href="#DejaVuSans-30" transform="translate(63.623047 0)"/>
      </g>
     </g>
    </g>
    <g id="ytick_3">
     <g id="line2d_19">
      <path d="M 46.965625 279.367219 
L 849.295625 279.367219 
" clip-path="url(#pe2e58da94f)" style="fill: none; stroke: #b0b0b0; stroke-width: 0.8; stroke-linecap: square"/>
     </g>
     <g id="line2d_20">
      <g>
       <use xlink:href="#mbb87a0d401" x="46.965625" y="279.367219" style="stroke: #000000; stroke-width: 0.8"/>
      </g>
     </g>
     <g id="text_11">
      <!-- 40 -->
      <g transform="translate(27.240625 283.166437) scale(0.1 -0.1)">
       <use xlink:href="#DejaVuSans-34"/>
       <use xlink:href="#DejaVuSans-30" transform="translate(63.623047 0)"/>
      </g>
     </g>
    </g>
    <g id="ytick_4">
     <g id="line2d_21">
      <path d="M 46.965625 189.911219 
L 849.295625 189.911219 
" clip-path="url(#pe2e58da94f)" style="fill: none; stroke: #b0b0b0; stroke-width: 0.8; stroke-linecap: square"/>
     </g>
     <g id="line2d_22">
      <g>
       <use xlink:href="#mbb87a0d401" x="46.965625" y="189.911219" style="stroke: #000000; stroke-width: 0.8"/>
      </g>
     </g>
     <g id="text_12">
      <!-- 60 -->
      <g transform="translate(27.240625 193.710438) scale(0.1 -0.1)">
       <use xlink:href="#DejaVuSans-36"/>
       <use xlink:href="#DejaVuSans-30" transform="translate(63.623047 0)"/>
      </g>
     </g>
    </g>
    <g id="ytick_5">
     <g id="line2d_23">
      <path d="M 46.965625 100.455219 
L 849.295625 100.455219 
" clip-path="url(#pe2e58da94f)" style="fill: none; stroke: #b0b0b0; stroke-width: 0.8; stroke-linecap: square"/>
     </g>
     <g id="line2d_24">
      <g>
       <use xlink:href="#mbb87a0d401" x="46.965625" y="100.455219" style="stroke: #000000; stroke-width: 0.8"/>
      </g>
     </g>
     <g id="text_13">
      <!-- 80 -->
      <g transform="translate(27.240625 104.254438) scale(0.1 -0.1)">
       <use xlink:href="#DejaVuSans-38"/>
       <use xlink:href="#DejaVuSans-30" transform="translate(63.623047 0)"/>
      </g>
     </g>
    </g>
    <g id="ytick_6">
     <g id="line2d_25">
      <path d="M 46.965625 10.999219 
L 849.295625 10.999219 
" clip-path="url(#pe2e58da94f)" style="fill: none; stroke: #b0b0b0; stroke-width: 0.8; stroke-linecap: square"/>
     </g>
     <g id="line2d_26">
      <g>
       <use xlink:href="#mbb87a0d401" x="46.965625" y="10.999219" style="stroke: #000000; stroke-width: 0.8"/>
      </g>
     </g>
     <g id="text_14">
      <!-- 100 -->
      <g transform="translate(20.878125 14.798438) scale(0.1 -0.1)">
       <use xlink:href="#DejaVuSans-31"/>
       <use xlink:href="#DejaVuSans-30" transform="translate(63.623047 0)"/>
       <use xlink:href="#DejaVuSans-30" transform="translate(127.246094 0)"/>
      </g>
     </g>
    </g>
    <g id="text_15">
     <!-- Percentage of Rides (%) -->
     <g transform="translate(14.798438 294.719687) rotate(-90) scale(0.1 -0.1)">
      <defs>
       <path id="DejaVuSans-50" d="M 1259 4147 
L 1259 2394 
L 2053 2394 
Q 2494 2394 2734 2622 
Q 2975 2850 2975 3272 
Q 2975 3691 2734 3919 
Q 2494 4147 2053 4147 
L 1259 4147 
z
M 628 4666 
L 2053 4666 
Q 2838 4666 3239 4311 
Q 3641 3956 3641 3272 
Q 3641 2581 3239 2228 
Q 2838 1875 2053 1875 
L 1259 1875 
L 1259 0 
L 628 0 
L 628 4666 
z
" transform="scale(0.015625)"/>
       <path id="DejaVuSans-72" d="M 2631 2963 
Q 2534 3019 2420 3045 
Q 2306 3072 2169 3072 
Q 1681 3072 1420 2755 
Q 1159 2438 1159 1844 
L 1159 0 
L 581 0 
L 581 3500 
L 1159 3500 
L 1159 2956 
Q 1341 3275 1631 3429 
Q 1922 3584 2338 3584 
Q 2397 3584 2469 3576 
Q 2541 3569 2628 3553 
L 2631 2963 
z
" transform="scale(0.015625)"/>
       <path id="DejaVuSans-63" d="M 3122 3366 
L 3122 2828 
Q 2878 2963 2633 3030 
Q 2388 3097 2138 3097 
Q 1578 3097 1268 2742 
Q 959 2388 959 1747 
Q 959 1106 1268 751 
Q 1578 397 2138 397 
Q 2388 397 2633 464 
Q 2878 531 3122 666 
L 3122 134 
Q 2881 22 2623 -34 
Q 2366 -91 2075 -91 
Q 1284 -91 818 406 
Q 353 903 353 1747 
Q 353 2603 823 3093 
Q 1294 3584 2113 3584 
Q 2378 3584 2631 3529 
Q 2884 3475 3122 3366 
z
" transform="scale(0.015625)"/>
       <path id="DejaVuSans-6e" d="M 3513 2113 
L 3513 0 
L 2938 0 
L 2938 2094 
Q 2938 2591 2744 2837 
Q 2550 3084 2163 3084 
Q 1697 3084 1428 2787 
Q 1159 2491 1159 1978 
L 1159 0 
L 581 0 
L 581 3500 
L 1159 3500 
L 1159 2956 
Q 1366 3272 1645 3428 
Q 1925 3584 2291 3584 
Q 2894 3584 3203 3211 
Q 3513 2838 3513 2113 
z
" transform="scale(0.015625)"/>
       <path id="DejaVuSans-67" d="M 2906 1791 
Q 2906 2416 2648 2759 
Q 2391 3103 1925 3103 
Q 1463 3103 1205 2759 
Q 947 2416 947 1791 
Q 947 1169 1205 825 
Q 1463 481 1925 481 
Q 2391 481 2648 825 
Q 2906 1169 2906 1791 
z
M 3481 434 
Q 3481 -459 3084 -895 
Q 2688 -1331 1869 -1331 
Q 1566 -1331 1297 -1286 
Q 1028 -1241 775 -1147 
L 775 -588 
Q 1028 -725 1275 -790 
Q 1522 -856 1778 -856 
Q 2344 -856 2625 -561 
Q 2906 -266 2906 331 
L 2906 616 
Q 2728 306 2450 153 
Q 2172 0 1784 0 
Q 1141 0 747 490 
Q 353 981 353 1791 
Q 353 2603 747 3093 
Q 1141 3584 1784 3584 
Q 2172 3584 2450 3431 
Q 2728 3278 2906 2969 
L 2906 3500 
L 3481 3500 
L 3481 434 
z
" transform="scale(0.015625)"/>
       <path id="DejaVuSans-20" transform="scale(0.015625)"/>
       <path id="DejaVuSans-6f" d="M 1959 3097 
Q 1497 3097 1228 2736 
Q 959 2375 959 1747 
Q 959 1119 1226 758 
Q 1494 397 1959 397 
Q 2419 397 2687 759 
Q 2956 1122 2956 1747 
Q 2956 2369 2687 2733 
Q 2419 3097 1959 3097 
z
M 1959 3584 
Q 2709 3584 3137 3096 
Q 3566 2609 3566 1747 
Q 3566 888 3137 398 
Q 2709 -91 1959 -91 
Q 1206 -91 779 398 
Q 353 888 353 1747 
Q 353 2609 779 3096 
Q 1206 3584 1959 3584 
z
" transform="scale(0.015625)"/>
       <path id="DejaVuSans-66" d="M 2375 4863 
L 2375 4384 
L 1825 4384 
Q 1516 4384 1395 4259 
Q 1275 4134 1275 3809 
L 1275 3500 
L 2222 3500 
L 2222 3053 
L 1275 3053 
L 1275 0 
L 697 0 
L 697 3053 
L 147 3053 
L 147 3500 
L 697 3500 
L 697 3744 
Q 697 4328 969 4595 
Q 1241 4863 1831 4863 
L 2375 4863 
z
" transform="scale(0.015625)"/>
       <path id="DejaVuSans-52" d="M 2841 2188 
Q 3044 2119 3236 1894 
Q 3428 1669 3622 1275 
L 4263 0 
L 3584 0 
L 2988 1197 
Q 2756 1666 2539 1819 
Q 2322 1972 1947 1972 
L 1259 1972 
L 1259 0 
L 628 0 
L 628 4666 
L 2053 4666 
Q 2853 4666 3247 4331 
Q 3641 3997 3641 3322 
Q 3641 2881 3436 2590 
Q 3231 2300 2841 2188 
z
M 1259 4147 
L 1259 2491 
L 2053 2491 
Q 2509 2491 2742 2702 
Q 2975 2913 2975 3322 
Q 2975 3731 2742 3939 
Q 2509 4147 2053 4147 
L 1259 4147 
z
" transform="scale(0.015625)"/>
       <path id="DejaVuSans-69" d="M 603 3500 
L 1178 3500 
L 1178 0 
L 603 0 
L 603 3500 
z
M 603 4863 
L 1178 4863 
L 1178 4134 
L 603 4134 
L 603 4863 
z
" transform="scale(0.015625)"/>
       <path id="DejaVuSans-64" d="M 2906 2969 
L 2906 4863 
L 3481 4863 
L 3481 0 
L 2906 0 
L 2906 525 
Q 2725 213 2448 61 
Q 2172 -91 1784 -91 
Q 1150 -91 751 415 
Q 353 922 353 1747 
Q 353 2572 751 3078 
Q 1150 3584 1784 3584 
Q 2172 3584 2448 3432 
Q 2725 3281 2906 2969 
z
M 947 1747 
Q 947 1113 1208 752 
Q 1469 391 1925 391 
Q 2381 391 2643 752 
Q 2906 1113 2906 1747 
Q 2906 2381 2643 2742 
Q 2381 3103 1925 3103 
Q 1469 3103 1208 2742 
Q 947 2381 947 1747 
z
" transform="scale(0.015625)"/>
       <path id="DejaVuSans-73" d="M 2834 3397 
L 2834 2853 
Q 2591 2978 2328 3040 
Q 2066 3103 1784 3103 
Q 1356 3103 1142 2972 
Q 928 2841 928 2578 
Q 928 2378 1081 2264 
Q 1234 2150 1697 2047 
L 1894 2003 
Q 2506 1872 2764 1633 
Q 3022 1394 3022 966 
Q 3022 478 2636 193 
Q 2250 -91 1575 -91 
Q 1294 -91 989 -36 
Q 684 19 347 128 
L 347 722 
Q 666 556 975 473 
Q 1284 391 1588 391 
Q 1994 391 2212 530 
Q 2431 669 2431 922 
Q 2431 1156 2273 1281 
Q 2116 1406 1581 1522 
L 1381 1569 
Q 847 1681 609 1914 
Q 372 2147 372 2553 
Q 372 3047 722 3315 
Q 1072 3584 1716 3584 
Q 2034 3584 2315 3537 
Q 2597 3491 2834 3397 
z
" transform="scale(0.015625)"/>
       <path id="DejaVuSans-28" d="M 1984 4856 
Q 1566 4138 1362 3434 
Q 1159 2731 1159 2009 
Q 1159 1288 1364 580 
Q 1569 -128 1984 -844 
L 1484 -844 
Q 1016 -109 783 600 
Q 550 1309 550 2009 
Q 550 2706 781 3412 
Q 1013 4119 1484 4856 
L 1984 4856 
z
" transform="scale(0.015625)"/>
       <path id="DejaVuSans-25" d="M 4653 2053 
Q 4381 2053 4226 1822 
Q 4072 1591 4072 1178 
Q 4072 772 4226 539 
Q 4381 306 4653 306 
Q 4919 306 5073 539 
Q 5228 772 5228 1178 
Q 5228 1588 5073 1820 
Q 4919 2053 4653 2053 
z
M 4653 2450 
Q 5147 2450 5437 2106 
Q 5728 1763 5728 1178 
Q 5728 594 5436 251 
Q 5144 -91 4653 -91 
Q 4153 -91 3862 251 
Q 3572 594 3572 1178 
Q 3572 1766 3864 2108 
Q 4156 2450 4653 2450 
z
M 1428 4353 
Q 1159 4353 1004 4120 
Q 850 3888 850 3481 
Q 850 3069 1003 2837 
Q 1156 2606 1428 2606 
Q 1700 2606 1854 2837 
Q 2009 3069 2009 3481 
Q 2009 3884 1853 4118 
Q 1697 4353 1428 4353 
z
M 4250 4750 
L 4750 4750 
L 1831 -91 
L 1331 -91 
L 4250 4750 
z
M 1428 4750 
Q 1922 4750 2215 4408 
Q 2509 4066 2509 3481 
Q 2509 2891 2217 2550 
Q 1925 2209 1428 2209 
Q 931 2209 642 2551 
Q 353 2894 353 3481 
Q 353 4063 643 4406 
Q 934 4750 1428 4750 
z
" transform="scale(0.015625)"/>
       <path id="DejaVuSans-29" d="M 513 4856 
L 1013 4856 
Q 1481 4119 1714 3412 
Q 1947 2706 1947 2009 
Q 1947 1309 1714 600 
Q 1481 -109 1013 -844 
L 513 -844 
Q 928 -128 1133 580 
Q 1338 1288 1338 2009 
Q 1338 2731 1133 3434 
Q 928 4138 513 4856 
z
" transform="scale(0.015625)"/>
      </defs>
      <use xlink:href="#DejaVuSans-50"/>
      <use xlink:href="#DejaVuSans-65" transform="translate(56.677734 0)"/>
      <use xlink:href="#DejaVuSans-72" transform="translate(118.201172 0)"/>
      <use xlink:href="#DejaVuSans-63" transform="translate(157.064453 0)"/>
      <use xlink:href="#DejaVuSans-65" transform="translate(212.044922 0)"/>
      <use xlink:href="#DejaVuSans-6e" transform="translate(273.568359 0)"/>
      <use xlink:href="#DejaVuSans-74" transform="translate(336.947266 0)"/>
      <use xlink:href="#DejaVuSans-61" transform="translate(376.15625 0)"/>
      <use xlink:href="#DejaVuSans-67" transform="translate(437.435547 0)"/>
      <use xlink:href="#DejaVuSans-65" transform="translate(500.912109 0)"/>
      <use xlink:href="#DejaVuSans-20" transform="translate(562.435547 0)"/>
      <use xlink:href="#DejaVuSans-6f" transform="translate(594.222656 0)"/>
      <use xlink:href="#DejaVuSans-66" transform="translate(655.404297 0)"/>
      <use xlink:href="#DejaVuSans-20" transform="translate(690.609375 0)"/>
      <use xlink:href="#DejaVuSans-52" transform="translate(722.396484 0)"/>
      <use xlink:href="#DejaVuSans-69" transform="translate(791.878906 0)"/>
      <use xlink:href="#DejaVuSans-64" transform="translate(819.662109 0)"/>
      <use xlink:href="#DejaVuSans-65" transform="translate(883.138672 0)"/>
      <use xlink:href="#DejaVuSans-73" transform="translate(944.662109 0)"/>
      <use xlink:href="#DejaVuSans-20" transform="translate(996.761719 0)"/>
      <use xlink:href="#DejaVuSans-28" transform="translate(1028.548828 0)"/>
      <use xlink:href="#DejaVuSans-25" transform="translate(1067.5625 0)"/>
      <use xlink:href="#DejaVuSans-29" transform="translate(1162.582031 0)"/>
     </g>
    </g>
   </g>
   <g id="patch_3">
    <path d="M 46.965625 458.279219 
L 46.965625 10.999219 
" style="fill: none; stroke: #000000; stroke-width: 0.8; stroke-linejoin: miter; stroke-linecap: square"/>
   </g>
   <g id="patch_4">
    <path d="M 849.295625 458.279219 
L 849.295625 10.999219 
" style="fill: none; stroke: #000000; stroke-width: 0.8; stroke-linejoin: miter; stroke-linecap: square"/>
   </g>
   <g id="patch_5">
    <path d="M 46.965625 458.279219 
L 849.295625 458.279219 
" style="fill: none; stroke: #000000; stroke-width: 0.8; stroke-linejoin: miter; stroke-linecap: square"/>
   </g>
   <g id="patch_6">
    <path d="M 46.965625 10.999219 
L 849.295625 10.999219 
" style="fill: none; stroke: #000000; stroke-width: 0.8; stroke-linejoin: miter; stroke-linecap: square"/>
   </g>
   <g id="legend_1">
    <g id="patch_7">
     <path d="M 53.965625 77.711719 
L 191.634375 77.711719 
Q 193.634375 77.711719 193.634375 75.711719 
L 193.634375 17.999219 
Q 193.634375 15.999219 191.634375 15.999219 
L 53.965625 15.999219 
Q 51.965625 15.999219 51.965625 17.999219 
L 51.965625 75.711719 
Q 51.965625 77.711719 53.965625 77.711719 
z
" style="fill: #ffffff; opacity: 0.8; stroke: #cccccc; stroke-linejoin: miter"/>
    </g>
    <g id="patch_8">
     <path d="M 55.965625 27.597656 
L 75.965625 27.597656 
L 75.965625 20.597656 
L 55.965625 20.597656 
z
" style="fill: #f1eef6; stroke: #808080; stroke-width: 0.5; stroke-linejoin: miter"/>
    </g>
    <g id="text_16">
     <!-- Yellow Taxi -->
     <g transform="translate(83.965625 27.597656) scale(0.1 -0.1)">
      <defs>
       <path id="DejaVuSans-59" d="M -13 4666 
L 666 4666 
L 1959 2747 
L 3244 4666 
L 3922 4666 
L 2272 2222 
L 2272 0 
L 1638 0 
L 1638 2222 
L -13 4666 
z
" transform="scale(0.015625)"/>
       <path id="DejaVuSans-6c" d="M 603 4863 
L 1178 4863 
L 1178 0 
L 603 0 
L 603 4863 
z
" transform="scale(0.015625)"/>
       <path id="DejaVuSans-77" d="M 269 3500 
L 844 3500 
L 1563 769 
L 2278 3500 
L 2956 3500 
L 3675 769 
L 4391 3500 
L 4966 3500 
L 4050 0 
L 3372 0 
L 2619 2869 
L 1863 0 
L 1184 0 
L 269 3500 
z
" transform="scale(0.015625)"/>
       <path id="DejaVuSans-54" d="M -19 4666 
L 3928 4666 
L 3928 4134 
L 2272 4134 
L 2272 0 
L 1638 0 
L 1638 4134 
L -19 4134 
L -19 4666 
z
" transform="scale(0.015625)"/>
       <path id="DejaVuSans-78" d="M 3513 3500 
L 2247 1797 
L 3578 0 
L 2900 0 
L 1881 1375 
L 863 0 
L 184 0 
L 1544 1831 
L 300 3500 
L 978 3500 
L 1906 2253 
L 2834 3500 
L 3513 3500 
z
" transform="scale(0.015625)"/>
      </defs>
      <use xlink:href="#DejaVuSans-59"/>
      <use xlink:href="#DejaVuSans-65" transform="translate(47.833984 0)"/>
      <use xlink:href="#DejaVuSans-6c" transform="translate(109.357422 0)"/>
      <use xlink:href="#DejaVuSans-6c" transform="translate(137.140625 0)"/>
      <use xlink:href="#DejaVuSans-6f" transform="translate(164.923828 0)"/>
      <use xlink:href="#DejaVuSans-77" transform="translate(226.105469 0)"/>
      <use xlink:href="#DejaVuSans-20" transform="translate(307.892578 0)"/>
      <use xlink:href="#DejaVuSans-54" transform="translate(339.679688 0)"/>
      <use xlink:href="#DejaVuSans-61" transform="translate(384.263672 0)"/>
      <use xlink:href="#DejaVuSans-78" transform="translate(445.542969 0)"/>
      <use xlink:href="#DejaVuSans-69" transform="translate(504.722656 0)"/>
     </g>
    </g>
    <g id="patch_9">
     <path d="M 55.965625 42.275781 
L 75.965625 42.275781 
L 75.965625 35.275781 
L 55.965625 35.275781 
z
" style="fill: #bdc9e1; stroke: #808080; stroke-width: 0.5; stroke-linejoin: miter"/>
    </g>
    <g id="text_17">
     <!-- Green Taxi -->
     <g transform="translate(83.965625 42.275781) scale(0.1 -0.1)">
      <defs>
       <path id="DejaVuSans-47" d="M 3809 666 
L 3809 1919 
L 2778 1919 
L 2778 2438 
L 4434 2438 
L 4434 434 
Q 4069 175 3628 42 
Q 3188 -91 2688 -91 
Q 1594 -91 976 548 
Q 359 1188 359 2328 
Q 359 3472 976 4111 
Q 1594 4750 2688 4750 
Q 3144 4750 3555 4637 
Q 3966 4525 4313 4306 
L 4313 3634 
Q 3963 3931 3569 4081 
Q 3175 4231 2741 4231 
Q 1884 4231 1454 3753 
Q 1025 3275 1025 2328 
Q 1025 1384 1454 906 
Q 1884 428 2741 428 
Q 3075 428 3337 486 
Q 3600 544 3809 666 
z
" transform="scale(0.015625)"/>
      </defs>
      <use xlink:href="#DejaVuSans-47"/>
      <use xlink:href="#DejaVuSans-72" transform="translate(77.490234 0)"/>
      <use xlink:href="#DejaVuSans-65" transform="translate(116.353516 0)"/>
      <use xlink:href="#DejaVuSans-65" transform="translate(177.876953 0)"/>
      <use xlink:href="#DejaVuSans-6e" transform="translate(239.400391 0)"/>
      <use xlink:href="#DejaVuSans-20" transform="translate(302.779297 0)"/>
      <use xlink:href="#DejaVuSans-54" transform="translate(334.566406 0)"/>
      <use xlink:href="#DejaVuSans-61" transform="translate(379.150391 0)"/>
      <use xlink:href="#DejaVuSans-78" transform="translate(440.429688 0)"/>
      <use xlink:href="#DejaVuSans-69" transform="translate(499.609375 0)"/>
     </g>
    </g>
    <g id="patch_10">
     <path d="M 55.965625 56.953906 
L 75.965625 56.953906 
L 75.965625 49.953906 
L 55.965625 49.953906 
z
" style="fill: #74a9cf; stroke: #808080; stroke-width: 0.5; stroke-linejoin: miter"/>
    </g>
    <g id="text_18">
     <!-- For Hire -->
     <g transform="translate(83.965625 56.953906) scale(0.1 -0.1)">
      <defs>
       <path id="DejaVuSans-46" d="M 628 4666 
L 3309 4666 
L 3309 4134 
L 1259 4134 
L 1259 2759 
L 3109 2759 
L 3109 2228 
L 1259 2228 
L 1259 0 
L 628 0 
L 628 4666 
z
" transform="scale(0.015625)"/>
       <path id="DejaVuSans-48" d="M 628 4666 
L 1259 4666 
L 1259 2753 
L 3553 2753 
L 3553 4666 
L 4184 4666 
L 4184 0 
L 3553 0 
L 3553 2222 
L 1259 2222 
L 1259 0 
L 628 0 
L 628 4666 
z
" transform="scale(0.015625)"/>
      </defs>
      <use xlink:href="#DejaVuSans-46"/>
      <use xlink:href="#DejaVuSans-6f" transform="translate(53.894531 0)"/>
      <use xlink:href="#DejaVuSans-72" transform="translate(115.076172 0)"/>
      <use xlink:href="#DejaVuSans-20" transform="translate(156.189453 0)"/>
      <use xlink:href="#DejaVuSans-48" transform="translate(187.976562 0)"/>
      <use xlink:href="#DejaVuSans-69" transform="translate(263.171875 0)"/>
      <use xlink:href="#DejaVuSans-72" transform="translate(290.955078 0)"/>
      <use xlink:href="#DejaVuSans-65" transform="translate(329.818359 0)"/>
     </g>
    </g>
    <g id="patch_11">
     <path d="M 55.965625 71.632031 
L 75.965625 71.632031 
L 75.965625 64.632031 
L 55.965625 64.632031 
z
" style="fill: #0570b0; stroke: #808080; stroke-width: 0.5; stroke-linejoin: miter"/>
    </g>
    <g id="text_19">
     <!-- High Volume For Hire -->
     <g transform="translate(83.965625 71.632031) scale(0.1 -0.1)">
      <defs>
       <path id="DejaVuSans-68" d="M 3513 2113 
L 3513 0 
L 2938 0 
L 2938 2094 
Q 2938 2591 2744 2837 
Q 2550 3084 2163 3084 
Q 1697 3084 1428 2787 
Q 1159 2491 1159 1978 
L 1159 0 
L 581 0 
L 581 4863 
L 1159 4863 
L 1159 2956 
Q 1366 3272 1645 3428 
Q 1925 3584 2291 3584 
Q 2894 3584 3203 3211 
Q 3513 2838 3513 2113 
z
" transform="scale(0.015625)"/>
       <path id="DejaVuSans-56" d="M 1831 0 
L 50 4666 
L 709 4666 
L 2188 738 
L 3669 4666 
L 4325 4666 
L 2547 0 
L 1831 0 
z
" transform="scale(0.015625)"/>
       <path id="DejaVuSans-75" d="M 544 1381 
L 544 3500 
L 1119 3500 
L 1119 1403 
Q 1119 906 1312 657 
Q 1506 409 1894 409 
Q 2359 409 2629 706 
Q 2900 1003 2900 1516 
L 2900 3500 
L 3475 3500 
L 3475 0 
L 2900 0 
L 2900 538 
Q 2691 219 2414 64 
Q 2138 -91 1772 -91 
Q 1169 -91 856 284 
Q 544 659 544 1381 
z
M 1991 3584 
L 1991 3584 
z
" transform="scale(0.015625)"/>
       <path id="DejaVuSans-6d" d="M 3328 2828 
Q 3544 3216 3844 3400 
Q 4144 3584 4550 3584 
Q 5097 3584 5394 3201 
Q 5691 2819 5691 2113 
L 5691 0 
L 5113 0 
L 5113 2094 
Q 5113 2597 4934 2840 
Q 4756 3084 4391 3084 
Q 3944 3084 3684 2787 
Q 3425 2491 3425 1978 
L 3425 0 
L 2847 0 
L 2847 2094 
Q 2847 2600 2669 2842 
Q 2491 3084 2119 3084 
Q 1678 3084 1418 2786 
Q 1159 2488 1159 1978 
L 1159 0 
L 581 0 
L 581 3500 
L 1159 3500 
L 1159 2956 
Q 1356 3278 1631 3431 
Q 1906 3584 2284 3584 
Q 2666 3584 2933 3390 
Q 3200 3197 3328 2828 
z
" transform="scale(0.015625)"/>
      </defs>
      <use xlink:href="#DejaVuSans-48"/>
      <use xlink:href="#DejaVuSans-69" transform="translate(75.195312 0)"/>
      <use xlink:href="#DejaVuSans-67" transform="translate(102.978516 0)"/>
      <use xlink:href="#DejaVuSans-68" transform="translate(166.455078 0)"/>
      <use xlink:href="#DejaVuSans-20" transform="translate(229.833984 0)"/>
      <use xlink:href="#DejaVuSans-56" transform="translate(261.621094 0)"/>
      <use xlink:href="#DejaVuSans-6f" transform="translate(322.279297 0)"/>
      <use xlink:href="#DejaVuSans-6c" transform="translate(383.460938 0)"/>
      <use xlink:href="#DejaVuSans-75" transform="translate(411.244141 0)"/>
      <use xlink:href="#DejaVuSans-6d" transform="translate(474.623047 0)"/>
      <use xlink:href="#DejaVuSans-65" transform="translate(572.035156 0)"/>
      <use xlink:href="#DejaVuSans-20" transform="translate(633.558594 0)"/>
      <use xlink:href="#DejaVuSans-46" transform="translate(665.345703 0)"/>
      <use xlink:href="#DejaVuSans-6f" transform="translate(719.240234 0)"/>
      <use xlink:href="#DejaVuSans-72" transform="translate(780.421875 0)"/>
      <use xlink:href="#DejaVuSans-20" transform="translate(821.535156 0)"/>
      <use xlink:href="#DejaVuSans-48" transform="translate(853.322266 0)"/>
      <use xlink:href="#DejaVuSans-69" transform="translate(928.517578 0)"/>
      <use xlink:href="#DejaVuSans-72" transform="translate(956.300781 0)"/>
      <use xlink:href="#DejaVuSans-65" transform="translate(995.164062 0)"/>
     </g>
    </g>
   </g>
  </g>
 </g>
 <defs>
  <clipPath id="pe2e58da94f">
   <rect x="46.965625" y="10.999219" width="802.33" height="447.28"/>
  </clipPath>
 </defs>
</svg>
