<?xml version="1.0" encoding="utf-8" standalone="no"?>
<!DOCTYPE svg PUBLIC "-//W3C//DTD SVG 1.1//EN"
  "http://www.w3.org/Graphics/SVG/1.1/DTD/svg11.dtd">
<svg xmlns:xlink="http://www.w3.org/1999/xlink" width="856.46125pt" height="495.674688pt" viewBox="0 0 856.46125 495.674688" xmlns="http://www.w3.org/2000/svg" version="1.1">
 <metadata>
  <rdf:RDF xmlns:dc="http://purl.org/dc/elements/1.1/" xmlns:cc="http://creativecommons.org/ns#" xmlns:rdf="http://www.w3.org/1999/02/22-rdf-syntax-ns#">
   <cc:Work>
    <dc:type rdf:resource="http://purl.org/dc/dcmitype/StillImage"/>
    <dc:date>2025-06-22T09:31:01.026567</dc:date>
    <dc:format>image/svg+xml</dc:format>
    <dc:creator>
     <cc:Agent>
      <dc:title>Matplotlib v3.10.1, https://matplotlib.org/</dc:title>
     </cc:Agent>
    </dc:creator>
   </cc:Work>
  </rdf:RDF>
 </metadata>
 <defs>
  <style type="text/css">*{stroke-linejoin: round; stroke-linecap: butt}</style>
 </defs>
 <g id="figure_1">
  <g id="patch_1">
   <path d="M 0 495.674688 
L 856.46125 495.674688 
L 856.46125 0 
L 0 0 
z
" style="fill: #ffffff"/>
  </g>
  <g id="axes_1">
   <g id="patch_2">
    <path d="M 43.78125 458.118438 
L 849.26125 458.118438 
L 849.26125 17.798437 
L 43.78125 17.798437 
z
" style="fill: #ffffff"/>
   </g>
   <g id="FillBetweenPolyCollection_1">
    <defs>
     <path id="m562edf5d72" d="M 80.393977 -196.531985 
L 80.393977 -37.55625 
L 85.205315 -37.55625 
L 89.706244 -37.55625 
L 94.517581 -37.55625 
L 99.173714 -37.55625 
L 103.985052 -37.55625 
L 108.641185 -37.55625 
L 113.452523 -37.55625 
L 118.263861 -37.55625 
L 122.919994 -37.55625 
L 127.731331 -37.55625 
L 132.387464 -37.55625 
L 137.198802 -37.55625 
L 142.01014 -37.55625 
L 146.355864 -37.55625 
L 151.167202 -37.55625 
L 155.823335 -37.55625 
L 160.634672 -37.55625 
L 165.290806 -37.55625 
L 170.102143 -37.55625 
L 174.913481 -37.55625 
L 179.569614 -37.55625 
L 184.380952 -37.55625 
L 189.037085 -37.55625 
L 193.848423 -37.55625 
L 198.65976 -37.55625 
L 203.005484 -37.55625 
L 207.816822 -37.55625 
L 212.472955 -37.55625 
L 217.284293 -37.55625 
L 221.940426 -37.55625 
L 226.751764 -37.55625 
L 231.563101 -37.55625 
L 236.219235 -37.55625 
L 241.030572 -37.55625 
L 245.686705 -37.55625 
L 250.498043 -37.55625 
L 255.309381 -37.55625 
L 259.655105 -37.55625 
L 264.466442 -37.55625 
L 269.122576 -37.55625 
L 273.933913 -37.55625 
L 278.590046 -37.55625 
L 283.401384 -37.55625 
L 288.212722 -37.55625 
L 292.868855 -37.55625 
L 297.680193 -37.55625 
L 302.336326 -37.55625 
L 307.147663 -37.55625 
L 311.959001 -37.55625 
L 316.45993 -37.55625 
L 321.271267 -37.55625 
L 325.927401 -37.55625 
L 330.738738 -37.55625 
L 335.394871 -37.55625 
L 340.206209 -37.55625 
L 345.017547 -37.55625 
L 349.67368 -37.55625 
L 354.485017 -37.55625 
L 359.141151 -37.55625 
L 363.952488 -37.55625 
L 368.763826 -37.55625 
L 373.10955 -37.55625 
L 377.920888 -37.55625 
L 382.577021 -37.55625 
L 387.388359 -37.55625 
L 392.044492 -37.55625 
L 396.855829 -37.55625 
L 401.667167 -37.55625 
L 406.3233 -37.55625 
L 411.134638 -37.55625 
L 415.790771 -37.55625 
L 420.602109 -37.55625 
L 425.413446 -37.55625 
L 429.759171 -37.55625 
L 434.570508 -37.55625 
L 439.226641 -37.55625 
L 444.037979 -37.55625 
L 448.694112 -37.55625 
L 453.50545 -37.55625 
L 458.316787 -37.55625 
L 462.972921 -37.55625 
L 467.784258 -37.55625 
L 472.440391 -37.55625 
L 477.251729 -37.55625 
L 482.063067 -37.55625 
L 486.408791 -37.55625 
L 491.220129 -37.55625 
L 495.876262 -37.55625 
L 500.687599 -37.55625 
L 505.343733 -37.55625 
L 510.15507 -37.55625 
L 514.966408 -37.55625 
L 519.622541 -37.55625 
L 524.433879 -37.55625 
L 529.090012 -37.55625 
L 533.901349 -37.55625 
L 538.712687 -37.55625 
L 543.213616 -37.55625 
L 548.024953 -37.55625 
L 552.681087 -37.55625 
L 557.492424 -37.55625 
L 562.148557 -37.55625 
L 566.959895 -37.55625 
L 571.771233 -37.55625 
L 576.427366 -37.55625 
L 581.238703 -37.55625 
L 585.894837 -37.55625 
L 590.706174 -37.55625 
L 595.517512 -37.55625 
L 599.863236 -37.55625 
L 604.674574 -37.55625 
L 609.330707 -37.55625 
L 614.142045 -37.55625 
L 618.798178 -37.55625 
L 623.609515 -37.55625 
L 628.420853 -37.55625 
L 633.076986 -37.55625 
L 637.888324 -37.55625 
L 642.544457 -37.55625 
L 647.355795 -37.55625 
L 652.167132 -37.55625 
L 656.512857 -37.55625 
L 661.324194 -37.55625 
L 665.980327 -37.55625 
L 670.791665 -37.55625 
L 675.447798 -37.55625 
L 680.259136 -37.55625 
L 685.070473 -37.55625 
L 689.726607 -37.55625 
L 694.537944 -37.55625 
L 699.194077 -37.55625 
L 704.005415 -37.55625 
L 708.816753 -37.55625 
L 713.162477 -37.55625 
L 717.973815 -37.55625 
L 722.629948 -37.55625 
L 727.441285 -37.55625 
L 732.097419 -37.55625 
L 736.908756 -37.55625 
L 741.720094 -37.55625 
L 746.376227 -37.55625 
L 751.187565 -37.55625 
L 755.843698 -37.55625 
L 760.655036 -37.55625 
L 765.466373 -37.55625 
L 769.967302 -37.55625 
L 774.778639 -37.55625 
L 779.434773 -37.55625 
L 784.24611 -37.55625 
L 788.902243 -37.55625 
L 793.713581 -37.55625 
L 798.524919 -37.55625 
L 803.181052 -37.55625 
L 807.99239 -37.55625 
L 812.648523 -37.55625 
L 812.648523 -81.184307 
L 812.648523 -81.184307 
L 807.99239 -81.09872 
L 803.181052 -83.161148 
L 798.524919 -80.753459 
L 793.713581 -73.092892 
L 788.902243 -74.390276 
L 784.24611 -79.989366 
L 779.434773 -82.296376 
L 774.778639 -79.766914 
L 769.967302 -80.079879 
L 765.466373 -73.420999 
L 760.655036 -73.051255 
L 755.843698 -77.84534 
L 751.187565 -77.092724 
L 746.376227 -79.081281 
L 741.720094 -71.101573 
L 736.908756 -71.280949 
L 732.097419 -72.391317 
L 727.441285 -77.288718 
L 722.629948 -79.806938 
L 717.973815 -77.123771 
L 713.162477 -78.453989 
L 708.816753 -72.617806 
L 704.005415 -74.418922 
L 699.194077 -78.238852 
L 694.537944 -76.604422 
L 689.726607 -81.56958 
L 685.070473 -75.762344 
L 680.259136 -75.359066 
L 675.447798 -75.64446 
L 670.791665 -80.283675 
L 665.980327 -80.695042 
L 661.324194 -80.930085 
L 656.512857 -81.239286 
L 652.167132 -73.44188 
L 647.355795 -67.193455 
L 642.544457 -76.206546 
L 637.888324 -79.351871 
L 633.076986 -79.180734 
L 628.420853 -72.929421 
L 623.609515 -70.936988 
L 618.798178 -71.41625 
L 614.142045 -71.597815 
L 609.330707 -67.720318 
L 604.674574 -63.636037 
L 599.863236 -60.640655 
L 595.517512 -53.986051 
L 590.706174 -53.951578 
L 585.894837 -55.109972 
L 581.238703 -55.678497 
L 576.427366 -57.717468 
L 571.771233 -53.576371 
L 566.959895 -49.4842 
L 562.148557 -46.970644 
L 557.492424 -44.019399 
L 552.681087 -41.648296 
L 548.024953 -40.357852 
L 543.213616 -73.849359 
L 538.712687 -113.805978 
L 533.901349 -115.129307 
L 529.090012 -121.080747 
L 524.433879 -120.799379 
L 519.622541 -124.976262 
L 514.966408 -117.115763 
L 510.15507 -111.087613 
L 505.343733 -114.013025 
L 500.687599 -122.187726 
L 495.876262 -129.921189 
L 491.220129 -128.559875 
L 486.408791 -133.36815 
L 482.063067 -123.488023 
L 477.251729 -131.565847 
L 472.440391 -137.731036 
L 467.784258 -137.361105 
L 462.972921 -145.795893 
L 458.316787 -136.504973 
L 453.50545 -134.194199 
L 448.694112 -134.167942 
L 444.037979 -144.820452 
L 439.226641 -151.196764 
L 434.570508 -152.225158 
L 429.759171 -153.770963 
L 425.413446 -142.337566 
L 420.602109 -145.617642 
L 415.790771 -154.913064 
L 411.134638 -152.186222 
L 406.3233 -158.369904 
L 401.667167 -148.404377 
L 396.855829 -142.073591 
L 392.044492 -144.13238 
L 387.388359 -157.424433 
L 382.577021 -162.968657 
L 377.920888 -162.261279 
L 373.10955 -165.380572 
L 368.763826 -151.425029 
L 363.952488 -158.17436 
L 359.141151 -167.293182 
L 354.485017 -163.00753 
L 349.67368 -172.382263 
L 345.017547 -163.18867 
L 340.206209 -161.047732 
L 335.394871 -165.413406 
L 330.738738 -175.83345 
L 325.927401 -184.565761 
L 321.271267 -185.705837 
L 316.45993 -189.241524 
L 311.959001 -178.930749 
L 307.147663 -173.049503 
L 302.336326 -179.824829 
L 297.680193 -177.962422 
L 292.868855 -190.426225 
L 288.212722 -176.866258 
L 283.401384 -175.714766 
L 278.590046 -181.13029 
L 273.933913 -190.619918 
L 269.122576 -200.944122 
L 264.466442 -199.780464 
L 259.655105 -203.198617 
L 255.309381 -192.066795 
L 250.498043 -195.794424 
L 245.686705 -200.389763 
L 241.030572 -202.825198 
L 236.219235 -215.407785 
L 231.563101 -204.311923 
L 226.751764 -195.287604 
L 221.940426 -200.29096 
L 217.284293 -209.0813 
L 212.472955 -221.071381 
L 207.816822 -219.249772 
L 203.005484 -229.287681 
L 198.65976 -199.873015 
L 193.848423 -208.784478 
L 189.037085 -211.054452 
L 184.380952 -216.317908 
L 179.569614 -223.974061 
L 174.913481 -212.796526 
L 170.102143 -181.530605 
L 165.290806 -209.27253 
L 160.634672 -216.089605 
L 155.823335 -226.553999 
L 151.167202 -219.234005 
L 146.355864 -233.213017 
L 142.01014 -211.429922 
L 137.198802 -221.146952 
L 132.387464 -220.053902 
L 127.731331 -208.631196 
L 122.919994 -217.992112 
L 118.263861 -218.291235 
L 113.452523 -216.124965 
L 108.641185 -216.13982 
L 103.985052 -225.025099 
L 99.173714 -210.967752 
L 94.517581 -200.306252 
L 89.706244 -234.086879 
L 85.205315 -200.160623 
L 80.393977 -196.531985 
z
" style="stroke: #808080; stroke-width: 0.5"/>
    </defs>
    <g clip-path="url(#peda94f5ff7)">
     <use xlink:href="#m562edf5d72" x="0" y="495.674688" style="fill: #f1eef6; stroke: #808080; stroke-width: 0.5"/>
    </g>
   </g>
   <g id="FillBetweenPolyCollection_2">
    <defs>
     <path id="m3865509639" d="M 80.393977 -196.531985 
L 80.393977 -196.531985 
L 85.205315 -200.160623 
L 89.706244 -234.086879 
L 94.517581 -200.306252 
L 99.173714 -210.967752 
L 103.985052 -225.025099 
L 108.641185 -216.13982 
L 113.452523 -216.124965 
L 118.263861 -218.291235 
L 122.919994 -217.992112 
L 127.731331 -208.631196 
L 132.387464 -220.053902 
L 137.198802 -221.146952 
L 142.01014 -211.429922 
L 146.355864 -233.213017 
L 151.167202 -219.234005 
L 155.823335 -226.553999 
L 160.634672 -216.089605 
L 165.290806 -209.27253 
L 170.102143 -181.530605 
L 174.913481 -212.796526 
L 179.569614 -223.974061 
L 184.380952 -216.317908 
L 189.037085 -211.054452 
L 193.848423 -208.784478 
L 198.65976 -199.873015 
L 203.005484 -229.287681 
L 207.816822 -219.249772 
L 212.472955 -221.071381 
L 217.284293 -209.0813 
L 221.940426 -200.29096 
L 226.751764 -195.287604 
L 231.563101 -204.311923 
L 236.219235 -215.407785 
L 241.030572 -202.825198 
L 245.686705 -200.389763 
L 250.498043 -195.794424 
L 255.309381 -192.066795 
L 259.655105 -203.198617 
L 264.466442 -199.780464 
L 269.122576 -200.944122 
L 273.933913 -190.619918 
L 278.590046 -181.13029 
L 283.401384 -175.714766 
L 288.212722 -176.866258 
L 292.868855 -190.426225 
L 297.680193 -177.962422 
L 302.336326 -179.824829 
L 307.147663 -173.049503 
L 311.959001 -178.930749 
L 316.45993 -189.241524 
L 321.271267 -185.705837 
L 325.927401 -184.565761 
L 330.738738 -175.83345 
L 335.394871 -165.413406 
L 340.206209 -161.047732 
L 345.017547 -163.18867 
L 349.67368 -172.382263 
L 354.485017 -163.00753 
L 359.141151 -167.293182 
L 363.952488 -158.17436 
L 368.763826 -151.425029 
L 373.10955 -165.380572 
L 377.920888 -162.261279 
L 382.577021 -162.968657 
L 387.388359 -157.424433 
L 392.044492 -144.13238 
L 396.855829 -142.073591 
L 401.667167 -148.404377 
L 406.3233 -158.369904 
L 411.134638 -152.186222 
L 415.790771 -154.913064 
L 420.602109 -145.617642 
L 425.413446 -142.337566 
L 429.759171 -153.770963 
L 434.570508 -152.225158 
L 439.226641 -151.196764 
L 444.037979 -144.820452 
L 448.694112 -134.167942 
L 453.50545 -134.194199 
L 458.316787 -136.504973 
L 462.972921 -145.795893 
L 467.784258 -137.361105 
L 472.440391 -137.731036 
L 477.251729 -131.565847 
L 482.063067 -123.488023 
L 486.408791 -133.36815 
L 491.220129 -128.559875 
L 495.876262 -129.921189 
L 500.687599 -122.187726 
L 505.343733 -114.013025 
L 510.15507 -111.087613 
L 514.966408 -117.115763 
L 519.622541 -124.976262 
L 524.433879 -120.799379 
L 529.090012 -121.080747 
L 533.901349 -115.129307 
L 538.712687 -113.805978 
L 543.213616 -73.849359 
L 548.024953 -40.357852 
L 552.681087 -41.648296 
L 557.492424 -44.019399 
L 562.148557 -46.970644 
L 566.959895 -49.4842 
L 571.771233 -53.576371 
L 576.427366 -57.717468 
L 581.238703 -55.678497 
L 585.894837 -55.109972 
L 590.706174 -53.951578 
L 595.517512 -53.986051 
L 599.863236 -60.640655 
L 604.674574 -63.636037 
L 609.330707 -67.720318 
L 614.142045 -71.597815 
L 618.798178 -71.41625 
L 623.609515 -70.936988 
L 628.420853 -72.929421 
L 633.076986 -79.180734 
L 637.888324 -79.351871 
L 642.544457 -76.206546 
L 647.355795 -67.193455 
L 652.167132 -73.44188 
L 656.512857 -81.239286 
L 661.324194 -80.930085 
L 665.980327 -80.695042 
L 670.791665 -80.283675 
L 675.447798 -75.64446 
L 680.259136 -75.359066 
L 685.070473 -75.762344 
L 689.726607 -81.56958 
L 694.537944 -76.604422 
L 699.194077 -78.238852 
L 704.005415 -74.418922 
L 708.816753 -72.617806 
L 713.162477 -78.453989 
L 717.973815 -77.123771 
L 722.629948 -79.806938 
L 727.441285 -77.288718 
L 732.097419 -72.391317 
L 736.908756 -71.280949 
L 741.720094 -71.101573 
L 746.376227 -79.081281 
L 751.187565 -77.092724 
L 755.843698 -77.84534 
L 760.655036 -73.051255 
L 765.466373 -73.420999 
L 769.967302 -80.079879 
L 774.778639 -79.766914 
L 779.434773 -82.296376 
L 784.24611 -79.989366 
L 788.902243 -74.390276 
L 793.713581 -73.092892 
L 798.524919 -80.753459 
L 803.181052 -83.161148 
L 807.99239 -81.09872 
L 812.648523 -81.184307 
L 812.648523 -81.811324 
L 812.648523 -81.811324 
L 807.99239 -81.707607 
L 803.181052 -83.821862 
L 798.524919 -81.390154 
L 793.713581 -73.698366 
L 788.902243 -74.993136 
L 784.24611 -80.631849 
L 779.434773 -83.011643 
L 774.778639 -80.426141 
L 769.967302 -80.751921 
L 765.466373 -74.047165 
L 760.655036 -73.714183 
L 755.843698 -78.59948 
L 751.187565 -77.843051 
L 746.376227 -79.852989 
L 741.720094 -71.86828 
L 736.908756 -71.988776 
L 732.097419 -73.110122 
L 727.441285 -78.058651 
L 722.629948 -80.619258 
L 717.973815 -77.893128 
L 713.162477 -79.304094 
L 708.816753 -73.385351 
L 704.005415 -75.224265 
L 699.194077 -79.087483 
L 694.537944 -77.336381 
L 689.726607 -82.379499 
L 685.070473 -76.564148 
L 680.259136 -76.121471 
L 675.447798 -76.387723 
L 670.791665 -81.13967 
L 665.980327 -81.592799 
L 661.324194 -81.825966 
L 656.512857 -82.159311 
L 652.167132 -74.256563 
L 647.355795 -67.925289 
L 642.544457 -77.398462 
L 637.888324 -80.649554 
L 633.076986 -80.504375 
L 628.420853 -74.070322 
L 623.609515 -71.935311 
L 618.798178 -72.41271 
L 614.142045 -72.631535 
L 609.330707 -68.765629 
L 604.674574 -64.672846 
L 599.863236 -61.651719 
L 595.517512 -54.765561 
L 590.706174 -54.872492 
L 585.894837 -56.114285 
L 581.238703 -56.741627 
L 576.427366 -58.85198 
L 571.771233 -54.624196 
L 566.959895 -50.441487 
L 562.148557 -47.819199 
L 557.492424 -44.766838 
L 552.681087 -42.330679 
L 548.024953 -40.778272 
L 543.213616 -76.529538 
L 538.712687 -118.60145 
L 533.901349 -120.486577 
L 529.090012 -126.534783 
L 524.433879 -126.027863 
L 519.622541 -130.73556 
L 514.966408 -122.528286 
L 510.15507 -116.499311 
L 505.343733 -119.714831 
L 500.687599 -128.367407 
L 495.876262 -136.587209 
L 491.220129 -135.502311 
L 486.408791 -141.2298 
L 482.063067 -131.010501 
L 477.251729 -139.78241 
L 472.440391 -146.548459 
L 467.784258 -145.636085 
L 462.972921 -154.797882 
L 458.316787 -144.900812 
L 453.50545 -142.504652 
L 448.694112 -142.581211 
L 444.037979 -153.899062 
L 439.226641 -160.979525 
L 434.570508 -162.060334 
L 429.759171 -164.064408 
L 425.413446 -151.815941 
L 420.602109 -155.373671 
L 415.790771 -166.068856 
L 411.134638 -162.952502 
L 406.3233 -169.777455 
L 401.667167 -159.280014 
L 396.855829 -152.754972 
L 392.044492 -155.389801 
L 387.388359 -169.441921 
L 382.577021 -176.013552 
L 377.920888 -175.570212 
L 373.10955 -179.632712 
L 368.763826 -163.994738 
L 363.952488 -171.333037 
L 359.141151 -182.347501 
L 354.485017 -177.117392 
L 349.67368 -187.790721 
L 345.017547 -177.46823 
L 340.206209 -176.35865 
L 335.394871 -181.766623 
L 330.738738 -193.091138 
L 325.927401 -203.461305 
L 321.271267 -204.680253 
L 316.45993 -208.619268 
L 311.959001 -197.509052 
L 307.147663 -190.79353 
L 302.336326 -199.580544 
L 297.680193 -196.753135 
L 292.868855 -210.46152 
L 288.212722 -195.227399 
L 283.401384 -194.543228 
L 278.590046 -200.064645 
L 273.933913 -210.742275 
L 269.122576 -222.868182 
L 264.466442 -220.194892 
L 259.655105 -224.323911 
L 255.309381 -211.400163 
L 250.498043 -214.292078 
L 245.686705 -220.569174 
L 241.030572 -221.827422 
L 236.219235 -233.72934 
L 231.563101 -221.056289 
L 226.751764 -211.804742 
L 221.940426 -215.951878 
L 217.284293 -225.532819 
L 212.472955 -238.549581 
L 207.816822 -235.31228 
L 203.005484 -245.126088 
L 198.65976 -212.141188 
L 193.848423 -218.543682 
L 189.037085 -211.054452 
L 184.380952 -216.317908 
L 179.569614 -223.974061 
L 174.913481 -212.796526 
L 170.102143 -181.530605 
L 165.290806 -209.27253 
L 160.634672 -216.089605 
L 155.823335 -226.553999 
L 151.167202 -219.234005 
L 146.355864 -233.213017 
L 142.01014 -211.429922 
L 137.198802 -221.146952 
L 132.387464 -220.053902 
L 127.731331 -208.631196 
L 122.919994 -217.992112 
L 118.263861 -218.291235 
L 113.452523 -216.124965 
L 108.641185 -216.13982 
L 103.985052 -225.025099 
L 99.173714 -210.967752 
L 94.517581 -200.306252 
L 89.706244 -234.086879 
L 85.205315 -200.160623 
L 80.393977 -196.531985 
z
" style="stroke: #808080; stroke-width: 0.5"/>
    </defs>
    <g clip-path="url(#peda94f5ff7)">
     <use xlink:href="#m3865509639" x="0" y="495.674688" style="fill: #bdc9e1; stroke: #808080; stroke-width: 0.5"/>
    </g>
   </g>
   <g id="FillBetweenPolyCollection_3">
    <defs>
     <path id="maacb4ed081" d="M 80.393977 -196.531985 
L 80.393977 -196.531985 
L 85.205315 -200.160623 
L 89.706244 -234.086879 
L 94.517581 -200.306252 
L 99.173714 -210.967752 
L 103.985052 -225.025099 
L 108.641185 -216.13982 
L 113.452523 -216.124965 
L 118.263861 -218.291235 
L 122.919994 -217.992112 
L 127.731331 -208.631196 
L 132.387464 -220.053902 
L 137.198802 -221.146952 
L 142.01014 -211.429922 
L 146.355864 -233.213017 
L 151.167202 -219.234005 
L 155.823335 -226.553999 
L 160.634672 -216.089605 
L 165.290806 -209.27253 
L 170.102143 -181.530605 
L 174.913481 -212.796526 
L 179.569614 -223.974061 
L 184.380952 -216.317908 
L 189.037085 -211.054452 
L 193.848423 -218.543682 
L 198.65976 -212.141188 
L 203.005484 -245.126088 
L 207.816822 -235.31228 
L 212.472955 -238.549581 
L 217.284293 -225.532819 
L 221.940426 -215.951878 
L 226.751764 -211.804742 
L 231.563101 -221.056289 
L 236.219235 -233.72934 
L 241.030572 -221.827422 
L 245.686705 -220.569174 
L 250.498043 -214.292078 
L 255.309381 -211.400163 
L 259.655105 -224.323911 
L 264.466442 -220.194892 
L 269.122576 -222.868182 
L 273.933913 -210.742275 
L 278.590046 -200.064645 
L 283.401384 -194.543228 
L 288.212722 -195.227399 
L 292.868855 -210.46152 
L 297.680193 -196.753135 
L 302.336326 -199.580544 
L 307.147663 -190.79353 
L 311.959001 -197.509052 
L 316.45993 -208.619268 
L 321.271267 -204.680253 
L 325.927401 -203.461305 
L 330.738738 -193.091138 
L 335.394871 -181.766623 
L 340.206209 -176.35865 
L 345.017547 -177.46823 
L 349.67368 -187.790721 
L 354.485017 -177.117392 
L 359.141151 -182.347501 
L 363.952488 -171.333037 
L 368.763826 -163.994738 
L 373.10955 -179.632712 
L 377.920888 -175.570212 
L 382.577021 -176.013552 
L 387.388359 -169.441921 
L 392.044492 -155.389801 
L 396.855829 -152.754972 
L 401.667167 -159.280014 
L 406.3233 -169.777455 
L 411.134638 -162.952502 
L 415.790771 -166.068856 
L 420.602109 -155.373671 
L 425.413446 -151.815941 
L 429.759171 -164.064408 
L 434.570508 -162.060334 
L 439.226641 -160.979525 
L 444.037979 -153.899062 
L 448.694112 -142.581211 
L 453.50545 -142.504652 
L 458.316787 -144.900812 
L 462.972921 -154.797882 
L 467.784258 -145.636085 
L 472.440391 -146.548459 
L 477.251729 -139.78241 
L 482.063067 -131.010501 
L 486.408791 -141.2298 
L 491.220129 -135.502311 
L 495.876262 -136.587209 
L 500.687599 -128.367407 
L 505.343733 -119.714831 
L 510.15507 -116.499311 
L 514.966408 -122.528286 
L 519.622541 -130.73556 
L 524.433879 -126.027863 
L 529.090012 -126.534783 
L 533.901349 -120.486577 
L 538.712687 -118.60145 
L 543.213616 -76.529538 
L 548.024953 -40.778272 
L 552.681087 -42.330679 
L 557.492424 -44.766838 
L 562.148557 -47.819199 
L 566.959895 -50.441487 
L 571.771233 -54.624196 
L 576.427366 -58.85198 
L 581.238703 -56.741627 
L 585.894837 -56.114285 
L 590.706174 -54.872492 
L 595.517512 -54.765561 
L 599.863236 -61.651719 
L 604.674574 -64.672846 
L 609.330707 -68.765629 
L 614.142045 -72.631535 
L 618.798178 -72.41271 
L 623.609515 -71.935311 
L 628.420853 -74.070322 
L 633.076986 -80.504375 
L 637.888324 -80.649554 
L 642.544457 -77.398462 
L 647.355795 -67.925289 
L 652.167132 -74.256563 
L 656.512857 -82.159311 
L 661.324194 -81.825966 
L 665.980327 -81.592799 
L 670.791665 -81.13967 
L 675.447798 -76.387723 
L 680.259136 -76.121471 
L 685.070473 -76.564148 
L 689.726607 -82.379499 
L 694.537944 -77.336381 
L 699.194077 -79.087483 
L 704.005415 -75.224265 
L 708.816753 -73.385351 
L 713.162477 -79.304094 
L 717.973815 -77.893128 
L 722.629948 -80.619258 
L 727.441285 -78.058651 
L 732.097419 -73.110122 
L 736.908756 -71.988776 
L 741.720094 -71.86828 
L 746.376227 -79.852989 
L 751.187565 -77.843051 
L 755.843698 -78.59948 
L 760.655036 -73.714183 
L 765.466373 -74.047165 
L 769.967302 -80.751921 
L 774.778639 -80.426141 
L 779.434773 -83.011643 
L 784.24611 -80.631849 
L 788.902243 -74.993136 
L 793.713581 -73.698366 
L 798.524919 -81.390154 
L 803.181052 -83.821862 
L 807.99239 -81.707607 
L 812.648523 -81.811324 
L 812.648523 -105.733169 
L 812.648523 -105.733169 
L 807.99239 -101.601824 
L 803.181052 -101.592334 
L 798.524919 -102.875989 
L 793.713581 -92.259564 
L 788.902243 -92.28232 
L 784.24611 -97.968547 
L 779.434773 -99.922756 
L 774.778639 -98.489134 
L 769.967302 -99.124078 
L 765.466373 -88.752535 
L 760.655036 -89.845248 
L 755.843698 -95.813756 
L 751.187565 -94.645934 
L 746.376227 -100.21429 
L 741.720094 -88.039194 
L 736.908756 -89.998329 
L 732.097419 -90.250564 
L 727.441285 -93.306076 
L 722.629948 -97.947041 
L 717.973815 -93.478575 
L 713.162477 -95.911871 
L 708.816753 -87.274287 
L 704.005415 -89.157251 
L 699.194077 -95.160119 
L 694.537944 -91.166388 
L 689.726607 -97.071053 
L 685.070473 -91.074462 
L 680.259136 -90.515027 
L 675.447798 -90.886608 
L 670.791665 -96.086621 
L 665.980327 -97.295142 
L 661.324194 -97.413788 
L 656.512857 -99.424451 
L 652.167132 -89.90484 
L 647.355795 -82.225518 
L 642.544457 -94.152918 
L 637.888324 -96.015976 
L 633.076986 -96.476358 
L 628.420853 -88.817191 
L 623.609515 -86.97734 
L 618.798178 -87.917321 
L 614.142045 -89.028052 
L 609.330707 -84.5659 
L 604.674574 -80.515103 
L 599.863236 -77.939692 
L 595.517512 -67.740423 
L 590.706174 -69.303021 
L 585.894837 -70.676013 
L 581.238703 -71.825392 
L 576.427366 -74.540644 
L 571.771233 -70.516693 
L 566.959895 -65.246172 
L 562.148557 -61.916845 
L 557.492424 -57.418795 
L 552.681087 -52.020576 
L 548.024953 -47.860623 
L 543.213616 -94.557996 
L 538.712687 -142.526983 
L 533.901349 -145.851172 
L 529.090012 -152.094546 
L 524.433879 -149.528174 
L 519.622541 -154.465549 
L 514.966408 -138.139253 
L 510.15507 -140.010226 
L 505.343733 -144.069149 
L 500.687599 -153.498347 
L 495.876262 -162.507887 
L 491.220129 -159.732368 
L 486.408791 -159.679691 
L 482.063067 -152.362235 
L 477.251729 -429.35356 
L 472.440391 -445.434998 
L 467.784258 -432.111549 
L 462.972921 -446.003286 
L 458.316787 -421.87677 
L 453.50545 -419.091186 
L 448.694112 -412.654907 
L 444.037979 -418.199068 
L 439.226641 -430.628574 
L 434.570508 -425.2559 
L 429.759171 -438.958933 
L 425.413446 -393.768829 
L 420.602109 -403.04572 
L 415.790771 -416.005578 
L 411.134638 -388.689663 
L 406.3233 -393.504678 
L 401.667167 -367.108051 
L 396.855829 -351.640175 
L 392.044492 -351.354293 
L 387.388359 -361.560901 
L 382.577021 -368.536047 
L 377.920888 -360.18482 
L 373.10955 -375.977613 
L 368.763826 -330.104263 
L 363.952488 -342.101121 
L 359.141151 -355.63158 
L 354.485017 -332.624297 
L 349.67368 -346.060816 
L 345.017547 -324.506024 
L 340.206209 -316.710844 
L 335.394871 -319.022868 
L 330.738738 -327.737449 
L 325.927401 -337.743874 
L 321.271267 -331.443872 
L 316.45993 -328.821096 
L 311.959001 -315.390591 
L 307.147663 -297.209014 
L 302.336326 -310.722456 
L 297.680193 -300.763844 
L 292.868855 -317.809396 
L 288.212722 -277.536423 
L 283.401384 -260.3294 
L 278.590046 -254.892657 
L 273.933913 -263.764458 
L 269.122576 -275.784847 
L 264.466442 -268.640478 
L 259.655105 -264.903921 
L 255.309381 -249.575873 
L 250.498043 -248.311637 
L 245.686705 -220.569174 
L 241.030572 -221.827422 
L 236.219235 -233.72934 
L 231.563101 -221.056289 
L 226.751764 -211.804742 
L 221.940426 -215.951878 
L 217.284293 -225.532819 
L 212.472955 -238.549581 
L 207.816822 -235.31228 
L 203.005484 -245.126088 
L 198.65976 -212.141188 
L 193.848423 -218.543682 
L 189.037085 -211.054452 
L 184.380952 -216.317908 
L 179.569614 -223.974061 
L 174.913481 -212.796526 
L 170.102143 -181.530605 
L 165.290806 -209.27253 
L 160.634672 -216.089605 
L 155.823335 -226.553999 
L 151.167202 -219.234005 
L 146.355864 -233.213017 
L 142.01014 -211.429922 
L 137.198802 -221.146952 
L 132.387464 -220.053902 
L 127.731331 -208.631196 
L 122.919994 -217.992112 
L 118.263861 -218.291235 
L 113.452523 -216.124965 
L 108.641185 -216.13982 
L 103.985052 -225.025099 
L 99.173714 -210.967752 
L 94.517581 -200.306252 
L 89.706244 -234.086879 
L 85.205315 -200.160623 
L 80.393977 -196.531985 
z
" style="stroke: #808080; stroke-width: 0.5"/>
    </defs>
    <g clip-path="url(#peda94f5ff7)">
     <use xlink:href="#maacb4ed081" x="0" y="495.674688" style="fill: #74a9cf; stroke: #808080; stroke-width: 0.5"/>
    </g>
   </g>
   <g id="FillBetweenPolyCollection_4">
    <defs>
     <path id="m2dc3f9ccd3" d="M 80.393977 -196.531985 
L 80.393977 -196.531985 
L 85.205315 -200.160623 
L 89.706244 -234.086879 
L 94.517581 -200.306252 
L 99.173714 -210.967752 
L 103.985052 -225.025099 
L 108.641185 -216.13982 
L 113.452523 -216.124965 
L 118.263861 -218.291235 
L 122.919994 -217.992112 
L 127.731331 -208.631196 
L 132.387464 -220.053902 
L 137.198802 -221.146952 
L 142.01014 -211.429922 
L 146.355864 -233.213017 
L 151.167202 -219.234005 
L 155.823335 -226.553999 
L 160.634672 -216.089605 
L 165.290806 -209.27253 
L 170.102143 -181.530605 
L 174.913481 -212.796526 
L 179.569614 -223.974061 
L 184.380952 -216.317908 
L 189.037085 -211.054452 
L 193.848423 -218.543682 
L 198.65976 -212.141188 
L 203.005484 -245.126088 
L 207.816822 -235.31228 
L 212.472955 -238.549581 
L 217.284293 -225.532819 
L 221.940426 -215.951878 
L 226.751764 -211.804742 
L 231.563101 -221.056289 
L 236.219235 -233.72934 
L 241.030572 -221.827422 
L 245.686705 -220.569174 
L 250.498043 -248.311637 
L 255.309381 -249.575873 
L 259.655105 -264.903921 
L 264.466442 -268.640478 
L 269.122576 -275.784847 
L 273.933913 -263.764458 
L 278.590046 -254.892657 
L 283.401384 -260.3294 
L 288.212722 -277.536423 
L 292.868855 -317.809396 
L 297.680193 -300.763844 
L 302.336326 -310.722456 
L 307.147663 -297.209014 
L 311.959001 -315.390591 
L 316.45993 -328.821096 
L 321.271267 -331.443872 
L 325.927401 -337.743874 
L 330.738738 -327.737449 
L 335.394871 -319.022868 
L 340.206209 -316.710844 
L 345.017547 -324.506024 
L 349.67368 -346.060816 
L 354.485017 -332.624297 
L 359.141151 -355.63158 
L 363.952488 -342.101121 
L 368.763826 -330.104263 
L 373.10955 -375.977613 
L 377.920888 -360.18482 
L 382.577021 -368.536047 
L 387.388359 -361.560901 
L 392.044492 -351.354293 
L 396.855829 -351.640175 
L 401.667167 -367.108051 
L 406.3233 -393.504678 
L 411.134638 -388.689663 
L 415.790771 -416.005578 
L 420.602109 -403.04572 
L 425.413446 -393.768829 
L 429.759171 -438.958933 
L 434.570508 -425.2559 
L 439.226641 -430.628574 
L 444.037979 -418.199068 
L 448.694112 -412.654907 
L 453.50545 -419.091186 
L 458.316787 -421.87677 
L 462.972921 -446.003286 
L 467.784258 -432.111549 
L 472.440391 -445.434998 
L 477.251729 -429.35356 
L 482.063067 -152.362235 
L 486.408791 -159.679691 
L 491.220129 -159.732368 
L 495.876262 -162.507887 
L 500.687599 -153.498347 
L 505.343733 -144.069149 
L 510.15507 -140.010226 
L 514.966408 -138.139253 
L 519.622541 -154.465549 
L 524.433879 -149.528174 
L 529.090012 -152.094546 
L 533.901349 -145.851172 
L 538.712687 -142.526983 
L 543.213616 -94.557996 
L 548.024953 -47.860623 
L 552.681087 -52.020576 
L 557.492424 -57.418795 
L 562.148557 -61.916845 
L 566.959895 -65.246172 
L 571.771233 -70.516693 
L 576.427366 -74.540644 
L 581.238703 -71.825392 
L 585.894837 -70.676013 
L 590.706174 -69.303021 
L 595.517512 -67.740423 
L 599.863236 -77.939692 
L 604.674574 -80.515103 
L 609.330707 -84.5659 
L 614.142045 -89.028052 
L 618.798178 -87.917321 
L 623.609515 -86.97734 
L 628.420853 -88.817191 
L 633.076986 -96.476358 
L 637.888324 -96.015976 
L 642.544457 -94.152918 
L 647.355795 -82.225518 
L 652.167132 -89.90484 
L 656.512857 -99.424451 
L 661.324194 -97.413788 
L 665.980327 -97.295142 
L 670.791665 -96.086621 
L 675.447798 -90.886608 
L 680.259136 -90.515027 
L 685.070473 -91.074462 
L 689.726607 -97.071053 
L 694.537944 -91.166388 
L 699.194077 -95.160119 
L 704.005415 -89.157251 
L 708.816753 -87.274287 
L 713.162477 -95.911871 
L 717.973815 -93.478575 
L 722.629948 -97.947041 
L 727.441285 -93.306076 
L 732.097419 -90.250564 
L 736.908756 -89.998329 
L 741.720094 -88.039194 
L 746.376227 -100.21429 
L 751.187565 -94.645934 
L 755.843698 -95.813756 
L 760.655036 -89.845248 
L 765.466373 -88.752535 
L 769.967302 -99.124078 
L 774.778639 -98.489134 
L 779.434773 -99.922756 
L 784.24611 -97.968547 
L 788.902243 -92.28232 
L 793.713581 -92.259564 
L 798.524919 -102.875989 
L 803.181052 -101.592334 
L 807.99239 -101.601824 
L 812.648523 -105.733169 
L 812.648523 -368.651705 
L 812.648523 -368.651705 
L 807.99239 -351.298827 
L 803.181052 -351.733414 
L 798.524919 -342.975521 
L 793.713581 -331.341617 
L 788.902243 -332.049983 
L 784.24611 -349.497425 
L 779.434773 -358.726515 
L 774.778639 -345.151844 
L 769.967302 -365.131122 
L 765.466373 -330.64283 
L 760.655036 -335.552947 
L 755.843698 -352.241235 
L 751.187565 -335.399453 
L 746.376227 -352.539532 
L 741.720094 -336.134189 
L 736.908756 -318.960175 
L 732.097419 -329.378431 
L 727.441285 -335.30005 
L 722.629948 -345.9619 
L 717.973815 -332.642977 
L 713.162477 -350.875381 
L 708.816753 -311.626514 
L 704.005415 -319.97464 
L 699.194077 -340.759074 
L 694.537944 -316.898073 
L 689.726607 -338.050324 
L 685.070473 -313.196901 
L 680.259136 -305.000156 
L 675.447798 -308.924304 
L 670.791665 -317.983358 
L 665.980327 -323.906853 
L 661.324194 -319.061804 
L 656.512857 -329.837787 
L 652.167132 -289.819713 
L 647.355795 -266.303372 
L 642.544457 -294.400711 
L 637.888324 -295.945078 
L 633.076986 -302.830185 
L 628.420853 -274.365316 
L 623.609515 -267.838086 
L 618.798178 -275.326091 
L 614.142045 -275.383745 
L 609.330707 -268.134096 
L 604.674574 -256.415693 
L 599.863236 -255.419808 
L 595.517512 -212.547304 
L 590.706174 -217.963741 
L 585.894837 -215.921345 
L 581.238703 -216.500923 
L 576.427366 -240.155703 
L 571.771233 -221.619112 
L 566.959895 -203.779583 
L 562.148557 -186.264234 
L 557.492424 -151.686179 
L 552.681087 -128.001152 
L 548.024953 -101.689987 
L 543.213616 -261.691877 
L 538.712687 -413.603391 
L 533.901349 -400.971114 
L 529.090012 -424.216652 
L 524.433879 -419.151366 
L 519.622541 -418.219537 
L 514.966408 -388.124876 
L 510.15507 -362.099793 
L 505.343733 -388.779363 
L 500.687599 -415.344039 
L 495.876262 -440.739842 
L 491.220129 -430.319023 
L 486.408791 -456.908631 
L 482.063067 -403.175607 
L 477.251729 -429.35356 
L 472.440391 -445.434998 
L 467.784258 -432.111549 
L 462.972921 -446.003286 
L 458.316787 -421.87677 
L 453.50545 -419.091186 
L 448.694112 -412.654907 
L 444.037979 -418.199068 
L 439.226641 -430.628574 
L 434.570508 -425.2559 
L 429.759171 -438.958933 
L 425.413446 -393.768829 
L 420.602109 -403.04572 
L 415.790771 -416.005578 
L 411.134638 -388.689663 
L 406.3233 -393.504678 
L 401.667167 -367.108051 
L 396.855829 -351.640175 
L 392.044492 -351.354293 
L 387.388359 -361.560901 
L 382.577021 -368.536047 
L 377.920888 -360.18482 
L 373.10955 -375.977613 
L 368.763826 -330.104263 
L 363.952488 -342.101121 
L 359.141151 -355.63158 
L 354.485017 -332.624297 
L 349.67368 -346.060816 
L 345.017547 -324.506024 
L 340.206209 -316.710844 
L 335.394871 -319.022868 
L 330.738738 -327.737449 
L 325.927401 -337.743874 
L 321.271267 -331.443872 
L 316.45993 -328.821096 
L 311.959001 -315.390591 
L 307.147663 -297.209014 
L 302.336326 -310.722456 
L 297.680193 -300.763844 
L 292.868855 -317.809396 
L 288.212722 -277.536423 
L 283.401384 -260.3294 
L 278.590046 -254.892657 
L 273.933913 -263.764458 
L 269.122576 -275.784847 
L 264.466442 -268.640478 
L 259.655105 -264.903921 
L 255.309381 -249.575873 
L 250.498043 -248.311637 
L 245.686705 -220.569174 
L 241.030572 -221.827422 
L 236.219235 -233.72934 
L 231.563101 -221.056289 
L 226.751764 -211.804742 
L 221.940426 -215.951878 
L 217.284293 -225.532819 
L 212.472955 -238.549581 
L 207.816822 -235.31228 
L 203.005484 -245.126088 
L 198.65976 -212.141188 
L 193.848423 -218.543682 
L 189.037085 -211.054452 
L 184.380952 -216.317908 
L 179.569614 -223.974061 
L 174.913481 -212.796526 
L 170.102143 -181.530605 
L 165.290806 -209.27253 
L 160.634672 -216.089605 
L 155.823335 -226.553999 
L 151.167202 -219.234005 
L 146.355864 -233.213017 
L 142.01014 -211.429922 
L 137.198802 -221.146952 
L 132.387464 -220.053902 
L 127.731331 -208.631196 
L 122.919994 -217.992112 
L 118.263861 -218.291235 
L 113.452523 -216.124965 
L 108.641185 -216.13982 
L 103.985052 -225.025099 
L 99.173714 -210.967752 
L 94.517581 -200.306252 
L 89.706244 -234.086879 
L 85.205315 -200.160623 
L 80.393977 -196.531985 
z
" style="stroke: #808080; stroke-width: 0.5"/>
    </defs>
    <g clip-path="url(#peda94f5ff7)">
     <use xlink:href="#m2dc3f9ccd3" x="0" y="495.674688" style="fill: #0570b0; stroke: #808080; stroke-width: 0.5"/>
    </g>
   </g>
   <g id="matplotlib.axis_1">
    <g id="xtick_1">
     <g id="line2d_1">
      <path d="M 80.393977 458.118438 
L 80.393977 17.798437 
" clip-path="url(#peda94f5ff7)" style="fill: none; stroke: #b0b0b0; stroke-width: 0.8; stroke-linecap: square"/>
     </g>
     <g id="line2d_2">
      <defs>
       <path id="m0f24fe298f" d="M 0 0 
L 0 3.5 
" style="stroke: #000000; stroke-width: 0.8"/>
      </defs>
      <g>
       <use xlink:href="#m0f24fe298f" x="80.393977" y="458.118438" style="stroke: #000000; stroke-width: 0.8"/>
      </g>
     </g>
     <g id="text_1">
      <!-- 2012 -->
      <g transform="translate(67.668977 472.716875) scale(0.1 -0.1)">
       <defs>
        <path id="DejaVuSans-32" d="M 1228 531 
L 3431 531 
L 3431 0 
L 469 0 
L 469 531 
Q 828 903 1448 1529 
Q 2069 2156 2228 2338 
Q 2531 2678 2651 2914 
Q 2772 3150 2772 3378 
Q 2772 3750 2511 3984 
Q 2250 4219 1831 4219 
Q 1534 4219 1204 4116 
Q 875 4013 500 3803 
L 500 4441 
Q 881 4594 1212 4672 
Q 1544 4750 1819 4750 
Q 2544 4750 2975 4387 
Q 3406 4025 3406 3419 
Q 3406 3131 3298 2873 
Q 3191 2616 2906 2266 
Q 2828 2175 2409 1742 
Q 1991 1309 1228 531 
z
" transform="scale(0.015625)"/>
        <path id="DejaVuSans-30" d="M 2034 4250 
Q 1547 4250 1301 3770 
Q 1056 3291 1056 2328 
Q 1056 1369 1301 889 
Q 1547 409 2034 409 
Q 2525 409 2770 889 
Q 3016 1369 3016 2328 
Q 3016 3291 2770 3770 
Q 2525 4250 2034 4250 
z
M 2034 4750 
Q 2819 4750 3233 4129 
Q 3647 3509 3647 2328 
Q 3647 1150 3233 529 
Q 2819 -91 2034 -91 
Q 1250 -91 836 529 
Q 422 1150 422 2328 
Q 422 3509 836 4129 
Q 1250 4750 2034 4750 
z
" transform="scale(0.015625)"/>
        <path id="DejaVuSans-31" d="M 794 531 
L 1825 531 
L 1825 4091 
L 703 3866 
L 703 4441 
L 1819 4666 
L 2450 4666 
L 2450 531 
L 3481 531 
L 3481 0 
L 794 0 
L 794 531 
z
" transform="scale(0.015625)"/>
       </defs>
       <use xlink:href="#DejaVuSans-32"/>
       <use xlink:href="#DejaVuSans-30" transform="translate(63.623047 0)"/>
       <use xlink:href="#DejaVuSans-31" transform="translate(127.246094 0)"/>
       <use xlink:href="#DejaVuSans-32" transform="translate(190.869141 0)"/>
      </g>
     </g>
    </g>
    <g id="xtick_2">
     <g id="line2d_3">
      <path d="M 193.848423 458.118438 
L 193.848423 17.798437 
" clip-path="url(#peda94f5ff7)" style="fill: none; stroke: #b0b0b0; stroke-width: 0.8; stroke-linecap: square"/>
     </g>
     <g id="line2d_4">
      <g>
       <use xlink:href="#m0f24fe298f" x="193.848423" y="458.118438" style="stroke: #000000; stroke-width: 0.8"/>
      </g>
     </g>
     <g id="text_2">
      <!-- 2014 -->
      <g transform="translate(181.123423 472.716875) scale(0.1 -0.1)">
       <defs>
        <path id="DejaVuSans-34" d="M 2419 4116 
L 825 1625 
L 2419 1625 
L 2419 4116 
z
M 2253 4666 
L 3047 4666 
L 3047 1625 
L 3713 1625 
L 3713 1100 
L 3047 1100 
L 3047 0 
L 2419 0 
L 2419 1100 
L 313 1100 
L 313 1709 
L 2253 4666 
z
" transform="scale(0.015625)"/>
       </defs>
       <use xlink:href="#DejaVuSans-32"/>
       <use xlink:href="#DejaVuSans-30" transform="translate(63.623047 0)"/>
       <use xlink:href="#DejaVuSans-31" transform="translate(127.246094 0)"/>
       <use xlink:href="#DejaVuSans-34" transform="translate(190.869141 0)"/>
      </g>
     </g>
    </g>
    <g id="xtick_3">
     <g id="line2d_5">
      <path d="M 307.147663 458.118438 
L 307.147663 17.798437 
" clip-path="url(#peda94f5ff7)" style="fill: none; stroke: #b0b0b0; stroke-width: 0.8; stroke-linecap: square"/>
     </g>
     <g id="line2d_6">
      <g>
       <use xlink:href="#m0f24fe298f" x="307.147663" y="458.118438" style="stroke: #000000; stroke-width: 0.8"/>
      </g>
     </g>
     <g id="text_3">
      <!-- 2016 -->
      <g transform="translate(294.422663 472.716875) scale(0.1 -0.1)">
       <defs>
        <path id="DejaVuSans-36" d="M 2113 2584 
Q 1688 2584 1439 2293 
Q 1191 2003 1191 1497 
Q 1191 994 1439 701 
Q 1688 409 2113 409 
Q 2538 409 2786 701 
Q 3034 994 3034 1497 
Q 3034 2003 2786 2293 
Q 2538 2584 2113 2584 
z
M 3366 4563 
L 3366 3988 
Q 3128 4100 2886 4159 
Q 2644 4219 2406 4219 
Q 1781 4219 1451 3797 
Q 1122 3375 1075 2522 
Q 1259 2794 1537 2939 
Q 1816 3084 2150 3084 
Q 2853 3084 3261 2657 
Q 3669 2231 3669 1497 
Q 3669 778 3244 343 
Q 2819 -91 2113 -91 
Q 1303 -91 875 529 
Q 447 1150 447 2328 
Q 447 3434 972 4092 
Q 1497 4750 2381 4750 
Q 2619 4750 2861 4703 
Q 3103 4656 3366 4563 
z
" transform="scale(0.015625)"/>
       </defs>
       <use xlink:href="#DejaVuSans-32"/>
       <use xlink:href="#DejaVuSans-30" transform="translate(63.623047 0)"/>
       <use xlink:href="#DejaVuSans-31" transform="translate(127.246094 0)"/>
       <use xlink:href="#DejaVuSans-36" transform="translate(190.869141 0)"/>
      </g>
     </g>
    </g>
    <g id="xtick_4">
     <g id="line2d_7">
      <path d="M 420.602109 458.118438 
L 420.602109 17.798437 
" clip-path="url(#peda94f5ff7)" style="fill: none; stroke: #b0b0b0; stroke-width: 0.8; stroke-linecap: square"/>
     </g>
     <g id="line2d_8">
      <g>
       <use xlink:href="#m0f24fe298f" x="420.602109" y="458.118438" style="stroke: #000000; stroke-width: 0.8"/>
      </g>
     </g>
     <g id="text_4">
      <!-- 2018 -->
      <g transform="translate(407.877109 472.716875) scale(0.1 -0.1)">
       <defs>
        <path id="DejaVuSans-38" d="M 2034 2216 
Q 1584 2216 1326 1975 
Q 1069 1734 1069 1313 
Q 1069 891 1326 650 
Q 1584 409 2034 409 
Q 2484 409 2743 651 
Q 3003 894 3003 1313 
Q 3003 1734 2745 1975 
Q 2488 2216 2034 2216 
z
M 1403 2484 
Q 997 2584 770 2862 
Q 544 3141 544 3541 
Q 544 4100 942 4425 
Q 1341 4750 2034 4750 
Q 2731 4750 3128 4425 
Q 3525 4100 3525 3541 
Q 3525 3141 3298 2862 
Q 3072 2584 2669 2484 
Q 3125 2378 3379 2068 
Q 3634 1759 3634 1313 
Q 3634 634 3220 271 
Q 2806 -91 2034 -91 
Q 1263 -91 848 271 
Q 434 634 434 1313 
Q 434 1759 690 2068 
Q 947 2378 1403 2484 
z
M 1172 3481 
Q 1172 3119 1398 2916 
Q 1625 2713 2034 2713 
Q 2441 2713 2670 2916 
Q 2900 3119 2900 3481 
Q 2900 3844 2670 4047 
Q 2441 4250 2034 4250 
Q 1625 4250 1398 4047 
Q 1172 3844 1172 3481 
z
" transform="scale(0.015625)"/>
       </defs>
       <use xlink:href="#DejaVuSans-32"/>
       <use xlink:href="#DejaVuSans-30" transform="translate(63.623047 0)"/>
       <use xlink:href="#DejaVuSans-31" transform="translate(127.246094 0)"/>
       <use xlink:href="#DejaVuSans-38" transform="translate(190.869141 0)"/>
      </g>
     </g>
    </g>
    <g id="xtick_5">
     <g id="line2d_9">
      <path d="M 533.901349 458.118438 
L 533.901349 17.798437 
" clip-path="url(#peda94f5ff7)" style="fill: none; stroke: #b0b0b0; stroke-width: 0.8; stroke-linecap: square"/>
     </g>
     <g id="line2d_10">
      <g>
       <use xlink:href="#m0f24fe298f" x="533.901349" y="458.118438" style="stroke: #000000; stroke-width: 0.8"/>
      </g>
     </g>
     <g id="text_5">
      <!-- 2020 -->
      <g transform="translate(521.176349 472.716875) scale(0.1 -0.1)">
       <use xlink:href="#DejaVuSans-32"/>
       <use xlink:href="#DejaVuSans-30" transform="translate(63.623047 0)"/>
       <use xlink:href="#DejaVuSans-32" transform="translate(127.246094 0)"/>
       <use xlink:href="#DejaVuSans-30" transform="translate(190.869141 0)"/>
      </g>
     </g>
    </g>
    <g id="xtick_6">
     <g id="line2d_11">
      <path d="M 647.355795 458.118438 
L 647.355795 17.798437 
" clip-path="url(#peda94f5ff7)" style="fill: none; stroke: #b0b0b0; stroke-width: 0.8; stroke-linecap: square"/>
     </g>
     <g id="line2d_12">
      <g>
       <use xlink:href="#m0f24fe298f" x="647.355795" y="458.118438" style="stroke: #000000; stroke-width: 0.8"/>
      </g>
     </g>
     <g id="text_6">
      <!-- 2022 -->
      <g transform="translate(634.630795 472.716875) scale(0.1 -0.1)">
       <use xlink:href="#DejaVuSans-32"/>
       <use xlink:href="#DejaVuSans-30" transform="translate(63.623047 0)"/>
       <use xlink:href="#DejaVuSans-32" transform="translate(127.246094 0)"/>
       <use xlink:href="#DejaVuSans-32" transform="translate(190.869141 0)"/>
      </g>
     </g>
    </g>
    <g id="xtick_7">
     <g id="line2d_13">
      <path d="M 760.655036 458.118438 
L 760.655036 17.798437 
" clip-path="url(#peda94f5ff7)" style="fill: none; stroke: #b0b0b0; stroke-width: 0.8; stroke-linecap: square"/>
     </g>
     <g id="line2d_14">
      <g>
       <use xlink:href="#m0f24fe298f" x="760.655036" y="458.118438" style="stroke: #000000; stroke-width: 0.8"/>
      </g>
     </g>
     <g id="text_7">
      <!-- 2024 -->
      <g transform="translate(747.930036 472.716875) scale(0.1 -0.1)">
       <use xlink:href="#DejaVuSans-32"/>
       <use xlink:href="#DejaVuSans-30" transform="translate(63.623047 0)"/>
       <use xlink:href="#DejaVuSans-32" transform="translate(127.246094 0)"/>
       <use xlink:href="#DejaVuSans-34" transform="translate(190.869141 0)"/>
      </g>
     </g>
    </g>
    <g id="text_8">
     <!-- Date -->
     <g transform="translate(434.570469 486.395) scale(0.1 -0.1)">
      <defs>
       <path id="DejaVuSans-44" d="M 1259 4147 
L 1259 519 
L 2022 519 
Q 2988 519 3436 956 
Q 3884 1394 3884 2338 
Q 3884 3275 3436 3711 
Q 2988 4147 2022 4147 
L 1259 4147 
z
M 628 4666 
L 1925 4666 
Q 3281 4666 3915 4102 
Q 4550 3538 4550 2338 
Q 4550 1131 3912 565 
Q 3275 0 1925 0 
L 628 0 
L 628 4666 
z
" transform="scale(0.015625)"/>
       <path id="DejaVuSans-61" d="M 2194 1759 
Q 1497 1759 1228 1600 
Q 959 1441 959 1056 
Q 959 750 1161 570 
Q 1363 391 1709 391 
Q 2188 391 2477 730 
Q 2766 1069 2766 1631 
L 2766 1759 
L 2194 1759 
z
M 3341 1997 
L 3341 0 
L 2766 0 
L 2766 531 
Q 2569 213 2275 61 
Q 1981 -91 1556 -91 
Q 1019 -91 701 211 
Q 384 513 384 1019 
Q 384 1609 779 1909 
Q 1175 2209 1959 2209 
L 2766 2209 
L 2766 2266 
Q 2766 2663 2505 2880 
Q 2244 3097 1772 3097 
Q 1472 3097 1187 3025 
Q 903 2953 641 2809 
L 641 3341 
Q 956 3463 1253 3523 
Q 1550 3584 1831 3584 
Q 2591 3584 2966 3190 
Q 3341 2797 3341 1997 
z
" transform="scale(0.015625)"/>
       <path id="DejaVuSans-74" d="M 1172 4494 
L 1172 3500 
L 2356 3500 
L 2356 3053 
L 1172 3053 
L 1172 1153 
Q 1172 725 1289 603 
Q 1406 481 1766 481 
L 2356 481 
L 2356 0 
L 1766 0 
Q 1100 0 847 248 
Q 594 497 594 1153 
L 594 3053 
L 172 3053 
L 172 3500 
L 594 3500 
L 594 4494 
L 1172 4494 
z
" transform="scale(0.015625)"/>
       <path id="DejaVuSans-65" d="M 3597 1894 
L 3597 1613 
L 953 1613 
Q 991 1019 1311 708 
Q 1631 397 2203 397 
Q 2534 397 2845 478 
Q 3156 559 3463 722 
L 3463 178 
Q 3153 47 2828 -22 
Q 2503 -91 2169 -91 
Q 1331 -91 842 396 
Q 353 884 353 1716 
Q 353 2575 817 3079 
Q 1281 3584 2069 3584 
Q 2775 3584 3186 3129 
Q 3597 2675 3597 1894 
z
M 3022 2063 
Q 3016 2534 2758 2815 
Q 2500 3097 2075 3097 
Q 1594 3097 1305 2825 
Q 1016 2553 972 2059 
L 3022 2063 
z
" transform="scale(0.015625)"/>
      </defs>
      <use xlink:href="#DejaVuSans-44"/>
      <use xlink:href="#DejaVuSans-61" transform="translate(77.001953 0)"/>
      <use xlink:href="#DejaVuSans-74" transform="translate(138.28125 0)"/>
      <use xlink:href="#DejaVuSans-65" transform="translate(177.490234 0)"/>
     </g>
    </g>
   </g>
   <g id="matplotlib.axis_2">
    <g id="ytick_1">
     <g id="line2d_15">
      <path d="M 43.78125 458.118438 
L 849.26125 458.118438 
" clip-path="url(#peda94f5ff7)" style="fill: none; stroke: #b0b0b0; stroke-width: 0.8; stroke-linecap: square"/>
     </g>
     <g id="line2d_16">
      <defs>
       <path id="ma034807641" d="M 0 0 
L -3.5 0 
" style="stroke: #000000; stroke-width: 0.8"/>
      </defs>
      <g>
       <use xlink:href="#ma034807641" x="43.78125" y="458.118438" style="stroke: #000000; stroke-width: 0.8"/>
      </g>
     </g>
     <g id="text_9">
      <!-- 0.0 -->
      <g transform="translate(20.878125 461.917656) scale(0.1 -0.1)">
       <defs>
        <path id="DejaVuSans-2e" d="M 684 794 
L 1344 794 
L 1344 0 
L 684 0 
L 684 794 
z
" transform="scale(0.015625)"/>
       </defs>
       <use xlink:href="#DejaVuSans-30"/>
       <use xlink:href="#DejaVuSans-2e" transform="translate(63.623047 0)"/>
       <use xlink:href="#DejaVuSans-30" transform="translate(95.410156 0)"/>
      </g>
     </g>
    </g>
    <g id="ytick_2">
     <g id="line2d_17">
      <path d="M 43.78125 395.600551 
L 849.26125 395.600551 
" clip-path="url(#peda94f5ff7)" style="fill: none; stroke: #b0b0b0; stroke-width: 0.8; stroke-linecap: square"/>
     </g>
     <g id="line2d_18">
      <g>
       <use xlink:href="#ma034807641" x="43.78125" y="395.600551" style="stroke: #000000; stroke-width: 0.8"/>
      </g>
     </g>
     <g id="text_10">
      <!-- 0.5 -->
      <g transform="translate(20.878125 399.399769) scale(0.1 -0.1)">
       <defs>
        <path id="DejaVuSans-35" d="M 691 4666 
L 3169 4666 
L 3169 4134 
L 1269 4134 
L 1269 2991 
Q 1406 3038 1543 3061 
Q 1681 3084 1819 3084 
Q 2600 3084 3056 2656 
Q 3513 2228 3513 1497 
Q 3513 744 3044 326 
Q 2575 -91 1722 -91 
Q 1428 -91 1123 -41 
Q 819 9 494 109 
L 494 744 
Q 775 591 1075 516 
Q 1375 441 1709 441 
Q 2250 441 2565 725 
Q 2881 1009 2881 1497 
Q 2881 1984 2565 2268 
Q 2250 2553 1709 2553 
Q 1456 2553 1204 2497 
Q 953 2441 691 2322 
L 691 4666 
z
" transform="scale(0.015625)"/>
       </defs>
       <use xlink:href="#DejaVuSans-30"/>
       <use xlink:href="#DejaVuSans-2e" transform="translate(63.623047 0)"/>
       <use xlink:href="#DejaVuSans-35" transform="translate(95.410156 0)"/>
      </g>
     </g>
    </g>
    <g id="ytick_3">
     <g id="line2d_19">
      <path d="M 43.78125 333.082664 
L 849.26125 333.082664 
" clip-path="url(#peda94f5ff7)" style="fill: none; stroke: #b0b0b0; stroke-width: 0.8; stroke-linecap: square"/>
     </g>
     <g id="line2d_20">
      <g>
       <use xlink:href="#ma034807641" x="43.78125" y="333.082664" style="stroke: #000000; stroke-width: 0.8"/>
      </g>
     </g>
     <g id="text_11">
      <!-- 1.0 -->
      <g transform="translate(20.878125 336.881882) scale(0.1 -0.1)">
       <use xlink:href="#DejaVuSans-31"/>
       <use xlink:href="#DejaVuSans-2e" transform="translate(63.623047 0)"/>
       <use xlink:href="#DejaVuSans-30" transform="translate(95.410156 0)"/>
      </g>
     </g>
    </g>
    <g id="ytick_4">
     <g id="line2d_21">
      <path d="M 43.78125 270.564777 
L 849.26125 270.564777 
" clip-path="url(#peda94f5ff7)" style="fill: none; stroke: #b0b0b0; stroke-width: 0.8; stroke-linecap: square"/>
     </g>
     <g id="line2d_22">
      <g>
       <use xlink:href="#ma034807641" x="43.78125" y="270.564777" style="stroke: #000000; stroke-width: 0.8"/>
      </g>
     </g>
     <g id="text_12">
      <!-- 1.5 -->
      <g transform="translate(20.878125 274.363995) scale(0.1 -0.1)">
       <use xlink:href="#DejaVuSans-31"/>
       <use xlink:href="#DejaVuSans-2e" transform="translate(63.623047 0)"/>
       <use xlink:href="#DejaVuSans-35" transform="translate(95.410156 0)"/>
      </g>
     </g>
    </g>
    <g id="ytick_5">
     <g id="line2d_23">
      <path d="M 43.78125 208.04689 
L 849.26125 208.04689 
" clip-path="url(#peda94f5ff7)" style="fill: none; stroke: #b0b0b0; stroke-width: 0.8; stroke-linecap: square"/>
     </g>
     <g id="line2d_24">
      <g>
       <use xlink:href="#ma034807641" x="43.78125" y="208.04689" style="stroke: #000000; stroke-width: 0.8"/>
      </g>
     </g>
     <g id="text_13">
      <!-- 2.0 -->
      <g transform="translate(20.878125 211.846108) scale(0.1 -0.1)">
       <use xlink:href="#DejaVuSans-32"/>
       <use xlink:href="#DejaVuSans-2e" transform="translate(63.623047 0)"/>
       <use xlink:href="#DejaVuSans-30" transform="translate(95.410156 0)"/>
      </g>
     </g>
    </g>
    <g id="ytick_6">
     <g id="line2d_25">
      <path d="M 43.78125 145.529003 
L 849.26125 145.529003 
" clip-path="url(#peda94f5ff7)" style="fill: none; stroke: #b0b0b0; stroke-width: 0.8; stroke-linecap: square"/>
     </g>
     <g id="line2d_26">
      <g>
       <use xlink:href="#ma034807641" x="43.78125" y="145.529003" style="stroke: #000000; stroke-width: 0.8"/>
      </g>
     </g>
     <g id="text_14">
      <!-- 2.5 -->
      <g transform="translate(20.878125 149.328221) scale(0.1 -0.1)">
       <use xlink:href="#DejaVuSans-32"/>
       <use xlink:href="#DejaVuSans-2e" transform="translate(63.623047 0)"/>
       <use xlink:href="#DejaVuSans-35" transform="translate(95.410156 0)"/>
      </g>
     </g>
    </g>
    <g id="ytick_7">
     <g id="line2d_27">
      <path d="M 43.78125 83.011116 
L 849.26125 83.011116 
" clip-path="url(#peda94f5ff7)" style="fill: none; stroke: #b0b0b0; stroke-width: 0.8; stroke-linecap: square"/>
     </g>
     <g id="line2d_28">
      <g>
       <use xlink:href="#ma034807641" x="43.78125" y="83.011116" style="stroke: #000000; stroke-width: 0.8"/>
      </g>
     </g>
     <g id="text_15">
      <!-- 3.0 -->
      <g transform="translate(20.878125 86.810334) scale(0.1 -0.1)">
       <defs>
        <path id="DejaVuSans-33" d="M 2597 2516 
Q 3050 2419 3304 2112 
Q 3559 1806 3559 1356 
Q 3559 666 3084 287 
Q 2609 -91 1734 -91 
Q 1441 -91 1130 -33 
Q 819 25 488 141 
L 488 750 
Q 750 597 1062 519 
Q 1375 441 1716 441 
Q 2309 441 2620 675 
Q 2931 909 2931 1356 
Q 2931 1769 2642 2001 
Q 2353 2234 1838 2234 
L 1294 2234 
L 1294 2753 
L 1863 2753 
Q 2328 2753 2575 2939 
Q 2822 3125 2822 3475 
Q 2822 3834 2567 4026 
Q 2313 4219 1838 4219 
Q 1578 4219 1281 4162 
Q 984 4106 628 3988 
L 628 4550 
Q 988 4650 1302 4700 
Q 1616 4750 1894 4750 
Q 2613 4750 3031 4423 
Q 3450 4097 3450 3541 
Q 3450 3153 3228 2886 
Q 3006 2619 2597 2516 
z
" transform="scale(0.015625)"/>
       </defs>
       <use xlink:href="#DejaVuSans-33"/>
       <use xlink:href="#DejaVuSans-2e" transform="translate(63.623047 0)"/>
       <use xlink:href="#DejaVuSans-30" transform="translate(95.410156 0)"/>
      </g>
     </g>
    </g>
    <g id="ytick_8">
     <g id="line2d_29">
      <path d="M 43.78125 20.493229 
L 849.26125 20.493229 
" clip-path="url(#peda94f5ff7)" style="fill: none; stroke: #b0b0b0; stroke-width: 0.8; stroke-linecap: square"/>
     </g>
     <g id="line2d_30">
      <g>
       <use xlink:href="#ma034807641" x="43.78125" y="20.493229" style="stroke: #000000; stroke-width: 0.8"/>
      </g>
     </g>
     <g id="text_16">
      <!-- 3.5 -->
      <g transform="translate(20.878125 24.292447) scale(0.1 -0.1)">
       <use xlink:href="#DejaVuSans-33"/>
       <use xlink:href="#DejaVuSans-2e" transform="translate(63.623047 0)"/>
       <use xlink:href="#DejaVuSans-35" transform="translate(95.410156 0)"/>
      </g>
     </g>
    </g>
    <g id="text_17">
     <!-- Number of Rides -->
     <g transform="translate(14.798438 279.760781) rotate(-90) scale(0.1 -0.1)">
      <defs>
       <path id="DejaVuSans-4e" d="M 628 4666 
L 1478 4666 
L 3547 763 
L 3547 4666 
L 4159 4666 
L 4159 0 
L 3309 0 
L 1241 3903 
L 1241 0 
L 628 0 
L 628 4666 
z
" transform="scale(0.015625)"/>
       <path id="DejaVuSans-75" d="M 544 1381 
L 544 3500 
L 1119 3500 
L 1119 1403 
Q 1119 906 1312 657 
Q 1506 409 1894 409 
Q 2359 409 2629 706 
Q 2900 1003 2900 1516 
L 2900 3500 
L 3475 3500 
L 3475 0 
L 2900 0 
L 2900 538 
Q 2691 219 2414 64 
Q 2138 -91 1772 -91 
Q 1169 -91 856 284 
Q 544 659 544 1381 
z
M 1991 3584 
L 1991 3584 
z
" transform="scale(0.015625)"/>
       <path id="DejaVuSans-6d" d="M 3328 2828 
Q 3544 3216 3844 3400 
Q 4144 3584 4550 3584 
Q 5097 3584 5394 3201 
Q 5691 2819 5691 2113 
L 5691 0 
L 5113 0 
L 5113 2094 
Q 5113 2597 4934 2840 
Q 4756 3084 4391 3084 
Q 3944 3084 3684 2787 
Q 3425 2491 3425 1978 
L 3425 0 
L 2847 0 
L 2847 2094 
Q 2847 2600 2669 2842 
Q 2491 3084 2119 3084 
Q 1678 3084 1418 2786 
Q 1159 2488 1159 1978 
L 1159 0 
L 581 0 
L 581 3500 
L 1159 3500 
L 1159 2956 
Q 1356 3278 1631 3431 
Q 1906 3584 2284 3584 
Q 2666 3584 2933 3390 
Q 3200 3197 3328 2828 
z
" transform="scale(0.015625)"/>
       <path id="DejaVuSans-62" d="M 3116 1747 
Q 3116 2381 2855 2742 
Q 2594 3103 2138 3103 
Q 1681 3103 1420 2742 
Q 1159 2381 1159 1747 
Q 1159 1113 1420 752 
Q 1681 391 2138 391 
Q 2594 391 2855 752 
Q 3116 1113 3116 1747 
z
M 1159 2969 
Q 1341 3281 1617 3432 
Q 1894 3584 2278 3584 
Q 2916 3584 3314 3078 
Q 3713 2572 3713 1747 
Q 3713 922 3314 415 
Q 2916 -91 2278 -91 
Q 1894 -91 1617 61 
Q 1341 213 1159 525 
L 1159 0 
L 581 0 
L 581 4863 
L 1159 4863 
L 1159 2969 
z
" transform="scale(0.015625)"/>
       <path id="DejaVuSans-72" d="M 2631 2963 
Q 2534 3019 2420 3045 
Q 2306 3072 2169 3072 
Q 1681 3072 1420 2755 
Q 1159 2438 1159 1844 
L 1159 0 
L 581 0 
L 581 3500 
L 1159 3500 
L 1159 2956 
Q 1341 3275 1631 3429 
Q 1922 3584 2338 3584 
Q 2397 3584 2469 3576 
Q 2541 3569 2628 3553 
L 2631 2963 
z
" transform="scale(0.015625)"/>
       <path id="DejaVuSans-20" transform="scale(0.015625)"/>
       <path id="DejaVuSans-6f" d="M 1959 3097 
Q 1497 3097 1228 2736 
Q 959 2375 959 1747 
Q 959 1119 1226 758 
Q 1494 397 1959 397 
Q 2419 397 2687 759 
Q 2956 1122 2956 1747 
Q 2956 2369 2687 2733 
Q 2419 3097 1959 3097 
z
M 1959 3584 
Q 2709 3584 3137 3096 
Q 3566 2609 3566 1747 
Q 3566 888 3137 398 
Q 2709 -91 1959 -91 
Q 1206 -91 779 398 
Q 353 888 353 1747 
Q 353 2609 779 3096 
Q 1206 3584 1959 3584 
z
" transform="scale(0.015625)"/>
       <path id="DejaVuSans-66" d="M 2375 4863 
L 2375 4384 
L 1825 4384 
Q 1516 4384 1395 4259 
Q 1275 4134 1275 3809 
L 1275 3500 
L 2222 3500 
L 2222 3053 
L 1275 3053 
L 1275 0 
L 697 0 
L 697 3053 
L 147 3053 
L 147 3500 
L 697 3500 
L 697 3744 
Q 697 4328 969 4595 
Q 1241 4863 1831 4863 
L 2375 4863 
z
" transform="scale(0.015625)"/>
       <path id="DejaVuSans-52" d="M 2841 2188 
Q 3044 2119 3236 1894 
Q 3428 1669 3622 1275 
L 4263 0 
L 3584 0 
L 2988 1197 
Q 2756 1666 2539 1819 
Q 2322 1972 1947 1972 
L 1259 1972 
L 1259 0 
L 628 0 
L 628 4666 
L 2053 4666 
Q 2853 4666 3247 4331 
Q 3641 3997 3641 3322 
Q 3641 2881 3436 2590 
Q 3231 2300 2841 2188 
z
M 1259 4147 
L 1259 2491 
L 2053 2491 
Q 2509 2491 2742 2702 
Q 2975 2913 2975 3322 
Q 2975 3731 2742 3939 
Q 2509 4147 2053 4147 
L 1259 4147 
z
" transform="scale(0.015625)"/>
       <path id="DejaVuSans-69" d="M 603 3500 
L 1178 3500 
L 1178 0 
L 603 0 
L 603 3500 
z
M 603 4863 
L 1178 4863 
L 1178 4134 
L 603 4134 
L 603 4863 
z
" transform="scale(0.015625)"/>
       <path id="DejaVuSans-64" d="M 2906 2969 
L 2906 4863 
L 3481 4863 
L 3481 0 
L 2906 0 
L 2906 525 
Q 2725 213 2448 61 
Q 2172 -91 1784 -91 
Q 1150 -91 751 415 
Q 353 922 353 1747 
Q 353 2572 751 3078 
Q 1150 3584 1784 3584 
Q 2172 3584 2448 3432 
Q 2725 3281 2906 2969 
z
M 947 1747 
Q 947 1113 1208 752 
Q 1469 391 1925 391 
Q 2381 391 2643 752 
Q 2906 1113 2906 1747 
Q 2906 2381 2643 2742 
Q 2381 3103 1925 3103 
Q 1469 3103 1208 2742 
Q 947 2381 947 1747 
z
" transform="scale(0.015625)"/>
       <path id="DejaVuSans-73" d="M 2834 3397 
L 2834 2853 
Q 2591 2978 2328 3040 
Q 2066 3103 1784 3103 
Q 1356 3103 1142 2972 
Q 928 2841 928 2578 
Q 928 2378 1081 2264 
Q 1234 2150 1697 2047 
L 1894 2003 
Q 2506 1872 2764 1633 
Q 3022 1394 3022 966 
Q 3022 478 2636 193 
Q 2250 -91 1575 -91 
Q 1294 -91 989 -36 
Q 684 19 347 128 
L 347 722 
Q 666 556 975 473 
Q 1284 391 1588 391 
Q 1994 391 2212 530 
Q 2431 669 2431 922 
Q 2431 1156 2273 1281 
Q 2116 1406 1581 1522 
L 1381 1569 
Q 847 1681 609 1914 
Q 372 2147 372 2553 
Q 372 3047 722 3315 
Q 1072 3584 1716 3584 
Q 2034 3584 2315 3537 
Q 2597 3491 2834 3397 
z
" transform="scale(0.015625)"/>
      </defs>
      <use xlink:href="#DejaVuSans-4e"/>
      <use xlink:href="#DejaVuSans-75" transform="translate(74.804688 0)"/>
      <use xlink:href="#DejaVuSans-6d" transform="translate(138.183594 0)"/>
      <use xlink:href="#DejaVuSans-62" transform="translate(235.595703 0)"/>
      <use xlink:href="#DejaVuSans-65" transform="translate(299.072266 0)"/>
      <use xlink:href="#DejaVuSans-72" transform="translate(360.595703 0)"/>
      <use xlink:href="#DejaVuSans-20" transform="translate(401.708984 0)"/>
      <use xlink:href="#DejaVuSans-6f" transform="translate(433.496094 0)"/>
      <use xlink:href="#DejaVuSans-66" transform="translate(494.677734 0)"/>
      <use xlink:href="#DejaVuSans-20" transform="translate(529.882812 0)"/>
      <use xlink:href="#DejaVuSans-52" transform="translate(561.669922 0)"/>
      <use xlink:href="#DejaVuSans-69" transform="translate(631.152344 0)"/>
      <use xlink:href="#DejaVuSans-64" transform="translate(658.935547 0)"/>
      <use xlink:href="#DejaVuSans-65" transform="translate(722.412109 0)"/>
      <use xlink:href="#DejaVuSans-73" transform="translate(783.935547 0)"/>
     </g>
    </g>
    <g id="text_18">
     <!-- 1e7 -->
     <g transform="translate(43.78125 14.798437) scale(0.1 -0.1)">
      <defs>
       <path id="DejaVuSans-37" d="M 525 4666 
L 3525 4666 
L 3525 4397 
L 1831 0 
L 1172 0 
L 2766 4134 
L 525 4134 
L 525 4666 
z
" transform="scale(0.015625)"/>
      </defs>
      <use xlink:href="#DejaVuSans-31"/>
      <use xlink:href="#DejaVuSans-65" transform="translate(63.623047 0)"/>
      <use xlink:href="#DejaVuSans-37" transform="translate(125.146484 0)"/>
     </g>
    </g>
   </g>
   <g id="patch_3">
    <path d="M 43.78125 458.118438 
L 43.78125 17.798437 
" style="fill: none; stroke: #000000; stroke-width: 0.8; stroke-linejoin: miter; stroke-linecap: square"/>
   </g>
   <g id="patch_4">
    <path d="M 849.26125 458.118438 
L 849.26125 17.798437 
" style="fill: none; stroke: #000000; stroke-width: 0.8; stroke-linejoin: miter; stroke-linecap: square"/>
   </g>
   <g id="patch_5">
    <path d="M 43.78125 458.118438 
L 849.26125 458.118438 
" style="fill: none; stroke: #000000; stroke-width: 0.8; stroke-linejoin: miter; stroke-linecap: square"/>
   </g>
   <g id="patch_6">
    <path d="M 43.78125 17.798437 
L 849.26125 17.798437 
" style="fill: none; stroke: #000000; stroke-width: 0.8; stroke-linejoin: miter; stroke-linecap: square"/>
   </g>
   <g id="legend_1">
    <g id="patch_7">
     <path d="M 50.78125 84.510937 
L 188.45 84.510937 
Q 190.45 84.510937 190.45 82.510937 
L 190.45 24.798437 
Q 190.45 22.798437 188.45 22.798437 
L 50.78125 22.798437 
Q 48.78125 22.798437 48.78125 24.798437 
L 48.78125 82.510937 
Q 48.78125 84.510937 50.78125 84.510937 
z
" style="fill: #ffffff; opacity: 0.8; stroke: #cccccc; stroke-linejoin: miter"/>
    </g>
    <g id="patch_8">
     <path d="M 52.78125 34.396875 
L 72.78125 34.396875 
L 72.78125 27.396875 
L 52.78125 27.396875 
z
" style="fill: #f1eef6; stroke: #808080; stroke-width: 0.5; stroke-linejoin: miter"/>
    </g>
    <g id="text_19">
     <!-- Yellow Taxi -->
     <g transform="translate(80.78125 34.396875) scale(0.1 -0.1)">
      <defs>
       <path id="DejaVuSans-59" d="M -13 4666 
L 666 4666 
L 1959 2747 
L 3244 4666 
L 3922 4666 
L 2272 2222 
L 2272 0 
L 1638 0 
L 1638 2222 
L -13 4666 
z
" transform="scale(0.015625)"/>
       <path id="DejaVuSans-6c" d="M 603 4863 
L 1178 4863 
L 1178 0 
L 603 0 
L 603 4863 
z
" transform="scale(0.015625)"/>
       <path id="DejaVuSans-77" d="M 269 3500 
L 844 3500 
L 1563 769 
L 2278 3500 
L 2956 3500 
L 3675 769 
L 4391 3500 
L 4966 3500 
L 4050 0 
L 3372 0 
L 2619 2869 
L 1863 0 
L 1184 0 
L 269 3500 
z
" transform="scale(0.015625)"/>
       <path id="DejaVuSans-54" d="M -19 4666 
L 3928 4666 
L 3928 4134 
L 2272 4134 
L 2272 0 
L 1638 0 
L 1638 4134 
L -19 4134 
L -19 4666 
z
" transform="scale(0.015625)"/>
       <path id="DejaVuSans-78" d="M 3513 3500 
L 2247 1797 
L 3578 0 
L 2900 0 
L 1881 1375 
L 863 0 
L 184 0 
L 1544 1831 
L 300 3500 
L 978 3500 
L 1906 2253 
L 2834 3500 
L 3513 3500 
z
" transform="scale(0.015625)"/>
      </defs>
      <use xlink:href="#DejaVuSans-59"/>
      <use xlink:href="#DejaVuSans-65" transform="translate(47.833984 0)"/>
      <use xlink:href="#DejaVuSans-6c" transform="translate(109.357422 0)"/>
      <use xlink:href="#DejaVuSans-6c" transform="translate(137.140625 0)"/>
      <use xlink:href="#DejaVuSans-6f" transform="translate(164.923828 0)"/>
      <use xlink:href="#DejaVuSans-77" transform="translate(226.105469 0)"/>
      <use xlink:href="#DejaVuSans-20" transform="translate(307.892578 0)"/>
      <use xlink:href="#DejaVuSans-54" transform="translate(339.679688 0)"/>
      <use xlink:href="#DejaVuSans-61" transform="translate(384.263672 0)"/>
      <use xlink:href="#DejaVuSans-78" transform="translate(445.542969 0)"/>
      <use xlink:href="#DejaVuSans-69" transform="translate(504.722656 0)"/>
     </g>
    </g>
    <g id="patch_9">
     <path d="M 52.78125 49.075 
L 72.78125 49.075 
L 72.78125 42.075 
L 52.78125 42.075 
z
" style="fill: #bdc9e1; stroke: #808080; stroke-width: 0.5; stroke-linejoin: miter"/>
    </g>
    <g id="text_20">
     <!-- Green Taxi -->
     <g transform="translate(80.78125 49.075) scale(0.1 -0.1)">
      <defs>
       <path id="DejaVuSans-47" d="M 3809 666 
L 3809 1919 
L 2778 1919 
L 2778 2438 
L 4434 2438 
L 4434 434 
Q 4069 175 3628 42 
Q 3188 -91 2688 -91 
Q 1594 -91 976 548 
Q 359 1188 359 2328 
Q 359 3472 976 4111 
Q 1594 4750 2688 4750 
Q 3144 4750 3555 4637 
Q 3966 4525 4313 4306 
L 4313 3634 
Q 3963 3931 3569 4081 
Q 3175 4231 2741 4231 
Q 1884 4231 1454 3753 
Q 1025 3275 1025 2328 
Q 1025 1384 1454 906 
Q 1884 428 2741 428 
Q 3075 428 3337 486 
Q 3600 544 3809 666 
z
" transform="scale(0.015625)"/>
       <path id="DejaVuSans-6e" d="M 3513 2113 
L 3513 0 
L 2938 0 
L 2938 2094 
Q 2938 2591 2744 2837 
Q 2550 3084 2163 3084 
Q 1697 3084 1428 2787 
Q 1159 2491 1159 1978 
L 1159 0 
L 581 0 
L 581 3500 
L 1159 3500 
L 1159 2956 
Q 1366 3272 1645 3428 
Q 1925 3584 2291 3584 
Q 2894 3584 3203 3211 
Q 3513 2838 3513 2113 
z
" transform="scale(0.015625)"/>
      </defs>
      <use xlink:href="#DejaVuSans-47"/>
      <use xlink:href="#DejaVuSans-72" transform="translate(77.490234 0)"/>
      <use xlink:href="#DejaVuSans-65" transform="translate(116.353516 0)"/>
      <use xlink:href="#DejaVuSans-65" transform="translate(177.876953 0)"/>
      <use xlink:href="#DejaVuSans-6e" transform="translate(239.400391 0)"/>
      <use xlink:href="#DejaVuSans-20" transform="translate(302.779297 0)"/>
      <use xlink:href="#DejaVuSans-54" transform="translate(334.566406 0)"/>
      <use xlink:href="#DejaVuSans-61" transform="translate(379.150391 0)"/>
      <use xlink:href="#DejaVuSans-78" transform="translate(440.429688 0)"/>
      <use xlink:href="#DejaVuSans-69" transform="translate(499.609375 0)"/>
     </g>
    </g>
    <g id="patch_10">
     <path d="M 52.78125 63.753125 
L 72.78125 63.753125 
L 72.78125 56.753125 
L 52.78125 56.753125 
z
" style="fill: #74a9cf; stroke: #808080; stroke-width: 0.5; stroke-linejoin: miter"/>
    </g>
    <g id="text_21">
     <!-- For Hire -->
     <g transform="translate(80.78125 63.753125) scale(0.1 -0.1)">
      <defs>
       <path id="DejaVuSans-46" d="M 628 4666 
L 3309 4666 
L 3309 4134 
L 1259 4134 
L 1259 2759 
L 3109 2759 
L 3109 2228 
L 1259 2228 
L 1259 0 
L 628 0 
L 628 4666 
z
" transform="scale(0.015625)"/>
       <path id="DejaVuSans-48" d="M 628 4666 
L 1259 4666 
L 1259 2753 
L 3553 2753 
L 3553 4666 
L 4184 4666 
L 4184 0 
L 3553 0 
L 3553 2222 
L 1259 2222 
L 1259 0 
L 628 0 
L 628 4666 
z
" transform="scale(0.015625)"/>
      </defs>
      <use xlink:href="#DejaVuSans-46"/>
      <use xlink:href="#DejaVuSans-6f" transform="translate(53.894531 0)"/>
      <use xlink:href="#DejaVuSans-72" transform="translate(115.076172 0)"/>
      <use xlink:href="#DejaVuSans-20" transform="translate(156.189453 0)"/>
      <use xlink:href="#DejaVuSans-48" transform="translate(187.976562 0)"/>
      <use xlink:href="#DejaVuSans-69" transform="translate(263.171875 0)"/>
      <use xlink:href="#DejaVuSans-72" transform="translate(290.955078 0)"/>
      <use xlink:href="#DejaVuSans-65" transform="translate(329.818359 0)"/>
     </g>
    </g>
    <g id="patch_11">
     <path d="M 52.78125 78.43125 
L 72.78125 78.43125 
L 72.78125 71.43125 
L 52.78125 71.43125 
z
" style="fill: #0570b0; stroke: #808080; stroke-width: 0.5; stroke-linejoin: miter"/>
    </g>
    <g id="text_22">
     <!-- High Volume For Hire -->
     <g transform="translate(80.78125 78.43125) scale(0.1 -0.1)">
      <defs>
       <path id="DejaVuSans-67" d="M 2906 1791 
Q 2906 2416 2648 2759 
Q 2391 3103 1925 3103 
Q 1463 3103 1205 2759 
Q 947 2416 947 1791 
Q 947 1169 1205 825 
Q 1463 481 1925 481 
Q 2391 481 2648 825 
Q 2906 1169 2906 1791 
z
M 3481 434 
Q 3481 -459 3084 -895 
Q 2688 -1331 1869 -1331 
Q 1566 -1331 1297 -1286 
Q 1028 -1241 775 -1147 
L 775 -588 
Q 1028 -725 1275 -790 
Q 1522 -856 1778 -856 
Q 2344 -856 2625 -561 
Q 2906 -266 2906 331 
L 2906 616 
Q 2728 306 2450 153 
Q 2172 0 1784 0 
Q 1141 0 747 490 
Q 353 981 353 1791 
Q 353 2603 747 3093 
Q 1141 3584 1784 3584 
Q 2172 3584 2450 3431 
Q 2728 3278 2906 2969 
L 2906 3500 
L 3481 3500 
L 3481 434 
z
" transform="scale(0.015625)"/>
       <path id="DejaVuSans-68" d="M 3513 2113 
L 3513 0 
L 2938 0 
L 2938 2094 
Q 2938 2591 2744 2837 
Q 2550 3084 2163 3084 
Q 1697 3084 1428 2787 
Q 1159 2491 1159 1978 
L 1159 0 
L 581 0 
L 581 4863 
L 1159 4863 
L 1159 2956 
Q 1366 3272 1645 3428 
Q 1925 3584 2291 3584 
Q 2894 3584 3203 3211 
Q 3513 2838 3513 2113 
z
" transform="scale(0.015625)"/>
       <path id="DejaVuSans-56" d="M 1831 0 
L 50 4666 
L 709 4666 
L 2188 738 
L 3669 4666 
L 4325 4666 
L 2547 0 
L 1831 0 
z
" transform="scale(0.015625)"/>
      </defs>
      <use xlink:href="#DejaVuSans-48"/>
      <use xlink:href="#DejaVuSans-69" transform="translate(75.195312 0)"/>
      <use xlink:href="#DejaVuSans-67" transform="translate(102.978516 0)"/>
      <use xlink:href="#DejaVuSans-68" transform="translate(166.455078 0)"/>
      <use xlink:href="#DejaVuSans-20" transform="translate(229.833984 0)"/>
      <use xlink:href="#DejaVuSans-56" transform="translate(261.621094 0)"/>
      <use xlink:href="#DejaVuSans-6f" transform="translate(322.279297 0)"/>
      <use xlink:href="#DejaVuSans-6c" transform="translate(383.460938 0)"/>
      <use xlink:href="#DejaVuSans-75" transform="translate(411.244141 0)"/>
      <use xlink:href="#DejaVuSans-6d" transform="translate(474.623047 0)"/>
      <use xlink:href="#DejaVuSans-65" transform="translate(572.035156 0)"/>
      <use xlink:href="#DejaVuSans-20" transform="translate(633.558594 0)"/>
      <use xlink:href="#DejaVuSans-46" transform="translate(665.345703 0)"/>
      <use xlink:href="#DejaVuSans-6f" transform="translate(719.240234 0)"/>
      <use xlink:href="#DejaVuSans-72" transform="translate(780.421875 0)"/>
      <use xlink:href="#DejaVuSans-20" transform="translate(821.535156 0)"/>
      <use xlink:href="#DejaVuSans-48" transform="translate(853.322266 0)"/>
      <use xlink:href="#DejaVuSans-69" transform="translate(928.517578 0)"/>
      <use xlink:href="#DejaVuSans-72" transform="translate(956.300781 0)"/>
      <use xlink:href="#DejaVuSans-65" transform="translate(995.164062 0)"/>
     </g>
    </g>
   </g>
  </g>
 </g>
 <defs>
  <clipPath id="peda94f5ff7">
   <rect x="43.78125" y="17.798437" width="805.48" height="440.32"/>
  </clipPath>
 </defs>
</svg>
